<svg width="202" height="83" viewBox="0 0 202 83" fill="none" xmlns="http://www.w3.org/2000/svg">
<path d="M75.4418 50.4768C76.845 51.88 79.1562 51.88 80.5594 50.4768C81.9626 49.0736 81.9626 46.7624 80.5594 45.3592C79.1562 43.956 76.845 43.956 75.4418 45.3592C74.0386 46.6798 74.0386 48.991 75.4418 50.4768Z" fill="white"/>
<path d="M103.836 47.8357C103.836 45.5245 101.938 43.626 99.6268 43.626H97.3981L100.287 40.737L94.3441 34.794L86.0073 43.2958L82.8708 40.1593L91.4551 31.5749L85.5121 25.6318L82.2104 28.9335V26.2096C82.2104 23.8985 80.3119 22 78.0007 22C75.6896 22 73.7911 23.8985 73.7911 26.2096V28.4383L70.9847 25.6318L65.0417 31.5749L73.2133 39.9116L69.9942 43.1308L61.4098 34.5464L55.4668 40.4894L58.6859 43.7086H56.2097C53.8985 43.7086 52 45.607 52 47.9182C52 50.2294 53.8985 52.1278 56.2097 52.1278H58.4383L55.5493 55.0168L61.4923 60.9598L69.9942 52.6231L73.2959 56.0073L64.794 64.5092L70.7371 70.4522L73.7911 67.3981V69.6268C73.7911 71.9379 75.6896 73.8364 78.0007 73.8364C80.3119 73.8364 82.2104 71.9379 82.2104 69.6268V67.3981L85.2645 70.4522L91.2075 64.5092L82.7057 55.9248L85.9248 52.6231L94.4266 61.1249L100.37 55.1819L97.1505 51.9628H99.6268C101.938 52.0453 103.836 50.1468 103.836 47.8357ZM96.8203 55.2645L94.4266 57.6582L85.8422 49.0738L79.1564 55.9248L87.5756 64.3441L85.1819 66.7378L79.6516 61.2075V69.3791C79.6516 70.2871 78.9087 71.1125 77.9182 71.1125C76.9277 71.1125 76.1848 70.3696 76.1848 69.3791V61.2075L70.6545 66.7378L68.2608 64.3441L76.7626 55.8422L70.0767 48.9087L61.5749 57.2455L59.1812 54.8517L64.5464 49.4865H56.3747C55.4668 49.4865 54.6414 48.7436 54.6414 47.7531C54.6414 46.7626 55.3842 46.0197 56.3747 46.0197H64.794L59.0986 40.3243L61.4923 37.9306L70.0767 46.515L76.7626 39.8291L68.591 31.4923L70.9847 29.0986L76.2674 34.3813V26.2096C76.2674 25.3017 77.0102 24.4763 78.0007 24.4763C78.9913 24.4763 79.7341 25.2191 79.7341 26.2096V34.9591L85.5121 29.1812L87.9058 31.5749L79.404 40.1593L85.4295 46.1848H86.6677L94.5092 38.3433L96.9029 40.737L91.5377 46.1023H99.7093C100.617 46.1023 101.443 46.8452 101.443 47.8357C101.443 48.8262 100.7 49.569 99.7093 49.569H91.29L96.8203 55.2645Z" fill="white"/>
<path d="M131.636 72.7153C131.148 72.2269 130.294 72.2269 129.805 72.7153C129.317 73.2036 129.317 74.0581 129.805 74.5464C130.294 75.0347 131.148 75.0347 131.636 74.5464C132.186 73.9971 132.125 73.2036 131.636 72.7153Z" fill="white"/>
<path d="M125.41 84.4348L123.579 82.6036L121.748 84.4348L123.579 86.2659L125.41 84.4348Z" fill="white"/>
<path d="M127.852 78.2088L129.744 80.101C130.721 81.0776 132.369 81.1387 133.406 80.101L127.913 74.6076C126.814 75.5842 126.875 77.2322 127.852 78.2088Z" fill="white"/>
<path d="M134.994 77.9035L133.163 76.0724L132.125 77.11L133.956 78.9412L134.994 77.9035Z" fill="white"/>
<path d="M142.562 91.2099L135.36 84.0074L144.455 74.9127L132.857 63.3155L123.763 72.4101L117.415 66.0622C115.217 63.8648 111.677 63.8648 109.48 66.0622C107.282 68.2596 107.282 71.7998 109.48 73.9971L114.302 78.8192L111.067 82.0542L95.1357 90.4164C93.8539 91.0878 92.8163 92.2476 92.389 93.6514C91.9617 95.0553 92.0838 96.5202 92.7552 97.9241C93.4266 99.2059 94.5864 100.244 95.9903 100.671C97.3941 101.098 98.8591 100.976 100.263 100.305L111.799 94.2618L113.813 96.2761L107.771 107.812C107.099 109.094 106.916 110.62 107.404 112.085C107.649 112.94 108.198 113.733 108.808 114.343C109.175 114.71 109.663 115.076 110.151 115.32C111.433 115.991 112.959 116.175 114.424 115.686C115.828 115.259 117.048 114.282 117.659 112.94L126.937 95.2384L128.89 93.2852L134.627 99.0228C136.825 101.22 140.365 101.22 142.562 99.0228C144.76 96.8254 144.76 93.4073 142.562 91.2099ZM136.52 97.2527L128.951 89.684L124.922 93.7125L115.461 111.719C115.095 112.451 114.485 112.94 113.752 113.184C113.02 113.428 112.226 113.367 111.494 113.001C110.761 112.634 110.273 112.024 110.029 111.291C109.785 110.559 109.846 109.766 110.212 109.033L117.171 95.8488L112.471 91.1489L99.2863 98.1072C98.5539 98.4735 97.7604 98.5345 97.0279 98.2903C96.2955 98.0462 95.624 97.4969 95.3188 96.8254C94.9526 96.093 94.8916 95.2995 95.1357 94.567C95.3799 93.8346 95.9292 93.1631 96.6006 92.8579L112.898 84.2516L118.269 78.8802L111.616 72.227C110.456 71.0673 110.395 69.1751 111.616 67.9544C112.837 66.7336 114.668 66.7336 115.889 67.9544L124.068 76.1335L133.163 67.0388L141.097 74.9738L132.003 84.0684L141.036 93.1021C142.196 94.2618 142.257 96.154 141.036 97.3748C139.816 98.5955 137.679 98.4124 136.52 97.2527Z" fill="white"/>
<path d="M-0.812906 34.4814C-1.81373 34.4814 -2.56433 35.3155 -2.56433 36.2329C-2.56433 37.2337 -1.73033 37.9843 -0.812906 37.9843C0.187921 37.9843 0.93852 37.1503 0.93852 36.2329C1.02192 35.3155 0.187921 34.4814 -0.812906 34.4814Z" fill="white"/>
<path d="M2.35582 46.7417C3.35664 46.7417 4.10729 45.9076 4.10729 44.9902C4.10729 43.9894 3.27324 43.2388 2.35582 43.2388C1.35499 43.2388 0.604392 44.0728 0.604392 44.9902C0.52099 45.9076 1.35499 46.7417 2.35582 46.7417Z" fill="white"/>
<path d="M11.3633 50.9951C12.3641 50.9951 13.1147 50.161 13.1147 49.2436C13.1147 48.2428 12.2807 47.4922 11.3633 47.4922C10.3624 47.4922 9.61184 48.3262 9.61184 49.2436C9.52844 50.161 10.3624 50.9951 11.3633 50.9951Z" fill="white"/>
<path d="M8.77779 39.5688C7.77697 39.5688 7.02637 40.4029 7.02637 41.3203C7.02637 42.3211 7.86037 43.0717 8.77779 43.0717C9.77862 43.0717 10.5292 42.2377 10.5292 41.3203C10.5292 40.4029 9.69522 39.5688 8.77779 39.5688Z" fill="white"/>
<path d="M16.201 36.8999L5.8591 30.3111L-0.312683 15.2153L-20.496 23.4721L-11.7387 44.9065L4.35787 55.2484C6.19272 56.416 8.19437 56.9998 10.196 56.9998C13.7823 56.9998 17.2852 55.2484 19.3703 51.9957C22.7064 46.9082 21.2051 40.1526 16.201 36.8999ZM17.3686 50.6613C14.8665 54.5812 9.69562 55.6654 5.77572 53.1633L-9.65369 43.2385L-17.1599 24.8066L-1.6471 18.468L3.85743 31.9792L14.8665 39.0684C18.703 41.5704 19.8707 46.7414 17.3686 50.6613Z" fill="white"/>
<path d="M41.4137 6.8114L39.5371 8.68799L41.4137 10.5646L43.2903 8.68798L41.4137 6.8114Z" fill="white"/>
<path d="M27.9841 6.82483L26.1075 8.70142L27.9841 10.578L29.8607 8.70141L27.9841 6.82483Z" fill="white"/>
<path d="M54.8362 6.77625L52.9596 8.65283L54.8362 10.5294L56.7128 8.65282L54.8362 6.77625Z" fill="white"/>
<path d="M50.0398 -15.1356V-20.6922H46.8054C46.8054 -23.6778 44.4003 -26 41.4147 -26C38.429 -26 36.0239 -23.5949 36.0239 -20.6922H32.7894V-15.1356C25.2424 -11.8182 19.9346 -4.27113 19.9346 4.51994C19.9346 16.3796 29.555 26 41.4147 26C53.2743 26 62.8947 16.3796 62.8947 4.51994C62.8118 -4.27113 57.5039 -11.8182 50.0398 -15.1356ZM41.4147 -23.512C42.9904 -23.512 44.3174 -22.2679 44.3174 -20.6922H38.5119C38.5119 -22.185 39.756 -23.512 41.4147 -23.512ZM35.2775 -18.1212H47.5518V-15.9649C45.6443 -16.5455 43.571 -16.8772 41.4147 -16.8772C39.2584 -16.8772 37.185 -16.5455 35.2775 -15.9649V-18.1212ZM41.4147 -14.4721C51.6156 -14.4721 59.9091 -6.42743 60.3237 3.60765L54.933 -1.7831L48.2153 4.93461L41.4976 -1.7831L34.7799 4.93461L28.0622 -1.7831L22.5055 3.77352C22.8373 -6.3445 31.1308 -14.4721 41.4147 -14.4721ZM41.4147 23.512C31.8772 23.512 23.9154 16.3796 22.6714 7.17384L28.0622 1.78309L34.7799 8.50079L41.4976 1.78309L48.2153 8.50079L54.933 1.78309L60.2408 7.0909C58.9138 16.2966 50.9521 23.512 41.4147 23.512Z" fill="white"/>
<path d="M117.135 30.5081L109.19 22.5624L113.604 18.1482L112.662 17.2065L108.248 21.6207L99.7726 13.1454L104.187 8.7311L103.245 7.78941L98.8309 12.2037L90.8853 4.25801L98.5367 -3.39336L95.3584 -6.57164L121.608 -32.8217L124.787 -29.6435L127.965 -32.8217L154.215 -6.57165L151.037 -3.39339L154.215 -0.215109L127.965 26.035L124.787 22.8567L117.135 30.5081ZM112.721 22.5624L117.135 26.9767L124.787 19.3253L127.965 22.5036L150.684 -0.215109L147.505 -3.39339L150.684 -6.57165L127.965 -29.2903L124.787 -26.1121L121.608 -29.2903L98.8898 -6.57164L102.068 -3.39336L94.4167 4.25801L98.8309 8.67226L103.245 4.25801L107.718 8.7311L103.304 13.1454L108.307 18.1482L112.721 13.7339L117.194 18.207L112.78 22.6213L112.721 22.5624Z" fill="white"/>
<path d="M136.323 8.96648L136.382 6.20019L131.261 6.25909L131.261 1.07969L128.495 1.13851L128.495 6.20022L123.374 6.25905L123.374 8.96648L128.495 9.02535L128.495 14.087L131.202 14.087L131.261 8.96646L136.323 8.96648Z" fill="white"/>
<path d="M36.6559 64.174C37.31 62.0928 37.1316 59.6548 35.4667 57.3953C32.8503 53.8275 28.6879 53.5897 25.7743 54.9573C23.0985 56.206 20.8389 58.9413 21.0767 62.628C21.1362 63.401 21.8498 63.8767 22.5038 63.6983L22.6822 63.6388C23.2768 63.5199 23.5742 62.9847 23.5742 62.3901C23.3958 59.8332 25.1797 58.0494 26.7851 57.2764C28.6879 56.4439 31.5421 56.325 33.4449 58.9413C35.3477 61.5576 34.3369 64.2335 32.9098 65.7795C31.5421 67.266 28.8663 68.5148 26.131 66.8498L24.704 65.7795L24.585 65.6606C21.3741 63.8767 18.0442 65.0659 16.2603 67.0877C14.4764 69.1094 13.5845 72.4987 15.7846 75.5313C17.6279 78.0882 20.4227 78.6234 22.8012 78.0287L14.417 86.4129L41.4724 113.468L68.4683 86.4724L41.4129 59.417L36.6559 64.174ZM26.6067 70.5365L26.4284 70.5959C25.8337 70.7149 25.477 71.1906 25.477 71.7852C25.4175 73.6285 24.0499 74.8772 22.8011 75.4124C21.3741 76.007 19.174 76.0665 17.8063 74.1042C16.3792 72.0825 17.0928 70.0608 18.1631 68.8715C19.2334 67.6823 21.1957 66.7903 23.2769 67.9201L24.7039 68.9905L24.7634 69.0499C26.9041 70.3581 29.0447 70.477 30.9475 69.8824L27.796 73.0339C27.8555 72.6177 27.9149 72.2014 27.9149 71.8446C28.0338 71.0122 27.3203 70.4176 26.6067 70.5365ZM55.5055 95.7485L41.3534 109.901L27.0824 95.6296L41.2345 81.4776L55.5055 95.7485ZM39.4506 79.6937L25.2986 93.8457L17.8658 86.4129L32.0178 72.2609L39.4506 79.6937ZM64.8411 86.4129L57.3488 93.9052L43.0778 79.6342L50.5701 72.142L64.8411 86.4129ZM48.7862 70.3581L41.294 77.8504L33.8612 70.4176L41.3534 62.9253L48.7862 70.3581Z" fill="white"/>
<path d="M192.602 45.3833L177.489 34.8781L177.583 16.4924L162.903 27.5618L145.445 21.7298L151.445 39.0959L140.551 53.9253L158.973 53.5945L169.723 68.5578L175.095 50.9582L192.602 45.3833ZM160.18 51.1871L145.337 51.4516L154.173 39.4891L149.337 25.4544L163.395 30.1131L175.239 21.1656L175.149 36.0087L187.289 44.4909L173.149 49.0073L168.844 63.2428L160.18 51.1871Z" fill="white"/>
<path d="M181.445 43.421L172.597 37.2103L172.646 26.3347L163.959 32.8774L153.69 29.4989L157.219 39.7767L150.796 48.5186L161.636 48.2845L167.931 57.1134L171.097 46.7378L181.445 43.421ZM162.879 45.8063L155.617 45.9741L159.982 40.0991L157.582 33.2235L164.487 35.5349L170.302 31.185L170.293 38.4472L176.274 42.5996L169.328 44.7871L167.229 51.7987L162.879 45.8063Z" fill="white"/>
</svg>
