<svg width="202" height="83" viewBox="0 0 202 83" fill="none" xmlns="http://www.w3.org/2000/svg">
<path d="M115.442 51.4768C116.845 52.88 119.156 52.88 120.559 51.4768C121.963 50.0736 121.963 47.7624 120.559 46.3592C119.156 44.956 116.845 44.956 115.442 46.3592C114.039 47.6798 114.039 49.991 115.442 51.4768Z" fill="white"/>
<path d="M143.836 48.8357C143.836 46.5245 141.938 44.626 139.627 44.626H137.398L140.287 41.737L134.344 35.794L126.007 44.2958L122.871 41.1593L131.455 32.5749L125.512 26.6318L122.21 29.9335V27.2096C122.21 24.8985 120.312 23 118.001 23C115.69 23 113.791 24.8985 113.791 27.2096V29.4383L110.985 26.6318L105.042 32.5749L113.213 40.9116L109.994 44.1308L101.41 35.5464L95.4668 41.4894L98.6859 44.7086H96.2097C93.8985 44.7086 92 46.607 92 48.9182C92 51.2294 93.8985 53.1278 96.2097 53.1278H98.4383L95.5493 56.0168L101.492 61.9598L109.994 53.6231L113.296 57.0073L104.794 65.5092L110.737 71.4522L113.791 68.3981V70.6268C113.791 72.9379 115.69 74.8364 118.001 74.8364C120.312 74.8364 122.21 72.9379 122.21 70.6268V68.3981L125.264 71.4522L131.207 65.5092L122.706 56.9248L125.925 53.6231L134.427 62.1249L140.37 56.1819L137.151 52.9628H139.627C141.938 53.0453 143.836 51.1468 143.836 48.8357ZM136.82 56.2645L134.427 58.6582L125.842 50.0738L119.156 56.9248L127.576 65.3441L125.182 67.7378L119.652 62.2075V70.3791C119.652 71.2871 118.909 72.1125 117.918 72.1125C116.928 72.1125 116.185 71.3696 116.185 70.3791V62.2075L110.655 67.7378L108.261 65.3441L116.763 56.8422L110.077 49.9087L101.575 58.2455L99.1812 55.8517L104.546 50.4865H96.3747C95.4668 50.4865 94.6414 49.7436 94.6414 48.7531C94.6414 47.7626 95.3842 47.0197 96.3747 47.0197H104.794L99.0986 41.3243L101.492 38.9306L110.077 47.515L116.763 40.8291L108.591 32.4923L110.985 30.0986L116.267 35.3813V27.2096C116.267 26.3017 117.01 25.4763 118.001 25.4763C118.991 25.4763 119.734 26.2191 119.734 27.2096V35.9591L125.512 30.1812L127.906 32.5749L119.404 41.1593L125.43 47.1848H126.668L134.509 39.3433L136.903 41.737L131.538 47.1023H139.709C140.617 47.1023 141.443 47.8452 141.443 48.8357C141.443 49.8262 140.7 50.569 139.709 50.569H131.29L136.82 56.2645Z" fill="white"/>
<path d="M165.636 73.7153C165.148 73.2269 164.294 73.2269 163.805 73.7153C163.317 74.2036 163.317 75.0581 163.805 75.5464C164.294 76.0347 165.148 76.0347 165.636 75.5464C166.186 74.9971 166.125 74.2036 165.636 73.7153Z" fill="white"/>
<path d="M161.852 79.2088L163.744 81.101C164.721 82.0776 166.369 82.1387 167.406 81.101L161.913 75.6076C160.814 76.5842 160.875 78.2322 161.852 79.2088Z" fill="white"/>
<path d="M168.994 78.9035L167.163 77.0724L166.125 78.11L167.956 79.9412L168.994 78.9035Z" fill="white"/>
<path d="M176.562 92.2099L169.36 85.0074L178.455 75.9127L166.857 64.3155L157.763 73.4101L151.415 67.0622C149.217 64.8648 145.677 64.8648 143.48 67.0622C141.282 69.2596 141.282 72.7998 143.48 74.9971L148.302 79.8192L145.067 83.0542L129.136 91.4164C127.854 92.0878 126.816 93.2476 126.389 94.6514C125.962 96.0553 126.084 97.5202 126.755 98.9241C127.427 100.206 128.586 101.244 129.99 101.671C131.394 102.098 132.859 101.976 134.263 101.305L145.799 95.2618L147.813 97.2761L141.771 108.812C141.099 110.094 140.916 111.62 141.404 113.085C141.649 113.94 142.198 114.733 142.808 115.343C143.175 115.71 143.663 116.076 144.151 116.32C145.433 116.991 146.959 117.175 148.424 116.686C149.828 116.259 151.048 115.282 151.659 113.94L160.937 96.2384L162.89 94.2852L168.627 100.023C170.825 102.22 174.365 102.22 176.562 100.023C178.76 97.8254 178.76 94.4073 176.562 92.2099ZM170.52 98.2527L162.951 90.684L158.922 94.7125L149.461 112.719C149.095 113.451 148.485 113.94 147.752 114.184C147.02 114.428 146.226 114.367 145.494 114.001C144.761 113.634 144.273 113.024 144.029 112.291C143.785 111.559 143.846 110.766 144.212 110.033L151.171 96.8488L146.471 92.1489L133.286 99.1072C132.554 99.4735 131.76 99.5345 131.028 99.2903C130.295 99.0462 129.624 98.4969 129.319 97.8254C128.953 97.093 128.892 96.2995 129.136 95.567C129.38 94.8346 129.929 94.1631 130.601 93.8579L146.898 85.2516L152.269 79.8802L145.616 73.227C144.456 72.0673 144.395 70.1751 145.616 68.9544C146.837 67.7336 148.668 67.7336 149.889 68.9544L158.068 77.1335L167.163 68.0388L175.097 75.9738L166.003 85.0684L175.036 94.1021C176.196 95.2618 176.257 97.154 175.036 98.3748C173.816 99.5955 171.679 99.4124 170.52 98.2527Z" fill="white"/>
<path d="M24.2859 21.055C24.7614 20.5796 25.5934 20.5796 26.0688 21.055C26.5443 21.5305 26.5443 22.3625 26.0688 22.8379C25.5934 23.3134 24.7614 23.3134 24.2859 22.8379C23.751 22.3031 23.8105 21.5305 24.2859 21.055Z" fill="white"/>
<path d="M30.3478 32.4658L32.1307 30.6829L33.9136 32.4658L32.1307 34.2487L30.3478 32.4658Z" fill="white"/>
<path d="M34.1511 36.269L35.934 34.4861L37.7169 36.269L35.934 38.0519L34.1511 36.269Z" fill="white"/>
<path d="M27.9706 26.4038L26.1283 28.2461C25.1774 29.197 23.5728 29.2564 22.5625 28.2461L27.9112 22.8974C28.9809 23.8483 28.9215 25.4529 27.9706 26.4038Z" fill="white"/>
<path d="M21.0169 26.1065L22.7998 24.3236L23.8101 25.3339L22.0272 27.1168L21.0169 26.1065Z" fill="white"/>
<path d="M13.6478 39.0623L20.6606 32.0496L11.8055 23.1945L23.0972 11.9028L31.9523 20.7579L38.133 14.5771C40.2725 12.4377 43.7194 12.4377 45.8589 14.5772C47.9984 16.7166 47.9984 20.1636 45.8589 22.303L41.1639 26.998L44.3137 30.1478L59.8249 38.2897C61.073 38.9435 62.0833 40.0726 62.4993 41.4395C62.9153 42.8064 62.7964 44.2327 62.1427 45.5996C61.489 46.8476 60.3598 47.858 58.9929 48.274C57.626 48.69 56.1997 48.5711 54.8328 47.9174L43.6005 42.0338L41.6393 43.995L47.5229 55.2273C48.1766 56.4753 48.3549 57.961 47.8795 59.3874C47.6418 60.2194 47.1069 60.992 46.5126 61.5863C46.156 61.9428 45.6806 62.2994 45.2052 62.5372C43.9571 63.1909 42.4714 63.3692 41.045 62.8937C39.6782 62.4777 38.4896 61.5268 37.8953 60.2194L28.8619 42.9847L26.9601 41.0829L21.3737 46.6693C19.2342 48.8088 15.7873 48.8088 13.6478 46.6693C11.5083 44.5299 11.5083 41.2018 13.6478 39.0623ZM19.5314 44.9459L26.9007 37.5766L30.8231 41.4989L40.0347 59.0308C40.3913 59.744 40.9856 60.2194 41.6988 60.4571C42.4119 60.6948 43.1845 60.6354 43.8977 60.2788C44.6109 59.9222 45.0863 59.3279 45.324 58.6148C45.5617 57.9016 45.5023 57.129 45.1457 56.4159L38.3707 43.579L42.9468 39.0029L55.7837 45.7779C56.4969 46.1345 57.2694 46.1939 57.9826 45.9562C58.6958 45.7185 59.3495 45.1836 59.6466 44.5299C60.0032 43.8167 60.0626 43.0441 59.8249 42.331C59.5872 41.6178 59.0524 40.9641 58.3986 40.6669L42.5308 32.2873L37.301 27.0575L43.7788 20.5796C44.908 19.4504 44.9674 17.6081 43.7788 16.4195C42.5902 15.2309 40.8073 15.2309 39.6187 16.4195L31.6551 24.3831L22.8 15.528L15.0741 23.2539L23.9292 32.109L15.1336 40.9046C14.0044 42.0338 13.945 43.8761 15.1336 45.0647C16.3222 46.2533 18.4022 46.0751 19.5314 44.9459Z" fill="white"/>
<path d="M199.684 43.6838C198.683 43.6838 197.932 44.5179 197.932 45.4353C197.932 46.4361 198.766 47.1867 199.684 47.1867C200.685 47.1867 201.435 46.3527 201.435 45.4353C201.435 44.5179 200.601 43.6838 199.684 43.6838Z" fill="white"/>
<path d="M203.187 53.1917C202.186 53.1917 201.436 54.0257 201.436 54.9431C201.436 55.9439 202.27 56.6945 203.187 56.6945C204.188 56.6945 204.939 55.8605 204.939 54.9431C205.022 54.0257 204.188 53.1917 203.187 53.1917Z" fill="white"/>
<path d="M195.097 54.6928C196.098 54.6928 196.848 53.8588 196.848 52.9414C196.848 51.9406 196.014 51.1899 195.097 51.1899C194.096 51.1899 193.345 52.024 193.345 52.9414C193.262 53.8588 194.096 54.6928 195.097 54.6928Z" fill="white"/>
<path d="M199.183 23L179 31.2568L182.836 40.6813L203.02 32.4244L199.183 23ZM182.336 32.5913L197.849 26.2527L199.851 31.09L184.338 37.4286L182.336 32.5913Z" fill="white"/>
<path d="M220.201 55.6101L209.859 49.0213L203.687 33.9255L183.504 42.1824L192.261 63.6167L208.358 73.9586C210.193 75.1262 212.194 75.71 214.196 75.71C217.782 75.71 221.285 73.9586 223.37 70.7059C226.706 65.6184 225.205 58.8628 220.201 55.6101ZM221.369 69.3715C218.867 73.2914 213.696 74.3756 209.776 71.8735L194.346 61.9487L186.84 43.5168L202.353 37.1782L207.857 50.6894L218.867 57.7786C222.703 60.2806 223.871 65.4516 221.369 69.3715Z" fill="white"/>
<path d="M74.5067 1.15165L72.6301 3.0282L74.5067 4.90477L76.3833 3.02822L74.5067 1.15165Z" fill="white"/>
<path d="M88.2853 1.17969L86.4087 3.05627L88.2853 4.93285L90.1619 3.05627L88.2853 1.17969Z" fill="white"/>
<path d="M81.4791 11.8114L79.6025 13.688L81.4791 15.5646L83.3557 13.688L81.4791 11.8114Z" fill="white"/>
<path d="M68.0496 11.8248L66.173 13.7014L68.0495 15.578L69.9261 13.7014L68.0496 11.8248Z" fill="white"/>
<path d="M94.9016 11.7762L93.025 13.6528L94.9016 15.5294L96.7782 13.6528L94.9016 11.7762Z" fill="white"/>
<path d="M90.1053 -10.1356V-15.6922H86.8708C86.8708 -18.6778 84.4657 -21 81.4801 -21C78.4944 -21 76.0893 -18.5949 76.0893 -15.6922H72.8549V-10.1356C65.3078 -6.81818 60 0.72887 60 9.51994C60 21.3796 69.6204 31 81.4801 31C93.3397 31 102.96 21.3796 102.96 9.51994C102.877 0.72887 97.5694 -6.81818 90.1053 -10.1356ZM81.4801 -18.512C83.0558 -18.512 84.3828 -17.2679 84.3828 -15.6922H78.5774C78.5774 -17.185 79.8214 -18.512 81.4801 -18.512ZM75.3429 -13.1212H87.6172V-10.9649C85.7097 -11.5455 83.6364 -11.8772 81.4801 -11.8772C79.3238 -11.8772 77.2504 -11.5455 75.3429 -10.9649V-13.1212ZM81.4801 -9.47209C91.681 -9.47209 99.9745 -1.42743 100.389 8.60765L94.9984 3.2169L88.2807 9.93461L81.563 3.2169L74.8453 9.93461L68.1276 3.2169L62.571 8.77352C62.9027 -1.3445 71.1962 -9.47209 81.4801 -9.47209ZM81.4801 28.512C71.9426 28.512 63.9809 21.3796 62.7368 12.1738L68.1276 6.78309L74.8453 13.5008L81.563 6.78309L88.2807 13.5008L94.9984 6.78309L100.306 12.0909C98.9792 21.2966 91.0176 28.512 81.4801 28.512Z" fill="white"/>
<path d="M155.428 32.5081L147.483 24.5624L151.897 20.1482L150.955 19.2065L146.541 23.6207L138.066 15.1454L142.48 10.7311L141.538 9.78941L137.124 14.2037L129.178 6.25801L136.83 -1.39336L133.651 -4.57164L159.901 -30.8217L163.08 -27.6435L166.258 -30.8217L192.508 -4.57165L189.33 -1.39339L192.508 1.78489L166.258 28.035L163.08 24.8567L155.428 32.5081ZM151.014 24.5624L155.428 28.9767L163.08 21.3253L166.258 24.5036L188.977 1.78489L185.798 -1.39339L188.977 -4.57165L166.258 -27.2903L163.08 -24.1121L159.901 -27.2903L137.183 -4.57164L140.361 -1.39336L132.71 6.25801L137.124 10.6723L141.538 6.25801L146.011 10.7311L141.597 15.1454L146.6 20.1482L151.014 15.7339L155.487 20.207L151.073 24.6213L151.014 24.5624Z" fill="white"/>
<path d="M174.616 10.9665L174.675 8.20019L169.554 8.25909L169.554 3.07969L166.788 3.13851L166.788 8.20022L161.667 8.25905L161.667 10.9665L166.788 11.0254L166.788 16.087L169.495 16.087L169.554 10.9665L174.616 10.9665Z" fill="white"/>
<path d="M158.607 -7.86755L153.427 -7.86757L153.427 -13.047L150.661 -12.9881L150.72 -7.8676L145.541 -7.86754L145.541 -5.16017L150.661 -5.10131L150.72 0.019245L153.427 0.0191998L153.427 -5.16013L158.548 -5.10133L158.607 -7.86755Z" fill="white"/>
<path d="M77.6559 65.174C78.31 63.0928 78.1316 60.6548 76.4667 58.3953C73.8503 54.8275 69.6879 54.5897 66.7743 55.9573C64.0985 57.206 61.8389 59.9413 62.0767 63.628C62.1362 64.401 62.8498 64.8767 63.5038 64.6983L63.6822 64.6388C64.2768 64.5199 64.5742 63.9847 64.5742 63.3901C64.3958 60.8332 66.1797 59.0494 67.7851 58.2764C69.6879 57.4439 72.5421 57.325 74.4449 59.9413C76.3477 62.5576 75.3369 65.2335 73.9098 66.7795C72.5421 68.266 69.8663 69.5148 67.131 67.8498L65.704 66.7795L65.585 66.6606C62.3741 64.8767 59.0442 66.0659 57.2603 68.0877C55.4764 70.1094 54.5845 73.4987 56.7846 76.5313C58.6279 79.0882 61.4227 79.6234 63.8012 79.0287L55.417 87.4129L82.4724 114.468L109.468 87.4724L82.4129 60.417L77.6559 65.174ZM67.6067 71.5365L67.4284 71.5959C66.8337 71.7149 66.477 72.1906 66.477 72.7852C66.4175 74.6285 65.0499 75.8772 63.8011 76.4124C62.3741 77.007 60.174 77.0665 58.8063 75.1042C57.3792 73.0825 58.0928 71.0608 59.1631 69.8715C60.2334 68.6823 62.1957 67.7903 64.2769 68.9201L65.7039 69.9905L65.7634 70.0499C67.9041 71.3581 70.0447 71.477 71.9475 70.8824L68.796 74.0339C68.8555 73.6177 68.9149 73.2014 68.9149 72.8446C69.0338 72.0122 68.3203 71.4176 67.6067 71.5365ZM96.5055 96.7485L82.3534 110.901L68.0824 96.6296L82.2345 82.4776L96.5055 96.7485ZM80.4506 80.6937L66.2986 94.8457L58.8658 87.4129L73.0178 73.2609L80.4506 80.6937ZM105.841 87.4129L98.3488 94.9052L84.0778 80.6342L91.5701 73.142L105.841 87.4129ZM89.7862 71.3581L82.294 78.8504L74.8612 71.4176L82.3534 63.9253L89.7862 71.3581Z" fill="white"/>
</svg>
