<svg width="326" height="301" viewBox="0 0 326 301" fill="none" xmlns="http://www.w3.org/2000/svg">
<path opacity="0.1" fill-rule="evenodd" clip-rule="evenodd" d="M150.754 10.1518C144.62 15.7179 136.349 23.1965 132.374 26.771L125.146 33.27L105.963 29.1363C95.4117 26.8629 86.7194 25.0624 86.6468 25.1354C86.4172 25.3658 92.4874 49.2886 92.8727 49.672C93.2318 50.0295 108.52 58.8394 108.577 58.722C108.593 58.6895 108.313 55.1524 107.954 50.8622C107.596 46.5715 107.386 42.9808 107.488 42.8819C107.59 42.7834 112.535 43.9696 118.475 45.5181L129.277 48.3332L145.92 38.2039L162.563 28.0746L179.206 38.2039L195.85 48.3332L206.651 45.5181C212.592 43.9696 217.536 42.7834 217.638 42.8819C217.741 42.9808 217.544 46.5223 217.201 50.7523C216.859 54.9822 216.699 58.4432 216.846 58.4428C217.187 58.4428 231.76 50.1359 232.254 49.6601C232.633 49.2943 238.712 25.3689 238.484 25.139C238.413 25.0682 230.109 26.7758 220.032 28.9341C209.953 31.0919 201.293 32.9262 200.787 33.0102C200.092 33.1249 195.335 29.0858 181.417 16.5651C171.27 7.43645 162.73 -0.0175554 162.438 3.10553e-05C162.146 0.0176175 156.888 4.58613 150.754 10.1518ZM112.703 63.0056L63.0622 77.1455L62.9516 150.207L62.8409 223.268L75.1978 231.722C81.9941 236.372 87.62 240.224 87.6996 240.281C87.7792 240.339 86.1539 247.674 84.0878 256.582C82.0217 265.49 80.333 273.386 80.3347 274.13C80.3387 275.731 81.8865 277.394 83.3718 277.394C83.9268 277.394 95.1833 275.703 108.387 273.636L132.393 269.878L147.675 280.196L162.957 290.514L178.304 280.193L193.65 269.871L217.477 273.933L241.303 277.995L242.454 277.131C243.087 276.656 243.75 275.874 243.927 275.393C244.128 274.847 242.856 268.264 240.547 257.892C238.511 248.748 236.91 241.208 236.99 241.137C237.069 241.066 242.99 237.135 250.147 232.399L263.16 223.79L263.05 150.466L262.939 77.1411L213.079 62.9717C185.656 55.1783 163.023 48.8164 162.782 48.834C162.541 48.8516 140.006 55.2289 112.703 63.0056ZM81.3328 53.9284C81.1697 54.3557 80.1139 57.0799 78.9859 59.9816C77.8579 62.8834 76.9639 65.2918 76.9994 65.3332C77.0658 65.4123 92.7586 60.8266 93.8787 60.4011C94.5212 60.1566 93.7938 59.709 85.4668 55.2197C82.0444 53.3748 81.597 53.235 81.3328 53.9284ZM237.49 56.6411C234.076 58.4784 231.419 60.1065 231.585 60.2595C231.896 60.5466 248.421 65.4989 248.553 65.3446C248.653 65.2268 244.086 53.6246 243.868 53.4443C243.773 53.3652 240.902 54.8042 237.49 56.6411ZM203.129 81.1763L243.039 92.4941V100.281V108.068L236.041 118.896L229.043 129.724V157.51V185.295L236.041 192.319L243.039 199.344L243.024 206.163L243.009 212.984L203.001 239.672L162.993 266.36L123 239.672L83.0079 212.984L82.9852 205.723L82.9624 198.464L89.5229 191.88L96.0835 185.296V157.51V129.724L89.5229 119.585L82.9624 109.445V100.967V92.4897L122.435 81.2326C144.145 75.0413 162.202 69.9492 162.563 69.9171C162.924 69.885 181.179 74.9516 203.129 81.1763ZM128.011 116.038V120.875H122.982H117.952V157.147V193.419H122.982H128.011V204.63V215.841H137.404H146.797L146.917 208.477L147.037 201.113L149.989 200.983L152.941 200.853V208.347V215.841H162.563H172.185V208.347V200.853L175.138 200.983L178.09 201.113L178.21 208.477L178.33 215.841H187.722H197.115V204.63V193.419H202.145H207.175V157.147V120.875H202.145H197.115V116.038V111.202H162.563H128.011V116.038ZM32.5235 136.473L21.3037 153.392L21.1891 170.719L21.075 188.046L10.5781 183.965C4.80489 181.72 0.0450194 179.915 0.000407948 179.954C-0.0608235 180.008 6.7866 206.287 9.94614 218.124C10.3179 219.517 12.9329 222.036 28.2889 235.795C41.1716 247.339 45.9865 251.903 45.4451 252.057C45.0313 252.174 40.5597 253.109 35.5081 254.133C30.4565 255.157 26.1803 256.116 26.005 256.264C25.83 256.413 32.9219 263.805 41.7642 272.691L57.8414 288.848L93.2428 294.967C112.713 298.332 128.684 301.046 128.732 300.997C128.857 300.871 125.056 282.191 124.867 282.001C124.782 281.915 115.958 283.225 105.259 284.911C83.6898 288.311 81.23 288.466 77.529 286.651C73.2734 284.564 70.2407 280.24 69.6494 275.415C69.4281 273.613 69.9656 270.685 72.6336 259.148C74.4233 251.41 75.8557 245.059 75.8167 245.034C75.7778 245.01 70.501 241.389 64.09 236.988L52.4346 228.987L52.2369 207.356L52.0397 185.725L49.1303 172.208L46.2205 158.692L45.1262 139.268C44.524 128.584 43.9668 119.779 43.8876 119.699C43.808 119.619 38.6943 127.167 32.5235 136.473ZM281.965 119.657C281.965 119.809 281.473 128.649 280.873 139.3L279.782 158.666L276.718 173.277L273.655 187.888V208.676V229.463L261.166 237.84C251.4 244.391 248.729 246.38 248.914 246.967C249.043 247.379 250.357 253.059 251.833 259.588C254.991 273.555 255.205 276.275 253.45 280.1C252.105 283.034 249.479 285.739 246.622 287.137C243.001 288.908 240.719 288.741 219.968 285.181C209.564 283.396 201.05 281.953 201.049 281.973C201.047 281.994 200.174 286.26 199.109 291.455C198.043 296.649 197.217 300.944 197.271 300.999C197.326 301.054 213.297 298.344 232.762 294.978L268.152 288.856L284.234 272.695C294.396 262.482 300.117 256.427 299.778 256.244C299.482 256.085 295.206 255.127 290.275 254.115C285.343 253.103 280.97 252.178 280.556 252.059C280.013 251.903 284.8 247.369 297.706 235.817C314.089 221.153 315.652 219.633 316.111 217.926C318.628 208.553 326.062 180.008 326 179.957C325.956 179.921 321.196 181.732 315.423 183.98L304.926 188.069L304.812 170.727L304.698 153.386L293.715 136.8C282.914 120.488 281.965 119.103 281.965 119.657ZM152.066 163.302V175.393H140.039H128.011V163.302V151.211H140.039H152.066V163.302ZM197.115 163.302V175.393H185.088H173.06V163.302V151.211H185.088H197.115V163.302ZM141.767 243.574C141.367 244.225 140.988 243.922 151.848 251.65C158.197 256.169 161.767 258.446 162.345 258.345C163.658 258.114 182.747 244.395 182.556 243.819C182.324 243.12 142.194 242.88 141.767 243.574Z" fill="white"/>
</svg>
