<svg width="83" height="82" viewBox="0 0 83 82" fill="none" xmlns="http://www.w3.org/2000/svg">
<g opacity="0.2" clip-path="url(#clip0_4782_53158)">
<path fill-rule="evenodd" clip-rule="evenodd" d="M36.3778 4.5142C33.6367 6.94056 31.3826 8.92573 31.3687 8.92573C31.3548 8.92573 29.0441 8.44035 26.2339 7.84718C23.4236 7.25394 21.1105 6.78223 21.0936 6.79896C21.0767 6.81563 21.4266 8.26686 21.871 10.0239L22.6792 13.2185L24.7747 14.4021C26.8469 15.5725 26.8705 15.5837 26.8899 15.4077C26.9008 15.3098 26.8335 14.3655 26.7405 13.3093C26.6475 12.2532 26.5791 11.3822 26.5885 11.3737C26.5979 11.3652 27.9322 11.6966 29.5538 12.1101L32.5019 12.862L36.9562 10.2011L41.4104 7.54033L43.9005 9.02712C45.2701 9.84484 47.2767 11.043 48.3597 11.6898L50.3286 12.8657L53.2563 12.1148C54.8665 11.7019 56.2018 11.3817 56.2236 11.4033C56.2454 11.4248 56.1811 12.3691 56.0806 13.5017C55.9802 14.6342 55.906 15.5689 55.9157 15.5788C55.9254 15.5886 56.8818 15.0591 58.0409 14.4021L60.1484 13.2075L60.9576 10.0055C61.4027 8.24444 61.7572 6.79413 61.7456 6.78262C61.7339 6.77105 59.4091 7.25054 56.5793 7.8481L51.4344 8.93455L51.1954 8.71053C50.5006 8.05911 41.4583 0.100835 41.414 0.101685C41.3852 0.102273 39.119 2.0879 36.3778 4.5142ZM28.2929 16.7073C21.1051 18.7152 15.1125 20.3903 14.976 20.4298L14.7279 20.5015L14.7283 39.7342L14.7287 58.9669L18.0689 61.2222C20.4165 62.8072 21.4004 63.5066 21.3799 63.5755C21.2169 64.1217 19.3599 72.1983 19.3599 72.3608C19.3599 72.6147 19.5925 72.9851 19.825 73.1014C19.915 73.1463 20.104 73.1835 20.2451 73.184C20.3862 73.1845 23.3768 72.7426 26.8907 72.2019C30.4046 71.6613 33.3115 71.2311 33.3504 71.246C33.3894 71.2609 35.2449 72.4837 37.4739 73.9633L41.5267 76.6534L45.5422 73.9877C47.7507 72.5215 49.6068 71.2976 49.6667 71.2679C49.7348 71.2342 52.143 71.61 56.0569 72.265C59.5114 72.8431 62.378 73.316 62.4271 73.3159C62.6192 73.3155 62.9883 73.0874 63.1064 72.896C63.1747 72.7853 63.2308 72.5763 63.2309 72.4316C63.231 72.2869 62.8021 70.2721 62.2776 67.9544C61.7532 65.6366 61.3343 63.7239 61.3468 63.704C61.3592 63.684 62.9298 62.6404 64.837 61.3848L68.3046 59.1019L68.3486 51.8109C68.4008 43.1306 68.4073 20.4963 68.3576 20.4963C68.3384 20.4963 62.312 18.8196 54.9656 16.7702C47.6192 14.7208 41.553 13.0469 41.4851 13.0503C41.4172 13.0538 35.4807 14.6995 28.2929 16.7073ZM19.1134 15.769C18.7777 16.6212 18.5106 17.3258 18.52 17.3351C18.5497 17.3643 23.1317 16.0265 23.1301 15.989C23.1283 15.9478 19.9303 14.2622 19.8057 14.2366C19.7549 14.2262 19.4921 14.808 19.1134 15.769ZM61.5107 15.0772C60.6191 15.5472 59.8687 15.9513 59.8432 15.9752C59.8177 15.999 60.8301 16.3168 62.093 16.6813C63.3559 17.0459 64.3968 17.3249 64.406 17.3013C64.4153 17.2778 64.1548 16.5848 63.827 15.7614C63.4993 14.9379 63.2312 14.2544 63.2312 14.2424C63.2312 14.18 63.0002 14.292 61.5107 15.0772ZM52.3249 21.5217L63.0327 24.5083V26.5214V28.5345L61.1468 31.4064L59.2609 34.2782V41.6548V49.0314L61.1468 50.8936L63.0327 52.7558V54.4739V56.192L59.4098 58.5654C57.4173 59.8708 52.5806 63.0445 48.6617 65.6181L41.5366 70.2976L30.779 63.2349L20.0216 56.1722V54.3333V52.4943L21.8082 50.7302L23.5948 48.9661L23.5942 41.6441L23.5937 34.3222L21.8095 31.6093L20.0253 28.8964L20.0235 26.7208C20.0217 24.7089 20.0303 24.5417 20.1374 24.499C20.3742 24.4045 41.3667 18.5472 41.4894 18.5413C41.5597 18.5379 46.4356 19.8792 52.3249 21.5217ZM32.1308 30.7268V32.0015H30.8074H29.484V41.5456V51.0897H30.8074H32.1308V54.0314V56.9731H34.6784H37.226V55.0447V53.1162H38.0531H38.8803V55.0447V56.9731H41.4279H43.9754V55.0447V53.1162H44.8026H45.6297V55.0447V56.9731H48.1773H50.7249V54.0314V51.0897H52.0483H53.3717V41.5456V32.0015H52.0483H50.7249V30.7268V29.4521H41.4279H32.1308V30.7268ZM8.6902 36.1098L5.66327 40.5978L5.64633 45.1499L5.62939 49.702L2.8252 48.6283C1.28289 48.0378 0.0116151 47.564 0.000167576 47.5753C-0.0247127 47.5999 2.72912 57.9312 2.78385 58.0188C2.80476 58.0521 4.96907 59.9682 7.59354 62.2769C11.4247 65.6472 12.3405 66.4831 12.2397 66.518C12.1707 66.5419 10.9139 66.8072 9.44699 67.1076L6.77991 67.6537L11.1013 71.9215L15.4227 76.1893L24.9061 77.7988C30.122 78.684 34.4051 79.3928 34.4243 79.3739C34.4434 79.355 34.1809 78.0091 33.8409 76.3832C33.269 73.6483 33.2103 73.418 33.0572 73.3085C32.895 73.1924 32.775 73.2083 26.771 74.1389C19.838 75.2135 19.8849 75.2092 19.0759 74.8353C18.4866 74.5628 17.9652 74.0477 17.6894 73.4655C17.5169 73.1014 17.4762 72.926 17.4574 72.467C17.4359 71.9432 17.4874 71.6865 18.3295 68.1265C18.8218 66.0453 19.2096 64.3188 19.1913 64.2896C19.1731 64.2604 17.7295 63.2721 15.9836 62.0934L12.8089 59.9503L12.8067 55.7324C12.8048 52.2608 12.7712 50.6919 12.6164 46.8638C12.5129 44.3058 12.4085 42.1813 12.3843 42.1427C12.3601 42.104 12.2077 39.7281 12.0456 36.863C11.8835 33.9979 11.7433 31.6465 11.7341 31.6377C11.7247 31.6291 10.355 33.6415 8.6902 36.1098ZM70.945 32.0833C70.9238 32.308 70.7881 34.6687 70.6434 37.3292C70.3453 42.8119 70.2448 47.4209 70.2451 55.5735L70.2453 60.09L66.9291 62.274C65.1051 63.4752 63.5806 64.4781 63.5412 64.5026C63.4928 64.5327 63.7442 65.7595 64.3174 68.2905C65.1197 71.8333 65.1636 72.0643 65.1376 72.6014C65.1145 73.0786 65.0754 73.2385 64.8919 73.607C64.4154 74.5631 63.3932 75.2118 62.371 75.2068C62.2072 75.206 59.3933 74.7556 56.1178 74.2059L50.1624 73.2064L49.798 73.4489L49.4335 73.6913L48.8483 76.5148C48.5264 78.0677 48.2794 79.3545 48.2994 79.3742C48.3194 79.3939 52.6029 78.686 57.8182 77.801L67.3007 76.1918L71.6199 71.925L75.939 67.658L73.1845 67.0917C70.6352 66.5675 70.3069 66.49 70.3831 66.4302C70.3983 66.4183 72.5564 64.5235 75.1791 62.2197L79.9474 58.0307L80.5991 55.5898C80.9574 54.2473 81.5849 51.8987 81.9935 50.3707C82.4021 48.8426 82.7288 47.5839 82.7194 47.5735C82.71 47.5632 81.4405 48.0381 79.8982 48.6289C78.3559 49.2197 77.0716 49.6898 77.0443 49.6735C77.0171 49.6572 76.9947 47.594 76.9947 45.0887V40.5334L74.0063 36.1041C72.3627 33.6679 71.0102 31.6747 71.0008 31.6747C70.9914 31.6747 70.9663 31.8586 70.945 32.0833ZM38.6156 43.1799V46.3831H35.3732H32.1308V43.1799V39.9767H35.3732H38.6156V43.1799ZM50.7249 43.1799V46.3831H47.4494H44.174V43.1799V39.9767H47.4494H50.7249V43.1799ZM35.9318 64.258C35.8293 64.3333 35.818 64.376 35.8763 64.4699C35.9574 64.6007 41.1906 68.2776 41.2955 68.2776C41.4005 68.2776 46.6336 64.6007 46.7147 64.4699C46.773 64.376 46.7618 64.3333 46.6593 64.258C46.55 64.1779 45.7511 64.1638 41.2955 64.1638C36.84 64.1638 36.0411 64.1779 35.9318 64.258Z" fill="white"/>
</g>
<defs>
<clipPath id="clip0_4782_53158">
<rect width="82.7196" height="81.0976" fill="white"/>
</clipPath>
</defs>
</svg>
