<svg width="196" height="179" viewBox="0 0 196 179" fill="none" xmlns="http://www.w3.org/2000/svg">
<path d="M0 93.6583L19.1621 64.2085L117.17 31L174.152 42.7309L195.755 87.0693L184.056 140.877L125.679 172.727L12.5512 153.133L0 93.6583Z" fill="#006998"/>
<path d="M28.5784 71.6557L49.9078 53.1113L131.364 49.5747L171.416 71.6557L177.212 111.049L155.757 150.233L104.398 161.726L24.0101 120.761L28.5784 71.6557Z" fill="#008DCB"/>
<path d="M31.9474 130.019L46.0997 146.936L127.829 154.148L165.59 135.846L171.441 98.7341L161.791 61.3934L111.198 43.4501L37.4298 64.2406L31.9474 130.019Z" fill="#00B1FF"/>
<path opacity="0.5" d="M110.735 87.1882L184.452 55.7022C181.514 50.5574 175.606 40.2189 172.652 35.0903L107.814 83.2768L156.52 18.7305C151.408 15.7442 141.134 9.70672 136.038 6.72042L103.643 80.9884L113.137 0.439453C107.23 0.439453 95.317 0.439453 89.4093 0.439453L98.9038 80.9073L67.0932 6.21729C61.9646 9.15491 51.6424 15.0788 46.5137 18.0327L94.7652 83.1795L30.1053 34.2463C27.119 39.3587 21.114 49.6485 18.1277 54.7609L92.5255 87.3181L11.8791 77.7749C11.8791 83.6988 11.8791 95.6115 11.8791 101.535L92.7527 91.9598L17.9978 123.9C20.9354 129.045 26.8756 139.384 29.8132 144.512L94.5542 96.3906L45.9781 160.791C51.0906 163.777 61.3641 169.815 66.4603 172.801L98.8876 98.468L89.3931 178.968C95.3008 178.968 107.214 178.968 113.121 178.968L103.659 98.7439L135.324 173.142C140.452 170.188 150.791 164.248 155.919 161.31L107.733 96.277L172.214 145.064C175.201 139.952 181.206 129.662 184.192 124.549L109.778 91.9923L190.408 101.535C190.408 95.6115 190.408 83.6988 190.408 77.7749L110.735 87.1882Z" fill="url(#paint0_radial_5545_58939)"/>
<mask id="path-5-outside-1_5545_58939" maskUnits="userSpaceOnUse" x="43.3319" y="38.4829" width="115" height="107" fill="black">
<rect fill="white" x="43.3319" y="38.4829" width="115" height="107"/>
<path d="M65.7034 63.6838L77.429 60.3366V67.7759L72.785 69.1016V75.0122L77.429 82.2505V102.017L72.785 106.712V111.668L100.983 130.618L129.181 111.668V107.023L124.229 102.017V82.2505L129.181 74.5323V69.1016L124.229 67.688V60.2487L136.262 63.6838V115.506L127.031 121.71L129.532 132.965L129.532 132.957C129.636 133.422 129.507 133.869 129.24 134.196L129.307 134.254C129.047 134.536 128.682 134.71 128.278 134.714C128.164 134.724 128.046 134.72 127.926 134.7L111.666 132.035L100.983 139.214L90.1912 131.962L73.4865 134.7C73.3662 134.72 73.2481 134.724 73.1339 134.714C72.7299 134.71 72.365 134.536 72.1049 134.254L72.1716 134.196C71.9046 133.869 71.7764 133.422 71.8799 132.957L71.8795 132.965L74.4532 121.386L65.7034 115.506V63.6838Z"/>
<path d="M111.398 120.446C111.572 120.322 111.572 120.061 111.398 119.937L101.16 112.631C101.054 112.555 100.912 112.555 100.805 112.631L90.5675 119.937C90.3937 120.061 90.3937 120.322 90.5675 120.446L100.805 127.752C100.912 127.828 101.054 127.828 101.16 127.752L111.398 120.446Z"/>
<path d="M77.429 57.1149L72.4422 58.5082L77.4985 52.2122L77.429 57.1149Z"/>
<path d="M129.24 58.5082L124.253 57.1149L124.184 52.2122L129.24 58.5082Z"/>
<path d="M71.7235 122.566L63.266 116.715V105.49L62.7874 93.179L62.6502 92.5227L61.8804 78.5152L53.8752 90.655V102.95L46.3319 99.9934L50.0266 114.157L62.6502 125.518L55.2608 127.075L66.6528 138.592L91.746 142.95L90.0953 134.823L89.6335 134.51L73.6064 137.033C71.0197 137.441 68.8462 135.074 69.4391 132.496L71.7235 122.566Z"/>
<path d="M111.335 135.187L109.758 142.95L134.851 138.592L146.243 127.075L138.854 125.518L151.477 114.157L155.172 99.9934L147.628 102.95V90.655L139.623 78.5152L138.861 92.3817L138.7 103.591V116.89L129.772 122.907L131.929 132.66C132.501 135.25 130.294 137.601 127.705 137.158L112.316 134.521L111.335 135.187Z"/>
<path d="M82.8922 60.5718C82.482 60.7505 82.0232 60.45 82.0232 60.0026V50.0178C82.0232 49.7708 82.1696 49.5472 82.3961 49.4485L100.559 41.5346C100.717 41.4657 100.896 41.4657 101.055 41.5346L119.217 49.4485C119.444 49.5472 119.59 49.7708 119.59 50.0178V60.0026C119.59 60.45 119.131 60.7505 118.721 60.5718L101.055 52.874C100.896 52.8051 100.717 52.8051 100.559 52.874L82.8922 60.5718Z"/>
<path d="M82.8922 77.2455C82.482 77.4242 82.0232 77.1237 82.0232 76.6763V66.6915C82.0232 66.4445 82.1696 66.2209 82.3961 66.1223L100.559 58.2083C100.717 58.1394 100.896 58.1394 101.055 58.2083L119.217 66.1223C119.444 66.2209 119.59 66.4445 119.59 66.6915V76.6763C119.59 77.1237 119.131 77.4242 118.721 77.2455L101.055 69.5477C100.896 69.4788 100.717 69.4788 100.559 69.5477L82.8922 77.2455Z"/>
<path d="M82.8922 93.9192C82.482 94.0979 82.0232 93.7974 82.0232 93.35V83.3652C82.0232 83.1182 82.1696 82.8946 82.3961 82.796L100.559 74.882C100.717 74.8131 100.896 74.8131 101.055 74.882L119.217 82.796C119.444 82.8946 119.59 83.1182 119.59 83.3652V93.35C119.59 93.7974 119.131 94.0979 118.721 93.9192L101.055 86.2214C100.896 86.1525 100.717 86.1525 100.559 86.2214L82.8922 93.9192Z"/>
<path d="M82.8922 110.593C82.482 110.772 82.0232 110.471 82.0232 110.024V100.039C82.0232 99.7919 82.1696 99.5684 82.3961 99.4697L100.559 91.5557C100.717 91.4868 100.896 91.4868 101.055 91.5557L119.217 99.4697C119.444 99.5684 119.59 99.7919 119.59 100.039V110.024C119.59 110.471 119.131 110.772 118.721 110.593L101.055 102.895C100.896 102.826 100.717 102.826 100.559 102.895L82.8922 110.593Z"/>
</mask>
<path d="M65.7034 63.6838L77.429 60.3366V67.7759L72.785 69.1016V75.0122L77.429 82.2505V102.017L72.785 106.712V111.668L100.983 130.618L129.181 111.668V107.023L124.229 102.017V82.2505L129.181 74.5323V69.1016L124.229 67.688V60.2487L136.262 63.6838V115.506L127.031 121.71L129.532 132.965L129.532 132.957C129.636 133.422 129.507 133.869 129.24 134.196L129.307 134.254C129.047 134.536 128.682 134.71 128.278 134.714C128.164 134.724 128.046 134.72 127.926 134.7L111.666 132.035L100.983 139.214L90.1912 131.962L73.4865 134.7C73.3662 134.72 73.2481 134.724 73.1339 134.714C72.7299 134.71 72.365 134.536 72.1049 134.254L72.1716 134.196C71.9046 133.869 71.7764 133.422 71.8799 132.957L71.8795 132.965L74.4532 121.386L65.7034 115.506V63.6838Z" fill="black"/>
<path d="M111.398 120.446C111.572 120.322 111.572 120.061 111.398 119.937L101.16 112.631C101.054 112.555 100.912 112.555 100.805 112.631L90.5675 119.937C90.3937 120.061 90.3937 120.322 90.5675 120.446L100.805 127.752C100.912 127.828 101.054 127.828 101.16 127.752L111.398 120.446Z" fill="black"/>
<path d="M77.429 57.1149L72.4422 58.5082L77.4985 52.2122L77.429 57.1149Z" fill="black"/>
<path d="M129.24 58.5082L124.253 57.1149L124.184 52.2122L129.24 58.5082Z" fill="black"/>
<path d="M71.7235 122.566L63.266 116.715V105.49L62.7874 93.179L62.6502 92.5227L61.8804 78.5152L53.8752 90.655V102.95L46.3319 99.9934L50.0266 114.157L62.6502 125.518L55.2608 127.075L66.6528 138.592L91.746 142.95L90.0953 134.823L89.6335 134.51L73.6064 137.033C71.0197 137.441 68.8462 135.074 69.4391 132.496L71.7235 122.566Z" fill="black"/>
<path d="M111.335 135.187L109.758 142.95L134.851 138.592L146.243 127.075L138.854 125.518L151.477 114.157L155.172 99.9934L147.628 102.95V90.655L139.623 78.5152L138.861 92.3817L138.7 103.591V116.89L129.772 122.907L131.929 132.66C132.501 135.25 130.294 137.601 127.705 137.158L112.316 134.521L111.335 135.187Z" fill="black"/>
<path d="M82.8922 60.5718C82.482 60.7505 82.0232 60.45 82.0232 60.0026V50.0178C82.0232 49.7708 82.1696 49.5472 82.3961 49.4485L100.559 41.5346C100.717 41.4657 100.896 41.4657 101.055 41.5346L119.217 49.4485C119.444 49.5472 119.59 49.7708 119.59 50.0178V60.0026C119.59 60.45 119.131 60.7505 118.721 60.5718L101.055 52.874C100.896 52.8051 100.717 52.8051 100.559 52.874L82.8922 60.5718Z" fill="black"/>
<path d="M82.8922 77.2455C82.482 77.4242 82.0232 77.1237 82.0232 76.6763V66.6915C82.0232 66.4445 82.1696 66.2209 82.3961 66.1223L100.559 58.2083C100.717 58.1394 100.896 58.1394 101.055 58.2083L119.217 66.1223C119.444 66.2209 119.59 66.4445 119.59 66.6915V76.6763C119.59 77.1237 119.131 77.4242 118.721 77.2455L101.055 69.5477C100.896 69.4788 100.717 69.4788 100.559 69.5477L82.8922 77.2455Z" fill="black"/>
<path d="M82.8922 93.9192C82.482 94.0979 82.0232 93.7974 82.0232 93.35V83.3652C82.0232 83.1182 82.1696 82.8946 82.3961 82.796L100.559 74.882C100.717 74.8131 100.896 74.8131 101.055 74.882L119.217 82.796C119.444 82.8946 119.59 83.1182 119.59 83.3652V93.35C119.59 93.7974 119.131 94.0979 118.721 93.9192L101.055 86.2214C100.896 86.1525 100.717 86.1525 100.559 86.2214L82.8922 93.9192Z" fill="black"/>
<path d="M82.8922 110.593C82.482 110.772 82.0232 110.471 82.0232 110.024V100.039C82.0232 99.7919 82.1696 99.5684 82.3961 99.4697L100.559 91.5557C100.717 91.4868 100.896 91.4868 101.055 91.5557L119.217 99.4697C119.444 99.5684 119.59 99.7919 119.59 100.039V110.024C119.59 110.471 119.131 110.772 118.721 110.593L101.055 102.895C100.896 102.826 100.717 102.826 100.559 102.895L82.8922 110.593Z" fill="black"/>
<path d="M77.429 60.3366H79.7781C79.7781 59.5996 79.4322 58.9053 78.8438 58.4614C78.2555 58.0175 77.4929 57.8755 76.7842 58.0778L77.429 60.3366ZM65.7034 63.6838L65.0586 61.4249C64.0499 61.7129 63.3544 62.6347 63.3544 63.6838H65.7034ZM77.429 67.7759L78.0738 70.0347C79.0825 69.7468 79.7781 68.8249 79.7781 67.7759H77.429ZM72.785 69.1016L72.1402 66.8428C71.1314 67.1307 70.4359 68.0526 70.4359 69.1016H72.785ZM72.785 75.0122H70.4359C70.4359 75.4619 70.565 75.9022 70.8078 76.2807L72.785 75.0122ZM77.429 82.2505H79.7781C79.7781 81.8008 79.649 81.3605 79.4061 80.982L77.429 82.2505ZM77.429 102.017L79.0991 103.669C79.5341 103.229 79.7781 102.635 79.7781 102.017H77.429ZM72.785 106.712L71.1149 105.06C70.6799 105.5 70.4359 106.093 70.4359 106.712H72.785ZM72.785 111.668H70.4359C70.4359 112.451 70.8254 113.182 71.4747 113.618L72.785 111.668ZM100.983 130.618L99.6725 132.567C100.465 133.1 101.501 133.1 102.293 132.567L100.983 130.618ZM129.181 111.668L130.491 113.618C131.14 113.182 131.53 112.451 131.53 111.668H129.181ZM129.181 107.023H131.53C131.53 106.404 131.286 105.811 130.851 105.371L129.181 107.023ZM124.229 102.017H121.88C121.88 102.635 122.124 103.229 122.559 103.669L124.229 102.017ZM124.229 82.2505L122.252 80.982C122.009 81.3605 121.88 81.8008 121.88 82.2505H124.229ZM129.181 74.5323L131.158 75.8009C131.401 75.4223 131.53 74.9821 131.53 74.5323H129.181ZM129.181 69.1016H131.53C131.53 68.0526 130.834 67.1307 129.825 66.8428L129.181 69.1016ZM124.229 67.688H121.88C121.88 68.737 122.575 69.6589 123.584 69.9469L124.229 67.688ZM124.229 60.2487L124.873 57.9899C124.165 57.7876 123.402 57.9296 122.814 58.3735C122.225 58.8174 121.88 59.5117 121.88 60.2487H124.229ZM136.262 63.6838H138.611C138.611 62.6347 137.916 61.7129 136.907 61.4249L136.262 63.6838ZM136.262 115.506L137.572 117.456C138.222 117.02 138.611 116.289 138.611 115.506H136.262ZM127.031 121.71L125.721 119.76C124.918 120.299 124.528 121.276 124.738 122.219L127.031 121.71ZM129.532 132.965L127.239 133.475C127.504 134.666 128.636 135.456 129.845 135.293C131.054 135.131 131.938 134.071 131.879 132.852L129.532 132.965ZM129.532 132.957L131.825 132.446C131.56 131.256 130.428 130.466 129.219 130.629C128.01 130.791 127.127 131.852 127.186 133.07L129.532 132.957ZM129.24 134.196L127.42 132.712C126.617 133.697 126.743 135.142 127.704 135.974L129.24 134.196ZM129.307 134.254L131.033 135.848C131.465 135.38 131.688 134.757 131.652 134.122C131.617 133.487 131.325 132.893 130.843 132.477L129.307 134.254ZM128.278 134.714L128.257 132.365C128.195 132.365 128.133 132.368 128.071 132.374L128.278 134.714ZM127.926 134.7L128.309 132.382L128.305 132.382L127.926 134.7ZM111.666 132.035L112.046 129.717C111.456 129.621 110.852 129.752 110.356 130.086L111.666 132.035ZM100.983 139.214L99.6725 141.164C100.465 141.697 101.501 141.697 102.293 141.164L100.983 139.214ZM90.1912 131.962L91.5015 130.013C91.0055 129.679 90.4011 129.548 89.8114 129.644L90.1912 131.962ZM73.4865 134.7L73.1066 132.382L73.1027 132.382L73.4865 134.7ZM73.1339 134.714L73.3408 132.374C73.2788 132.368 73.2167 132.365 73.1546 132.365L73.1339 134.714ZM72.1049 134.254L70.5687 132.477C70.0873 132.893 69.7953 133.487 69.7595 134.122C69.7237 134.757 69.9472 135.38 70.3789 135.848L72.1049 134.254ZM72.1716 134.196L73.7077 135.974C74.6695 135.142 74.7954 133.697 73.9919 132.712L72.1716 134.196ZM71.8799 132.957L74.2264 133.067C74.2838 131.849 73.3999 130.79 72.1915 130.628C70.9831 130.467 69.8518 131.256 69.587 132.446L71.8799 132.957ZM71.8795 132.965L69.5331 132.855C69.4757 134.073 70.3597 135.132 71.5683 135.294C72.7768 135.455 73.9081 134.665 74.1726 133.475L71.8795 132.965ZM74.4532 121.386L76.7463 121.896C76.9561 120.952 76.566 119.976 75.7634 119.436L74.4532 121.386ZM65.7034 115.506H63.3544C63.3544 116.289 63.7439 117.02 64.3932 117.456L65.7034 115.506ZM111.398 119.937L110.034 121.849L110.034 121.849L111.398 119.937ZM111.398 120.446L112.763 122.358L112.763 122.358L111.398 120.446ZM101.16 112.631L102.525 110.719L102.525 110.719L101.16 112.631ZM100.805 112.631L99.4407 110.719L99.4407 110.719L100.805 112.631ZM90.5675 119.937L91.932 121.849L91.932 121.849L90.5675 119.937ZM90.5675 120.446L91.932 118.534L91.932 118.534L90.5675 120.446ZM100.805 127.752L102.17 125.84H102.17L100.805 127.752ZM101.16 127.752L99.7958 125.84H99.7958L101.16 127.752ZM72.4422 58.5082L70.6106 57.0373C69.9716 57.833 69.9194 58.9503 70.4815 59.8021C71.0436 60.6538 72.0914 61.0453 73.0743 60.7706L72.4422 58.5082ZM77.429 57.1149L78.0611 59.3773C79.0643 59.0971 79.7631 58.1897 79.7778 57.1482L77.429 57.1149ZM77.4985 52.2122L79.8474 52.2455C79.8616 51.2427 79.2376 50.3414 78.2939 50.0019C77.3502 49.6623 76.295 49.9593 75.667 50.7413L77.4985 52.2122ZM124.253 57.1149L121.904 57.1482C121.919 58.1897 122.618 59.0971 123.621 59.3773L124.253 57.1149ZM129.24 58.5082L128.608 60.7706C129.591 61.0453 130.639 60.6538 131.201 59.8021C131.763 58.9503 131.711 57.833 131.072 57.0373L129.24 58.5082ZM124.184 52.2122L126.015 50.7413C125.387 49.9593 124.332 49.6623 123.388 50.0019C122.445 50.3414 121.821 51.2427 121.835 52.2455L124.184 52.2122ZM63.266 116.715H60.9169C60.9169 117.486 61.2954 118.208 61.9296 118.647L63.266 116.715ZM71.7235 122.566L74.0128 123.092C74.2284 122.155 73.8509 121.181 73.0599 120.634L71.7235 122.566ZM63.266 105.49H65.615C65.615 105.459 65.6144 105.429 65.6133 105.398L63.266 105.49ZM62.7874 93.179L65.1347 93.0877C65.1296 92.9568 65.1136 92.8265 65.0867 92.6982L62.7874 93.179ZM62.6502 92.5227L60.3047 92.6516C60.3112 92.7699 60.3266 92.8875 60.3508 93.0034L62.6502 92.5227ZM61.8804 78.5152L64.226 78.3863C64.1704 77.3743 63.4719 76.512 62.4935 76.2475C61.5151 75.983 60.4773 76.3759 59.9194 77.222L61.8804 78.5152ZM53.8752 90.655L51.9142 89.3619C51.6611 89.7457 51.5262 90.1953 51.5262 90.655H53.8752ZM53.8752 102.95L53.0179 105.138C53.7409 105.421 54.5573 105.329 55.1989 104.891C55.8405 104.454 56.2243 103.727 56.2243 102.95H53.8752ZM46.3319 99.9934L47.1892 97.8063C46.3667 97.4839 45.4327 97.6502 44.7721 98.2369C44.1114 98.8236 43.8359 99.7314 44.0589 100.586L46.3319 99.9934ZM50.0266 114.157L47.7536 114.749C47.8696 115.194 48.1135 115.595 48.4551 115.903L50.0266 114.157ZM62.6502 125.518L63.1343 127.817C63.9996 127.635 64.6891 126.982 64.9187 126.128C65.1483 125.274 64.8789 124.364 64.2217 123.772L62.6502 125.518ZM55.2608 127.075L54.7766 124.776C53.9353 124.953 53.2581 125.576 53.0109 126.399C52.7637 127.223 52.9861 128.115 53.5907 128.726L55.2608 127.075ZM66.6528 138.592L64.9827 140.244C65.3262 140.591 65.7695 140.823 66.2508 140.906L66.6528 138.592ZM91.746 142.95L91.3441 145.264C92.1087 145.397 92.8896 145.144 93.4305 144.587C93.9714 144.03 94.2025 143.243 94.0481 142.482L91.746 142.95ZM90.0953 134.823L92.3974 134.356C92.2752 133.754 91.9225 133.225 91.4147 132.88L90.0953 134.823ZM89.6335 134.51L90.9528 132.566C90.4595 132.231 89.8572 132.097 89.2681 132.189L89.6335 134.51ZM73.6064 137.033L73.241 134.713H73.241L73.6064 137.033ZM69.4391 132.496L67.1499 131.97L67.1499 131.97L69.4391 132.496ZM109.758 142.95L107.456 142.482C107.301 143.243 107.532 144.03 108.073 144.587C108.614 145.144 109.395 145.397 110.16 145.264L109.758 142.95ZM111.335 135.187L110.015 133.243C109.507 133.588 109.155 134.118 109.032 134.719L111.335 135.187ZM134.851 138.592L135.253 140.906C135.734 140.823 136.177 140.591 136.521 140.244L134.851 138.592ZM146.243 127.075L147.913 128.726C148.518 128.115 148.74 127.223 148.493 126.399C148.246 125.576 147.568 124.953 146.727 124.776L146.243 127.075ZM138.854 125.518L137.282 123.772C136.625 124.364 136.355 125.274 136.585 126.128C136.815 126.982 137.504 127.635 138.369 127.817L138.854 125.518ZM151.477 114.157L153.049 115.903C153.39 115.595 153.634 115.194 153.75 114.749L151.477 114.157ZM155.172 99.9934L157.445 100.586C157.668 99.7314 157.392 98.8236 156.732 98.2369C156.071 97.6502 155.137 97.4839 154.314 97.8063L155.172 99.9934ZM147.628 102.95H145.279C145.279 103.727 145.663 104.454 146.305 104.891C146.946 105.329 147.763 105.421 148.486 105.138L147.628 102.95ZM147.628 90.655H149.978C149.978 90.1953 149.843 89.7457 149.59 89.3619L147.628 90.655ZM139.623 78.5152L141.584 77.222C141.026 76.3759 139.989 75.983 139.01 76.2475C138.032 76.512 137.333 77.3743 137.278 78.3863L139.623 78.5152ZM138.861 92.3817L136.516 92.2528C136.514 92.2844 136.513 92.3161 136.512 92.3478L138.861 92.3817ZM138.7 103.591L136.351 103.557C136.351 103.569 136.351 103.58 136.351 103.591H138.7ZM138.7 116.89L140.012 118.838C140.66 118.401 141.049 117.671 141.049 116.89H138.7ZM129.772 122.907L128.459 120.959C127.659 121.498 127.27 122.472 127.478 123.414L129.772 122.907ZM131.929 132.66L134.222 132.153L131.929 132.66ZM127.705 137.158L127.309 139.473L127.705 137.158ZM112.316 134.521L112.713 132.205C112.114 132.103 111.499 132.236 110.997 132.577L112.316 134.521ZM101.055 102.895L100.116 105.049L101.055 102.895ZM100.559 102.895L99.6202 100.742L100.559 102.895ZM100.559 91.5557L99.6202 89.4022L100.559 91.5557ZM101.055 91.5557L101.993 89.4022V89.4022L101.055 91.5557ZM118.721 110.593L119.659 108.439L118.721 110.593ZM119.217 99.4697L118.279 101.623L119.217 99.4697ZM82.0232 100.039H84.3723H82.0232ZM82.3961 99.4697L83.3344 101.623L82.3961 99.4697ZM82.0232 110.024H79.6741H82.0232ZM82.8922 110.593L83.8305 112.746L82.8922 110.593ZM101.055 86.2214L101.993 84.0679L101.055 86.2214ZM100.559 86.2214L101.497 88.375H101.497L100.559 86.2214ZM100.559 74.882L101.497 77.0355L100.559 74.882ZM101.055 74.882L101.993 72.7285L101.055 74.882ZM118.721 93.9192L117.783 96.0727L118.721 93.9192ZM119.217 82.796L118.279 84.9495L119.217 82.796ZM82.0232 83.3652H84.3723V83.3652L82.0232 83.3652ZM82.3961 82.796L81.4577 80.6425L82.3961 82.796ZM82.0232 93.35H79.6741H82.0232ZM82.8922 93.9192L81.9538 91.7657L82.8922 93.9192ZM101.055 69.5477L100.116 71.7012L101.055 69.5477ZM100.559 69.5477L99.6202 67.3942L100.559 69.5477ZM100.559 58.2083L101.497 60.3618L100.559 58.2083ZM101.055 58.2083L100.116 60.3618L101.055 58.2083ZM118.721 77.2455L119.659 75.092L118.721 77.2455ZM119.217 66.1223L120.155 63.9687L119.217 66.1223ZM82.0232 66.6915H84.3723H82.0232ZM82.3961 66.1223L81.4577 63.9687L82.3961 66.1223ZM82.0232 76.6763H79.6741H82.0232ZM82.8922 77.2455L83.8305 79.399L82.8922 77.2455ZM101.055 52.874L100.116 55.0275L101.055 52.874ZM100.559 52.874L101.497 55.0275L100.559 52.874ZM100.559 41.5346L101.497 43.6881L100.559 41.5346ZM101.055 41.5346L100.116 43.6881L101.055 41.5346ZM118.721 60.5718L119.659 58.4183L118.721 60.5718ZM119.217 49.4485L118.279 51.602L119.217 49.4485ZM82.0232 50.0178H84.3723H82.0232ZM82.3961 49.4485L81.4577 47.295L82.3961 49.4485ZM82.0232 60.0026H79.6741H82.0232ZM82.8922 60.5718L81.9538 58.4183L82.8922 60.5718ZM76.7842 58.0778L65.0586 61.4249L66.3482 65.9426L78.0738 62.5954L76.7842 58.0778ZM79.7781 67.7759V60.3366H75.0799V67.7759H79.7781ZM73.4298 71.3604L78.0738 70.0347L76.7842 65.5171L72.1402 66.8428L73.4298 71.3604ZM75.134 75.0122V69.1016H70.4359V75.0122H75.134ZM79.4061 80.982L74.7621 73.7437L70.8078 76.2807L75.4519 83.519L79.4061 80.982ZM79.7781 102.017V82.2505H75.0799V102.017H79.7781ZM74.4551 108.364L79.0991 103.669L75.7589 100.365L71.1149 105.06L74.4551 108.364ZM75.134 111.668V106.712H70.4359V111.668H75.134ZM102.293 128.668L74.0952 109.719L71.4747 113.618L99.6725 132.567L102.293 128.668ZM127.87 109.719L99.6725 128.668L102.293 132.567L130.491 113.618L127.87 109.719ZM126.831 107.023V111.668H131.53V107.023H126.831ZM122.559 103.669L127.51 108.675L130.851 105.371L125.899 100.365L122.559 103.669ZM121.88 82.2505V102.017H126.578V82.2505H121.88ZM127.203 73.2638L122.252 80.982L126.206 83.519L131.158 75.8009L127.203 73.2638ZM126.831 69.1016V74.5323H131.53V69.1016H126.831ZM123.584 69.9469L128.536 71.3604L129.825 66.8428L124.873 65.4292L123.584 69.9469ZM121.88 60.2487V67.688H126.578V60.2487H121.88ZM136.907 61.4249L124.873 57.9899L123.584 62.5075L135.617 65.9426L136.907 61.4249ZM138.611 115.506V63.6838H133.913V115.506H138.611ZM128.341 123.66L137.572 117.456L134.952 113.556L125.721 119.76L128.341 123.66ZM131.826 132.456L129.324 121.2L124.738 122.219L127.239 133.475L131.826 132.456ZM127.186 133.07L127.186 133.078L131.879 132.852L131.878 132.844L127.186 133.07ZM131.061 135.681C131.757 134.827 132.093 133.652 131.825 132.446L127.239 133.467C127.178 133.192 127.258 132.911 127.42 132.712L131.061 135.681ZM130.843 132.477L130.777 132.419L127.704 135.974L127.771 136.031L130.843 132.477ZM128.299 137.062C129.383 137.053 130.355 136.582 131.033 135.848L127.581 132.661C127.739 132.49 127.981 132.367 128.257 132.365L128.299 137.062ZM127.542 137.017C127.857 137.069 128.174 137.081 128.485 137.053L128.071 132.374C128.154 132.366 128.234 132.37 128.309 132.382L127.542 137.017ZM111.286 134.353L127.546 137.018L128.305 132.382L112.046 129.717L111.286 134.353ZM102.293 141.164L112.976 133.985L110.356 130.086L99.6725 137.265L102.293 141.164ZM88.881 133.912L99.6725 141.164L102.293 137.265L91.5015 130.013L88.881 133.912ZM73.8663 137.018L90.5711 134.281L89.8114 129.644L73.1066 132.382L73.8663 137.018ZM72.927 137.053C73.2381 137.081 73.5546 137.069 73.8702 137.017L73.1027 132.382C73.1777 132.37 73.2581 132.366 73.3408 132.374L72.927 137.053ZM70.3789 135.848C71.0567 136.582 72.029 137.053 73.1132 137.062L73.1546 132.365C73.4308 132.367 73.6733 132.49 73.8309 132.661L70.3789 135.848ZM70.6354 132.419L70.5687 132.477L73.6411 136.031L73.7077 135.974L70.6354 132.419ZM69.587 132.446C69.3186 133.652 69.6547 134.827 70.3512 135.681L73.9919 132.712C74.1545 132.911 74.2341 133.192 74.1729 133.467L69.587 132.446ZM74.226 133.076L74.2264 133.067L69.5335 132.846L69.5331 132.855L74.226 133.076ZM72.1601 120.876L69.5864 132.456L74.1726 133.475L76.7463 121.896L72.1601 120.876ZM64.3932 117.456L73.1429 123.336L75.7634 119.436L67.0137 113.556L64.3932 117.456ZM63.3544 63.6838V115.506H68.0525V63.6838H63.3544ZM110.034 121.849C108.895 121.037 108.895 119.347 110.034 118.534L112.763 122.358C114.249 121.297 114.249 119.086 112.763 118.025L110.034 121.849ZM99.7958 114.543L110.034 121.849L112.763 118.025L102.525 110.719L99.7958 114.543ZM102.17 114.543C101.46 115.05 100.506 115.05 99.7958 114.543L102.525 110.719C101.602 110.06 100.364 110.06 99.4407 110.719L102.17 114.543ZM91.932 121.849L102.17 114.543L99.4407 110.719L89.2029 118.025L91.932 121.849ZM91.932 118.534C93.0709 119.346 93.071 121.037 91.932 121.849L89.2029 118.025C87.7164 119.086 87.7165 121.297 89.2029 122.358L91.932 118.534ZM102.17 125.84L91.932 118.534L89.2029 122.358L99.4407 129.664L102.17 125.84ZM99.7958 125.84C100.506 125.333 101.46 125.333 102.17 125.84L99.4407 129.664C100.364 130.323 101.602 130.323 102.525 129.664L99.7958 125.84ZM110.034 118.534L99.7958 125.84L102.525 129.664L112.763 122.358L110.034 118.534ZM73.0743 60.7706L78.0611 59.3773L76.7969 54.8525L71.8101 56.2458L73.0743 60.7706ZM75.667 50.7413L70.6106 57.0373L74.2737 59.9791L79.3301 53.6831L75.667 50.7413ZM79.7778 57.1482L79.8474 52.2455L75.1497 52.1789L75.0802 57.0816L79.7778 57.1482ZM123.621 59.3773L128.608 60.7706L129.872 56.2458L124.885 54.8525L123.621 59.3773ZM121.835 52.2455L121.904 57.1482L126.602 57.0816L126.532 52.1789L121.835 52.2455ZM131.072 57.0373L126.015 50.7413L122.352 53.6831L127.408 59.9791L131.072 57.0373ZM61.9296 118.647L70.3872 124.497L73.0599 120.634L64.6023 114.783L61.9296 118.647ZM60.9169 105.49V116.715H65.615V105.49H60.9169ZM60.4401 93.2702L60.9187 105.581L65.6133 105.398L65.1347 93.0877L60.4401 93.2702ZM60.3508 93.0034L60.4881 93.6597L65.0867 92.6982L64.9495 92.0419L60.3508 93.0034ZM59.5349 78.6441L60.3047 92.6516L64.9957 92.3938L64.226 78.3863L59.5349 78.6441ZM55.8363 91.9482L63.8415 79.8083L59.9194 77.222L51.9142 89.3619L55.8363 91.9482ZM56.2243 102.95V90.655H51.5262V102.95H56.2243ZM45.4745 102.18L53.0179 105.138L54.7326 100.763L47.1892 97.8063L45.4745 102.18ZM52.2996 113.564L48.6049 99.4004L44.0589 100.586L47.7536 114.749L52.2996 113.564ZM64.2217 123.772L51.5981 112.41L48.4551 115.903L61.0787 127.264L64.2217 123.772ZM55.7449 129.373L63.1343 127.817L62.166 123.22L54.7766 124.776L55.7449 129.373ZM68.3229 136.94L56.9309 125.423L53.5907 128.726L64.9827 140.244L68.3229 136.94ZM92.1479 140.635L67.0547 136.277L66.2508 140.906L91.3441 145.264L92.1479 140.635ZM87.7933 135.291L89.444 143.417L94.0481 142.482L92.3974 134.356L87.7933 135.291ZM88.3142 136.453L88.776 136.767L91.4147 132.88L90.9528 132.566L88.3142 136.453ZM73.9717 139.354L89.9989 136.83L89.2681 132.189L73.241 134.713L73.9717 139.354ZM67.1499 131.97C66.1934 136.128 69.7004 140.026 73.9717 139.354L73.241 134.713C72.3391 134.855 71.499 134.02 71.7284 133.023L67.1499 131.97ZM69.4342 122.039L67.1499 131.97L71.7284 133.023L74.0128 123.092L69.4342 122.039ZM112.06 143.417L113.637 135.655L109.032 134.719L107.456 142.482L112.06 143.417ZM134.449 136.277L109.356 140.635L110.16 145.264L135.253 140.906L134.449 136.277ZM144.573 125.423L133.181 136.94L136.521 140.244L147.913 128.726L144.573 125.423ZM138.369 127.817L145.759 129.373L146.727 124.776L139.338 123.22L138.369 127.817ZM149.906 112.41L137.282 123.772L140.425 127.264L153.049 115.903L149.906 112.41ZM152.899 99.4004L149.204 113.564L153.75 114.749L157.445 100.586L152.899 99.4004ZM148.486 105.138L156.029 102.18L154.314 97.8063L146.771 100.763L148.486 105.138ZM145.279 90.655V102.95H149.978V90.655H145.279ZM137.662 79.8083L145.667 91.9482L149.59 89.3619L141.584 77.222L137.662 79.8083ZM141.207 92.5106L141.969 78.6441L137.278 78.3863L136.516 92.2528L141.207 92.5106ZM141.048 103.625L141.21 92.4156L136.512 92.3478L136.351 103.557L141.048 103.625ZM141.049 116.89V103.591H136.351V116.89H141.049ZM131.085 124.855L140.012 118.838L137.387 114.942L128.459 120.959L131.085 124.855ZM134.222 132.153L132.066 122.4L127.478 123.414L129.635 133.167L134.222 132.153ZM127.309 139.473C131.583 140.205 135.146 136.331 134.222 132.153L129.635 133.167C129.856 134.169 129.004 134.997 128.102 134.842L127.309 139.473ZM111.919 136.836L127.309 139.473L128.102 134.842L112.713 132.205L111.919 136.836ZM112.654 137.131L113.636 136.464L110.997 132.577L110.015 133.243L112.654 137.131ZM84.3723 60.0026V50.0178H79.6741V60.0026H84.3723ZM117.241 50.0178V60.0026H121.939V50.0178H117.241ZM83.3344 51.602L101.497 43.6881L99.6202 39.3811L81.4577 47.295L83.3344 51.602ZM100.116 43.6881L118.279 51.602L120.155 47.295L101.993 39.3811L100.116 43.6881ZM119.659 58.4183L101.993 50.7205L100.116 55.0275L117.783 62.7253L119.659 58.4183ZM99.6202 50.7205L81.9538 58.4183L83.8305 62.7253L101.497 55.0275L99.6202 50.7205ZM84.3723 76.6763V66.6915H79.6741V76.6763H84.3723ZM117.241 66.6915V76.6763H121.939V66.6915H117.241ZM83.3344 68.2758L101.497 60.3618L99.6202 56.0548L81.4577 63.9687L83.3344 68.2758ZM100.116 60.3618L118.279 68.2758L120.155 63.9687L101.993 56.0548L100.116 60.3618ZM119.659 75.092L101.993 67.3942L100.116 71.7012L117.783 79.399L119.659 75.092ZM99.6202 67.3942L81.9538 75.092L83.8305 79.399L101.497 71.7012L99.6202 67.3942ZM84.3723 93.35V83.3652H79.6741V93.35H84.3723ZM117.241 83.3652V93.35H121.939V83.3652H117.241ZM83.3344 84.9495L101.497 77.0355L99.6202 72.7285L81.4577 80.6425L83.3344 84.9495ZM100.116 77.0355L118.279 84.9495L120.155 80.6425L101.993 72.7285L100.116 77.0355ZM119.659 91.7657L101.993 84.0679L100.116 88.375L117.783 96.0727L119.659 91.7657ZM99.6202 84.0679L81.9538 91.7657L83.8305 96.0727L101.497 88.375L99.6202 84.0679ZM84.3723 110.024V100.039H79.6741V110.024H84.3723ZM117.241 100.039V110.024H121.939V100.039H117.241ZM83.3344 101.623L101.497 93.7092L99.6202 89.4022L81.4577 97.3162L83.3344 101.623ZM100.116 93.7092L118.279 101.623L120.155 97.3162L101.993 89.4022L100.116 93.7092ZM119.659 108.439L101.993 100.742L100.116 105.049L117.783 112.746L119.659 108.439ZM99.6202 100.742L81.9538 108.439L83.8305 112.746L101.497 105.049L99.6202 100.742ZM101.993 100.742C101.236 100.412 100.377 100.412 99.6202 100.742L101.497 105.049C101.057 105.24 100.556 105.24 100.116 105.049L101.993 100.742ZM101.497 93.7092C101.057 93.9011 100.556 93.9011 100.116 93.7092L101.993 89.4022C101.236 89.0726 100.377 89.0726 99.6202 89.4022L101.497 93.7092ZM117.241 110.024C117.241 108.779 118.518 107.942 119.659 108.439L117.783 112.746C119.744 113.601 121.939 112.164 121.939 110.024H117.241ZM121.939 100.039C121.939 98.8573 121.239 97.7882 120.155 97.3162L118.279 101.623C117.648 101.349 117.241 100.726 117.241 100.039H121.939ZM84.3723 100.039C84.3723 100.726 83.9647 101.349 83.3344 101.623L81.4577 97.3162C80.3745 97.7882 79.6741 98.8573 79.6741 100.039H84.3723ZM79.6741 110.024C79.6741 112.164 81.8688 113.601 83.8305 112.746L81.9538 108.439C83.0953 107.942 84.3723 108.779 84.3723 110.024H79.6741ZM101.993 84.0679C101.236 83.7383 100.377 83.7383 99.6202 84.0679L101.497 88.375C101.057 88.5668 100.556 88.5668 100.116 88.375L101.993 84.0679ZM101.497 77.0355C101.057 77.2274 100.556 77.2274 100.116 77.0355L101.993 72.7285C101.236 72.3989 100.377 72.3989 99.6202 72.7285L101.497 77.0355ZM117.241 93.35C117.241 92.1049 118.518 91.2683 119.659 91.7657L117.783 96.0727C119.744 96.9276 121.939 95.4899 121.939 93.35H117.241ZM121.939 83.3652C121.939 82.1836 121.239 81.1144 120.155 80.6425L118.279 84.9495C117.648 84.6748 117.241 84.0527 117.241 83.3652H121.939ZM84.3723 83.3652C84.3723 84.0527 83.9647 84.6748 83.3344 84.9495L81.4577 80.6425C80.3745 81.1145 79.6741 82.1837 79.6741 83.3652L84.3723 83.3652ZM79.6741 93.35C79.6741 95.4899 81.8688 96.9275 83.8305 96.0727L81.9538 91.7657C83.0953 91.2684 84.3723 92.1048 84.3723 93.35H79.6741ZM101.993 67.3942C101.236 67.0646 100.377 67.0646 99.6202 67.3942L101.497 71.7012C101.057 71.8931 100.556 71.8931 100.116 71.7012L101.993 67.3942ZM101.497 60.3618C101.057 60.5536 100.556 60.5536 100.116 60.3618L101.993 56.0548C101.236 55.7251 100.377 55.7251 99.6202 56.0548L101.497 60.3618ZM117.241 76.6763C117.241 75.4311 118.518 74.5946 119.659 75.092L117.783 79.399C119.744 80.2538 121.939 78.8162 121.939 76.6763H117.241ZM121.939 66.6915C121.939 65.5099 121.239 64.4407 120.155 63.9687L118.279 68.2758C117.648 68.0011 117.241 67.379 117.241 66.6915H121.939ZM84.3723 66.6915C84.3723 67.379 83.9647 68.0011 83.3344 68.2758L81.4577 63.9687C80.3745 64.4407 79.6741 65.5099 79.6741 66.6915H84.3723ZM79.6741 76.6763C79.6741 78.8162 81.8687 80.2538 83.8305 79.399L81.9538 75.092C83.0953 74.5946 84.3723 75.4311 84.3723 76.6763H79.6741ZM101.993 50.7205C101.236 50.3909 100.377 50.3909 99.6202 50.7205L101.497 55.0275C101.057 55.2193 100.556 55.2193 100.116 55.0275L101.993 50.7205ZM101.497 43.6881C101.057 43.8799 100.556 43.8799 100.116 43.6881L101.993 39.3811C101.236 39.0514 100.377 39.0514 99.6202 39.3811L101.497 43.6881ZM117.241 60.0026C117.241 58.7574 118.518 57.9209 119.659 58.4183L117.783 62.7253C119.744 63.5801 121.939 62.1425 121.939 60.0026H117.241ZM121.939 50.0178C121.939 48.8362 121.239 47.767 120.155 47.295L118.279 51.602C117.648 51.3274 117.241 50.7053 117.241 50.0178H121.939ZM84.3723 50.0178C84.3723 50.7053 83.9647 51.3274 83.3344 51.602L81.4577 47.295C80.3745 47.767 79.6741 48.8362 79.6741 50.0178H84.3723ZM79.6741 60.0026C79.6741 62.1425 81.8688 63.5801 83.8305 62.7253L81.9538 58.4183C83.0953 57.9209 84.3723 58.7574 84.3723 60.0026H79.6741Z" fill="black" mask="url(#path-5-outside-1_5545_58939)"/>
<mask id="mask0_5545_58939" style="mask-type:alpha" maskUnits="userSpaceOnUse" x="40" y="24" width="122" height="119">
<path fill-rule="evenodd" clip-rule="evenodd" d="M161.193 24.6611H40.4204V142.95H161.193V24.6611ZM65.5684 105.383V115.318L74.4168 121.372L71.7287 132.931C71.5294 133.788 72.26 134.575 73.1294 134.439L90.2507 131.773L101.117 139.069L111.984 131.773L128.478 134.569C129.348 134.716 130.09 133.935 129.898 133.073L127.352 121.683L136.666 115.473V103.52L137.752 29.0076L62.7742 34.2856L65.5684 105.383ZM63.0847 116.628L71.613 122.463L69.3095 132.368C68.7116 134.939 70.9033 137.3 73.5116 136.893L89.6728 134.377L101.117 142.061L112.545 134.387L128.063 137.017C130.673 137.46 132.899 135.115 132.322 132.531L130.147 122.804L139.15 116.803V103.538L140.275 26.3401L60.1978 31.9771L63.0847 105.432V116.628Z" fill="#D9D9D9"/>
</mask>
<g mask="url(#mask0_5545_58939)">
<path d="M101.428 59.5889L71.4674 68.3045V112.178L101.428 132.86L131.388 113.212V68.3045L101.428 59.5889Z" fill="#FFE540"/>
<mask id="mask1_5545_58939" style="mask-type:alpha" maskUnits="userSpaceOnUse" x="46" y="78" width="110" height="65">
<path d="M53.9533 90.7904L62.0255 78.6821L62.8017 92.6532L66.8378 111.747L76.4623 121.682L88.5706 125.563L92.141 142.949L66.8378 138.603L55.3504 127.115L62.8017 125.563L50.0725 114.231L46.3468 100.104L53.9533 103.054V90.7904Z" fill="#EFBE3F"/>
<path d="M147.97 90.7904L139.898 78.6821L139.122 92.6532L135.086 111.747L125.461 121.682L113.353 125.563L109.783 142.949L135.086 138.603L146.573 127.115L139.122 125.563L151.851 114.231L155.577 100.104L147.97 103.054V90.7904Z" fill="#EFBE3F"/>
</mask>
<g mask="url(#mask1_5545_58939)">
<path d="M53.6428 90.7904L61.715 78.6821L62.4912 92.6532L66.5273 111.747L76.1518 121.682L88.615 125.332L92.1386 142.95L66.5273 138.603L55.0399 127.115L62.4912 125.563L49.762 114.231L46.0363 100.104L53.6428 103.054V90.7904Z" fill="#EFBE3F"/>
<path d="M147.971 90.7904L139.898 78.6821L139.122 92.6532L135.086 111.747L125.462 121.682L113.353 125.563L109.783 142.949L135.086 138.603L146.574 127.115L139.122 125.563L151.851 114.231L155.577 100.104L147.971 103.054V90.7904Z" fill="#EFBE3F"/>
<g style="mix-blend-mode:overlay">
<ellipse cx="95.9946" cy="90.636" rx="88.4837" ry="37.8772" fill="url(#paint1_radial_5545_58939)"/>
</g>
<g style="mix-blend-mode:overlay">
<ellipse cx="100.952" cy="137.361" rx="21.7328" ry="16.9206" fill="url(#paint2_radial_5545_58939)"/>
</g>
</g>
<mask id="mask2_5545_58939" style="mask-type:alpha" maskUnits="userSpaceOnUse" x="71" y="118" width="21" height="17">
<path d="M74.8793 118.819L71.7339 132.836L71.7343 132.828C71.63 133.292 71.7591 133.738 72.0279 134.064L71.9608 134.122C72.2227 134.403 72.5902 134.576 72.997 134.58C73.112 134.59 73.2309 134.586 73.352 134.566L91.9475 131.548L91.9466 131.547L91.9475 131.547L91.7371 131.391L74.8793 118.819Z" fill="#C08C06"/>
</mask>
<g mask="url(#mask2_5545_58939)">
<path d="M71.7339 132.836L74.8793 118.818L91.9475 131.547L73.352 134.565C72.3559 134.729 71.5112 133.82 71.7343 132.827L71.7339 132.836Z" fill="#EFBE3F"/>
<path d="M82.8546 124.793L71.9608 134.121C72.2736 134.457 72.7368 134.639 73.2378 134.562L91.9475 131.547L82.8462 124.793L82.8546 124.793Z" fill="#C08C06"/>
<g style="mix-blend-mode:overlay">
<ellipse cx="70.9455" cy="127.158" rx="8.22743" ry="5.58844" transform="rotate(-22.0515 70.9455 127.158)" fill="url(#paint3_radial_5545_58939)"/>
</g>
</g>
<mask id="mask3_5545_58939" style="mask-type:alpha" maskUnits="userSpaceOnUse" x="109" y="118" width="21" height="17">
<path d="M126.633 118.819L129.779 132.836L129.778 132.828C129.883 133.292 129.754 133.738 129.485 134.064L129.552 134.122C129.29 134.403 128.922 134.576 128.516 134.58C128.401 134.59 128.282 134.586 128.161 134.566L109.565 131.548L109.566 131.547L109.565 131.547L109.775 131.391L126.633 118.819Z" fill="#C08C06"/>
</mask>
<g mask="url(#mask3_5545_58939)">
<path d="M129.779 132.836L126.633 118.818L109.565 131.547L128.161 134.565C129.157 134.729 130.001 133.82 129.778 132.827L129.779 132.836Z" fill="#EFBE3F"/>
<path d="M118.658 124.793L129.552 134.121C129.239 134.457 128.776 134.639 128.275 134.562L109.565 131.547L118.667 124.793L118.658 124.793Z" fill="#C08C06"/>
<g style="mix-blend-mode:overlay" opacity="0.7">
<ellipse rx="14.1134" ry="7.13342" transform="matrix(-0.7724 0.635136 0.635136 0.7724 119.499 124.359)" fill="url(#paint4_radial_5545_58939)"/>
</g>
</g>
<mask id="mask4_5545_58939" style="mask-type:alpha" maskUnits="userSpaceOnUse" x="72" y="61" width="58" height="70">
<path fill-rule="evenodd" clip-rule="evenodd" d="M72.7092 69.17L101.143 61.1416L129.577 69.17V74.5867L124.583 82.2848V102L129.577 106.993V111.626L101.143 130.526L72.7092 111.626V106.682L77.3921 102V82.2848L72.7092 75.0653V69.17Z" fill="#FFE540"/>
</mask>
<g mask="url(#mask4_5545_58939)">
<path fill-rule="evenodd" clip-rule="evenodd" d="M72.7092 69.17L101.143 61.1416L129.577 69.17V74.5867L124.583 82.2848V102L129.577 106.993V111.626L101.143 130.526L72.7092 111.626V106.682L77.3921 102V82.2848L72.7092 75.0653V69.17Z" fill="#FFE540"/>
<g style="mix-blend-mode:overlay" opacity="0.8">
<ellipse cx="95.6189" cy="93.3012" rx="88.4837" ry="18.9386" transform="rotate(49.3986 95.6189 93.3012)" fill="url(#paint5_radial_5545_58939)"/>
</g>
</g>
<mask id="mask5_5545_58939" style="mask-type:alpha" maskUnits="userSpaceOnUse" x="65" y="53" width="72" height="87">
<g style="mix-blend-mode:overlay">
<path fill-rule="evenodd" clip-rule="evenodd" d="M136.692 63.7345L101.117 53.6899L65.5426 63.7345V115.422L101.117 139.069L136.692 115.422V63.7345ZM101.117 61.1099L72.6834 69.1383V75.0336L77.3663 82.2531V101.968L72.6834 106.651V111.594L101.117 130.495L129.551 111.594V106.961L124.558 101.968V82.2531L129.551 74.555V69.1383L101.117 61.1099Z" fill="#D9D9D9"/>
</g>
</mask>
<g mask="url(#mask5_5545_58939)">
<path fill-rule="evenodd" clip-rule="evenodd" d="M136.692 63.7345L101.117 53.6899L65.5426 63.7345V115.422L101.117 139.069L136.692 115.422V63.7345ZM101.117 61.1099L72.6834 69.1383V75.0336L77.3663 82.2531V101.968L72.6834 106.651V111.594L101.117 130.495L129.551 111.594V106.961L124.558 101.968V82.2531L129.551 74.555V69.1383L101.117 61.1099Z" fill="#EFBE3F"/>
<g style="mix-blend-mode:overlay">
<path fill-rule="evenodd" clip-rule="evenodd" d="M136.692 63.735L101.117 53.6904L65.5425 63.735V115.423L101.117 139.069L136.692 115.423V63.735ZM101.117 61.1104L72.6833 69.1388V75.0341L77.3662 82.2536V101.968L72.6833 106.651V111.595L101.117 130.495L129.551 111.595V106.962L124.557 101.968V82.2536L129.551 74.5555V69.1388L101.117 61.1104Z" fill="url(#paint6_radial_5545_58939)"/>
</g>
<g style="mix-blend-mode:overlay" opacity="0.5">
<ellipse cx="126.496" cy="125.616" rx="24.7923" ry="39.099" transform="rotate(40.379 126.496 125.616)" fill="url(#paint7_radial_5545_58939)"/>
</g>
<g style="mix-blend-mode:overlay" opacity="0.7">
<ellipse cx="69.0852" cy="62.9809" rx="7.54251" ry="11.895" transform="rotate(40.379 69.0852 62.9809)" fill="url(#paint8_radial_5545_58939)"/>
</g>
<g style="mix-blend-mode:overlay" opacity="0.2">
<path d="M101.117 140.466V52.9141L137.442 63.6252V115.784L101.117 140.466Z" fill="black"/>
</g>
</g>
<g opacity="0.5">
<path fill-rule="evenodd" clip-rule="evenodd" d="M101.143 58.5605L132.061 67.2902V75.3215L127.067 83.0196V100.971L132.061 105.964V112.957L101.143 133.508L70.2255 112.957V105.653L74.9084 100.971V83.0196L70.2255 75.8001V67.2902L101.143 58.5605ZM77.3922 82.2846V101.999L72.7093 106.682V111.626L101.143 130.526L129.577 111.626V106.993L124.583 101.999V82.2846L129.577 74.5865V69.1698L101.143 61.1414L72.7093 69.1698V75.0651L77.3922 82.2846Z" fill="#C49214"/>
<path fill-rule="evenodd" clip-rule="evenodd" d="M101.143 58.5605L132.061 67.2902V75.3215L127.067 83.0196V100.971L132.061 105.964V112.957L101.143 133.508L70.2255 112.957V105.653L74.9084 100.971V83.0196L70.2255 75.8001V67.2902L101.143 58.5605ZM77.3922 82.2846V101.999L72.7093 106.682V111.626L101.143 130.526L129.577 111.626V106.993L124.583 101.999V82.2846L129.577 74.5865V69.1698L101.143 61.1414L72.7093 69.1698V75.0651L77.3922 82.2846Z" fill="#C9A034"/>
</g>
<g style="mix-blend-mode:overlay" opacity="0.7">
<path fill-rule="evenodd" clip-rule="evenodd" d="M101.143 58.5605L132.061 67.2902V75.3215L127.067 83.0196V100.971L132.061 105.964V112.957L101.143 133.508L70.2255 112.957V105.653L74.9084 100.971V83.0196L70.2255 75.8001V67.2902L101.143 58.5605ZM77.3922 82.2846V101.999L72.7093 106.682V111.626L101.143 130.526L129.577 111.626V106.993L124.583 101.999V82.2846L129.577 74.5865V69.1698L101.143 61.1414L72.7093 69.1698V75.0651L77.3922 82.2846Z" fill="url(#paint9_radial_5545_58939)"/>
<path fill-rule="evenodd" clip-rule="evenodd" d="M101.143 58.5605L132.061 67.2902V75.3215L127.067 83.0196V100.971L132.061 105.964V112.957L101.143 133.508L70.2255 112.957V105.653L74.9084 100.971V83.0196L70.2255 75.8001V67.2902L101.143 58.5605ZM77.3922 82.2846V101.999L72.7093 106.682V111.626L101.143 130.526L129.577 111.626V106.993L124.583 101.999V82.2846L129.577 74.5865V69.1698L101.143 61.1414L72.7093 69.1698V75.0651L77.3922 82.2846Z" fill="url(#paint10_radial_5545_58939)"/>
</g>
<path d="M100.986 127.765C100.878 127.841 100.735 127.841 100.628 127.765L93.6889 122.867C93.4415 122.693 93.5651 122.303 93.868 122.303L107.746 122.303C108.048 122.303 108.172 122.693 107.925 122.867L100.986 127.765Z" fill="#C08C06"/>
<path d="M81.436 60.9507C81.436 61.1487 81.5358 61.3334 81.7015 61.4419C81.8671 61.5504 82.0763 61.5682 82.2578 61.4891L100.807 53.4068L119.355 61.4891C119.537 61.5682 119.746 61.5504 119.912 61.4419C120.077 61.3334 120.177 61.1487 120.177 60.9507V49.6113C120.177 49.3776 120.039 49.1662 119.825 49.0729L101.041 40.8884C100.892 40.8232 100.722 40.8232 100.572 40.8884L81.7887 49.0729C81.5745 49.1662 81.436 49.3776 81.436 49.6113L81.436 60.9507ZM81.436 77.6244C81.436 77.8224 81.5358 78.0071 81.7015 78.1156C81.8671 78.2242 82.0763 78.2419 82.2578 78.1628L100.807 70.0805L119.355 78.1628C119.537 78.2419 119.746 78.2242 119.912 78.1156C120.077 78.0071 120.177 77.8224 120.177 77.6244V66.285C120.177 66.0513 120.039 65.8399 119.825 65.7466L101.041 57.5621C100.892 57.4969 100.722 57.4969 100.572 57.5621L81.7887 65.7466C81.5745 65.8399 81.436 66.0513 81.436 66.285L81.436 77.6244ZM81.436 94.2981C81.436 94.4961 81.5358 94.6808 81.7015 94.7893C81.8671 94.8979 82.0763 94.9156 82.2578 94.8365L100.807 86.7542L119.355 94.8365C119.537 94.9156 119.746 94.8979 119.912 94.7893C120.077 94.6808 120.177 94.4961 120.177 94.2981V82.9587C120.177 82.725 120.039 82.5136 119.825 82.4203L101.041 74.2358C100.892 74.1706 100.722 74.1706 100.572 74.2358L81.7887 82.4203C81.5745 82.5136 81.436 82.725 81.436 82.9587L81.436 94.2981ZM81.436 110.972C81.436 111.17 81.5358 111.355 81.7015 111.463C81.8671 111.572 82.0763 111.589 82.2578 111.51L100.807 103.428L119.355 111.51C119.537 111.589 119.746 111.572 119.912 111.463C120.077 111.355 120.177 111.17 120.177 110.972V99.6324C120.177 99.3988 120.039 99.1873 119.825 99.094L101.041 90.9095C100.892 90.8443 100.722 90.8443 100.572 90.9095L81.7887 99.094C81.5745 99.1873 81.436 99.3988 81.436 99.6324L81.436 110.972Z" fill="#C08C06" stroke="url(#paint11_radial_5545_58939)" stroke-width="1.17453" stroke-linejoin="round"/>
<path d="M111.232 120.686C111.407 120.562 111.407 120.302 111.232 120.178L100.908 112.891C100.801 112.816 100.658 112.816 100.55 112.891L90.227 120.178C90.0517 120.302 90.0517 120.562 90.227 120.686L100.55 127.973C100.658 128.049 100.801 128.049 100.908 127.973L111.232 120.686Z" fill="#C08C06"/>
<path d="M77.4273 56.8724L72.3988 58.2621L77.4974 51.9824L77.4273 56.8724Z" fill="#C08C06"/>
<path d="M124.169 56.8724L129.197 58.2621L124.099 51.9824L124.169 56.8724Z" fill="#C08C06"/>
</g>
<defs>
<radialGradient id="paint0_radial_5545_58939" cx="0" cy="0" r="1" gradientUnits="userSpaceOnUse" gradientTransform="translate(101.144 89.7039) rotate(90) scale(89.2644)">
<stop stop-color="white"/>
<stop offset="1" stop-color="white" stop-opacity="0"/>
</radialGradient>
<radialGradient id="paint1_radial_5545_58939" cx="0" cy="0" r="1" gradientUnits="userSpaceOnUse" gradientTransform="translate(95.9946 90.636) rotate(90) scale(37.8772 88.4837)">
<stop stop-color="white"/>
<stop offset="1" stop-color="white" stop-opacity="0"/>
</radialGradient>
<radialGradient id="paint2_radial_5545_58939" cx="0" cy="0" r="1" gradientUnits="userSpaceOnUse" gradientTransform="translate(100.952 137.361) rotate(90) scale(16.9206 21.7328)">
<stop/>
<stop offset="1" stop-opacity="0"/>
</radialGradient>
<radialGradient id="paint3_radial_5545_58939" cx="0" cy="0" r="1" gradientUnits="userSpaceOnUse" gradientTransform="translate(69.7398 125.999) rotate(79.868) scale(6.85365 10.0901)">
<stop stop-color="white"/>
<stop offset="1" stop-color="white" stop-opacity="0"/>
</radialGradient>
<radialGradient id="paint4_radial_5545_58939" cx="0" cy="0" r="1" gradientUnits="userSpaceOnUse" gradientTransform="translate(12.0452 5.65487) rotate(76.4958) scale(8.85684 17.0968)">
<stop/>
<stop offset="1" stop-opacity="0"/>
</radialGradient>
<radialGradient id="paint5_radial_5545_58939" cx="0" cy="0" r="1" gradientUnits="userSpaceOnUse" gradientTransform="translate(95.6189 93.3012) rotate(90) scale(18.9386 88.4837)">
<stop stop-color="white"/>
<stop offset="1" stop-color="white" stop-opacity="0"/>
</radialGradient>
<radialGradient id="paint6_radial_5545_58939" cx="0" cy="0" r="1" gradientUnits="userSpaceOnUse" gradientTransform="translate(86.0593 81.6326) rotate(134.301) scale(18.0032 36.1089)">
<stop stop-color="white"/>
<stop offset="1" stop-color="white" stop-opacity="0"/>
</radialGradient>
<radialGradient id="paint7_radial_5545_58939" cx="0" cy="0" r="1" gradientUnits="userSpaceOnUse" gradientTransform="translate(126.496 125.616) rotate(90) scale(39.099 24.7923)">
<stop/>
<stop offset="1" stop-opacity="0"/>
</radialGradient>
<radialGradient id="paint8_radial_5545_58939" cx="0" cy="0" r="1" gradientUnits="userSpaceOnUse" gradientTransform="translate(69.0852 62.9809) rotate(90) scale(11.895 7.54251)">
<stop stop-color="white"/>
<stop offset="1" stop-color="white" stop-opacity="0"/>
</radialGradient>
<radialGradient id="paint9_radial_5545_58939" cx="0" cy="0" r="1" gradientUnits="userSpaceOnUse" gradientTransform="translate(113.381 115.784) rotate(144.409) scale(19.4713 15.7461)">
<stop stop-color="white"/>
<stop offset="1" stop-color="white" stop-opacity="0"/>
</radialGradient>
<radialGradient id="paint10_radial_5545_58939" cx="0" cy="0" r="1" gradientUnits="userSpaceOnUse" gradientTransform="translate(82.6443 67.8165) rotate(145.102) scale(38.8006 16.0167)">
<stop/>
<stop offset="1" stop-opacity="0"/>
</radialGradient>
<radialGradient id="paint11_radial_5545_58939" cx="0" cy="0" r="1" gradientUnits="userSpaceOnUse" gradientTransform="translate(100.807 98.3178) rotate(90) scale(49.3303 40.5733)">
<stop offset="0.680356" stop-color="#B07F00"/>
<stop offset="0.836733" stop-color="#9F7300"/>
<stop offset="1"/>
</radialGradient>
</defs>
</svg>
