<svg width="157" height="272" viewBox="0 0 157 272" fill="none" xmlns="http://www.w3.org/2000/svg">
<g filter="url(#filter0_d_5074_50327)">
<mask id="path-1-inside-1_5074_50327" fill="white">
<path fill-rule="evenodd" clip-rule="evenodd" d="M27.1712 11.3889L74.7074 7.23L75.7533 19.1843L88.9252 18.0319L87.8793 6.0776L106.673 4.43335L106.451 5.95852L110.079 16.9341L118.028 24.5056L128.17 26.6443L128.597 26.4726L141.258 171.188L140.807 171.093L136.32 172.897L133.28 177.021L132.725 180.834L129.289 181.135L129.55 184.123L132.986 183.823L134.195 187.481L137.905 191.015L142.638 192.013L143.065 191.841L146.4 229.963L145.95 229.868L136.333 233.735L129.819 242.572L128.153 254.011L128.314 254.499L97.4616 257.198L97.2815 255.139C96.8996 250.774 93.0517 247.546 88.6869 247.928C84.3221 248.309 81.0933 252.157 81.4752 256.522L81.6553 258.581L49.0473 261.434L49.1214 260.925L45.4938 249.95L37.5442 242.378L27.8529 240.335L24.5177 202.212L28.5782 200.579L31.6181 196.456L32.1736 192.643L36.0482 192.304L35.7867 189.315L31.9121 189.654L30.7029 185.995L26.9931 182.462L22.7107 181.559L9.96264 35.8479L19.1518 32.1524L25.6659 23.3155L27.3324 11.8767L27.1712 11.3889ZM45.8905 191.443L40.9694 191.873L40.7079 188.885L45.6291 188.454L45.8905 191.443ZM55.7329 190.581L50.8117 191.012L50.5502 188.023L55.4714 187.593L55.7329 190.581ZM65.5752 189.72L60.654 190.151L60.3926 187.162L65.3137 186.732L65.5752 189.72ZM75.4175 188.859L70.4964 189.29L70.2349 186.301L75.1561 185.871L75.4175 188.859ZM85.2599 187.998L80.3387 188.429L80.0772 185.44L84.9984 185.01L85.2599 187.998ZM95.1022 187.137L90.1811 187.568L89.9196 184.579L94.8408 184.148L95.1022 187.137ZM104.945 186.276L100.023 186.707L99.7619 183.718L104.683 183.287L104.945 186.276ZM114.787 185.415L109.866 185.845L109.604 182.857L114.525 182.426L114.787 185.415ZM124.629 184.554L119.708 184.984L119.447 181.996L124.368 181.565L124.629 184.554Z"/>
</mask>
<path fill-rule="evenodd" clip-rule="evenodd" d="M27.1712 11.3889L74.7074 7.23L75.7533 19.1843L88.9252 18.0319L87.8793 6.0776L106.673 4.43335L106.451 5.95852L110.079 16.9341L118.028 24.5056L128.17 26.6443L128.597 26.4726L141.258 171.188L140.807 171.093L136.32 172.897L133.28 177.021L132.725 180.834L129.289 181.135L129.55 184.123L132.986 183.823L134.195 187.481L137.905 191.015L142.638 192.013L143.065 191.841L146.4 229.963L145.95 229.868L136.333 233.735L129.819 242.572L128.153 254.011L128.314 254.499L97.4616 257.198L97.2815 255.139C96.8996 250.774 93.0517 247.546 88.6869 247.928C84.3221 248.309 81.0933 252.157 81.4752 256.522L81.6553 258.581L49.0473 261.434L49.1214 260.925L45.4938 249.95L37.5442 242.378L27.8529 240.335L24.5177 202.212L28.5782 200.579L31.6181 196.456L32.1736 192.643L36.0482 192.304L35.7867 189.315L31.9121 189.654L30.7029 185.995L26.9931 182.462L22.7107 181.559L9.96264 35.8479L19.1518 32.1524L25.6659 23.3155L27.3324 11.8767L27.1712 11.3889ZM45.8905 191.443L40.9694 191.873L40.7079 188.885L45.6291 188.454L45.8905 191.443ZM55.7329 190.581L50.8117 191.012L50.5502 188.023L55.4714 187.593L55.7329 190.581ZM65.5752 189.72L60.654 190.151L60.3926 187.162L65.3137 186.732L65.5752 189.72ZM75.4175 188.859L70.4964 189.29L70.2349 186.301L75.1561 185.871L75.4175 188.859ZM85.2599 187.998L80.3387 188.429L80.0772 185.44L84.9984 185.01L85.2599 187.998ZM95.1022 187.137L90.1811 187.568L89.9196 184.579L94.8408 184.148L95.1022 187.137ZM104.945 186.276L100.023 186.707L99.7619 183.718L104.683 183.287L104.945 186.276ZM114.787 185.415L109.866 185.845L109.604 182.857L114.525 182.426L114.787 185.415ZM124.629 184.554L119.708 184.984L119.447 181.996L124.368 181.565L124.629 184.554Z" fill="#4DA1A9"/>
<path fill-rule="evenodd" clip-rule="evenodd" d="M27.1712 11.3889L74.7074 7.23L75.7533 19.1843L88.9252 18.0319L87.8793 6.0776L106.673 4.43335L106.451 5.95852L110.079 16.9341L118.028 24.5056L128.17 26.6443L128.597 26.4726L141.258 171.188L140.807 171.093L136.32 172.897L133.28 177.021L132.725 180.834L129.289 181.135L129.55 184.123L132.986 183.823L134.195 187.481L137.905 191.015L142.638 192.013L143.065 191.841L146.4 229.963L145.95 229.868L136.333 233.735L129.819 242.572L128.153 254.011L128.314 254.499L97.4616 257.198L97.2815 255.139C96.8996 250.774 93.0517 247.546 88.6869 247.928C84.3221 248.309 81.0933 252.157 81.4752 256.522L81.6553 258.581L49.0473 261.434L49.1214 260.925L45.4938 249.95L37.5442 242.378L27.8529 240.335L24.5177 202.212L28.5782 200.579L31.6181 196.456L32.1736 192.643L36.0482 192.304L35.7867 189.315L31.9121 189.654L30.7029 185.995L26.9931 182.462L22.7107 181.559L9.96264 35.8479L19.1518 32.1524L25.6659 23.3155L27.3324 11.8767L27.1712 11.3889ZM45.8905 191.443L40.9694 191.873L40.7079 188.885L45.6291 188.454L45.8905 191.443ZM55.7329 190.581L50.8117 191.012L50.5502 188.023L55.4714 187.593L55.7329 190.581ZM65.5752 189.72L60.654 190.151L60.3926 187.162L65.3137 186.732L65.5752 189.72ZM75.4175 188.859L70.4964 189.29L70.2349 186.301L75.1561 185.871L75.4175 188.859ZM85.2599 187.998L80.3387 188.429L80.0772 185.44L84.9984 185.01L85.2599 187.998ZM95.1022 187.137L90.1811 187.568L89.9196 184.579L94.8408 184.148L95.1022 187.137ZM104.945 186.276L100.023 186.707L99.7619 183.718L104.683 183.287L104.945 186.276ZM114.787 185.415L109.866 185.845L109.604 182.857L114.525 182.426L114.787 185.415ZM124.629 184.554L119.708 184.984L119.447 181.996L124.368 181.565L124.629 184.554Z" fill="#4AFFF9"/>
<path fill-rule="evenodd" clip-rule="evenodd" d="M27.1712 11.3889L74.7074 7.23L75.7533 19.1843L88.9252 18.0319L87.8793 6.0776L106.673 4.43335L106.451 5.95852L110.079 16.9341L118.028 24.5056L128.17 26.6443L128.597 26.4726L141.258 171.188L140.807 171.093L136.32 172.897L133.28 177.021L132.725 180.834L129.289 181.135L129.55 184.123L132.986 183.823L134.195 187.481L137.905 191.015L142.638 192.013L143.065 191.841L146.4 229.963L145.95 229.868L136.333 233.735L129.819 242.572L128.153 254.011L128.314 254.499L97.4616 257.198L97.2815 255.139C96.8996 250.774 93.0517 247.546 88.6869 247.928C84.3221 248.309 81.0933 252.157 81.4752 256.522L81.6553 258.581L49.0473 261.434L49.1214 260.925L45.4938 249.95L37.5442 242.378L27.8529 240.335L24.5177 202.212L28.5782 200.579L31.6181 196.456L32.1736 192.643L36.0482 192.304L35.7867 189.315L31.9121 189.654L30.7029 185.995L26.9931 182.462L22.7107 181.559L9.96264 35.8479L19.1518 32.1524L25.6659 23.3155L27.3324 11.8767L27.1712 11.3889ZM45.8905 191.443L40.9694 191.873L40.7079 188.885L45.6291 188.454L45.8905 191.443ZM55.7329 190.581L50.8117 191.012L50.5502 188.023L55.4714 187.593L55.7329 190.581ZM65.5752 189.72L60.654 190.151L60.3926 187.162L65.3137 186.732L65.5752 189.72ZM75.4175 188.859L70.4964 189.29L70.2349 186.301L75.1561 185.871L75.4175 188.859ZM85.2599 187.998L80.3387 188.429L80.0772 185.44L84.9984 185.01L85.2599 187.998ZM95.1022 187.137L90.1811 187.568L89.9196 184.579L94.8408 184.148L95.1022 187.137ZM104.945 186.276L100.023 186.707L99.7619 183.718L104.683 183.287L104.945 186.276ZM114.787 185.415L109.866 185.845L109.604 182.857L114.525 182.426L114.787 185.415ZM124.629 184.554L119.708 184.984L119.447 181.996L124.368 181.565L124.629 184.554Z" fill="#00B1FF"/>
<path d="M74.7074 7.23L76.6998 7.05569L76.5255 5.0633L74.5331 5.23761L74.7074 7.23ZM27.1712 11.3889L26.9969 9.39648L24.4791 9.61676L25.2722 12.0165L27.1712 11.3889ZM75.7533 19.1843L73.7609 19.3586L73.9352 21.351L75.9276 21.1767L75.7533 19.1843ZM88.9252 18.0319L89.0995 20.0243L91.0919 19.85L90.9176 17.8576L88.9252 18.0319ZM87.8793 6.0776L87.705 4.08522L85.7126 4.25953L85.8869 6.25192L87.8793 6.0776ZM106.673 4.43335L108.652 4.72169L109.017 2.22068L106.499 2.44096L106.673 4.43335ZM106.451 5.95852L104.472 5.67018L104.404 6.13763L104.552 6.58615L106.451 5.95852ZM110.079 16.9341L108.18 17.5618L108.337 18.0371L108.699 18.3824L110.079 16.9341ZM118.028 24.5056L116.649 25.9539L117.06 26.3455L117.616 26.4626L118.028 24.5056ZM128.17 26.6443L127.757 28.6013L128.352 28.7267L128.916 28.4999L128.17 26.6443ZM128.597 26.4726L130.589 26.2983L130.354 23.6102L127.851 24.617L128.597 26.4726ZM141.258 171.188L140.845 173.144L143.485 173.701L143.25 171.013L141.258 171.188ZM140.807 171.093L141.22 169.136L140.625 169.01L140.061 169.237L140.807 171.093ZM136.32 172.897L135.574 171.042L135.047 171.254L134.71 171.711L136.32 172.897ZM133.28 177.021L131.67 175.834L131.373 176.237L131.301 176.733L133.28 177.021ZM132.725 180.834L132.899 182.826L134.475 182.689L134.704 181.122L132.725 180.834ZM129.289 181.135L129.115 179.142L127.122 179.317L127.297 181.309L129.289 181.135ZM129.55 184.123L127.558 184.298L127.732 186.29L129.725 186.116L129.55 184.123ZM132.986 183.823L134.885 183.195L134.388 181.692L132.812 181.83L132.986 183.823ZM134.195 187.481L132.296 188.109L132.453 188.584L132.816 188.929L134.195 187.481ZM137.905 191.015L136.526 192.463L136.937 192.854L137.492 192.972L137.905 191.015ZM142.638 192.013L142.225 193.97L142.82 194.095L143.384 193.868L142.638 192.013ZM143.065 191.841L145.057 191.667L144.822 188.979L142.319 189.985L143.065 191.841ZM146.4 229.963L145.987 231.92L148.628 232.477L148.392 229.789L146.4 229.963ZM145.95 229.868L146.362 227.911L145.767 227.786L145.203 228.012L145.95 229.868ZM136.333 233.735L135.587 231.88L135.06 232.092L134.724 232.549L136.333 233.735ZM129.819 242.572L128.21 241.386L127.912 241.788L127.84 242.284L129.819 242.572ZM128.153 254.011L126.174 253.723L126.106 254.19L126.254 254.639L128.153 254.011ZM128.314 254.499L128.488 256.491L131.006 256.271L130.213 253.871L128.314 254.499ZM97.4616 257.198L95.4692 257.372L95.6435 259.365L97.6359 259.19L97.4616 257.198ZM81.6553 258.581L81.8296 260.573L83.822 260.399L83.6477 258.407L81.6553 258.581ZM49.0473 261.434L47.0682 261.145L46.7038 263.646L49.2216 263.426L49.0473 261.434ZM49.1214 260.925L51.1005 261.214L51.1686 260.746L51.0203 260.298L49.1214 260.925ZM45.4938 249.95L47.3928 249.322L47.2357 248.847L46.8732 248.502L45.4938 249.95ZM37.5442 242.378L38.9235 240.93L38.5124 240.538L37.9569 240.421L37.5442 242.378ZM27.8529 240.335L25.8605 240.509L25.9897 241.986L27.4402 242.291L27.8529 240.335ZM24.5177 202.212L23.7714 200.357L22.3961 200.91L22.5253 202.387L24.5177 202.212ZM28.5782 200.579L29.3244 202.435L29.8511 202.223L30.188 201.766L28.5782 200.579ZM31.6181 196.456L33.2279 197.642L33.525 197.239L33.5972 196.744L31.6181 196.456ZM32.1736 192.643L31.9993 190.65L30.4226 190.788L30.1945 192.354L32.1736 192.643ZM36.0482 192.304L36.2225 194.296L38.2149 194.122L38.0406 192.129L36.0482 192.304ZM35.7867 189.315L37.7791 189.141L37.6048 187.148L35.6124 187.323L35.7867 189.315ZM31.9121 189.654L30.0131 190.282L30.5098 191.784L32.0864 191.646L31.9121 189.654ZM30.7029 185.995L32.6019 185.368L32.4448 184.893L32.0823 184.547L30.7029 185.995ZM26.9931 182.462L28.3724 181.014L27.9613 180.622L27.4058 180.505L26.9931 182.462ZM22.7107 181.559L20.7183 181.733L20.8475 183.21L22.298 183.516L22.7107 181.559ZM9.96264 35.8479L9.21641 33.9923L7.84105 34.5454L7.97025 36.0222L9.96264 35.8479ZM19.1518 32.1524L19.898 34.008L20.4248 33.7961L20.7617 33.3391L19.1518 32.1524ZM25.6659 23.3155L27.2758 24.5022L27.5728 24.0992L27.645 23.6038L25.6659 23.3155ZM27.3324 11.8767L29.3115 12.165L29.3797 11.6976L29.2314 11.2491L27.3324 11.8767ZM40.9694 191.873L38.977 192.047L39.1513 194.04L41.1437 193.865L40.9694 191.873ZM45.8905 191.443L46.0648 193.435L48.0572 193.261L47.8829 191.268L45.8905 191.443ZM40.7079 188.885L40.5336 186.892L38.5412 187.066L38.7155 189.059L40.7079 188.885ZM45.6291 188.454L47.6214 188.28L47.4471 186.287L45.4547 186.462L45.6291 188.454ZM50.8117 191.012L48.8193 191.186L48.9936 193.179L50.986 193.004L50.8117 191.012ZM55.7329 190.581L55.9072 192.574L57.8996 192.4L57.7253 190.407L55.7329 190.581ZM50.5502 188.023L50.3759 186.031L48.3835 186.205L48.5578 188.198L50.5502 188.023ZM55.4714 187.593L57.4638 187.419L57.2895 185.426L55.2971 185.6L55.4714 187.593ZM60.654 190.151L58.6616 190.325L58.836 192.318L60.8283 192.143L60.654 190.151ZM65.5752 189.72L65.7495 191.713L67.7419 191.538L67.5676 189.546L65.5752 189.72ZM60.3926 187.162L60.2183 185.17L58.2259 185.344L58.4002 187.337L60.3926 187.162ZM65.3137 186.732L67.3061 186.557L67.1318 184.565L65.1394 184.739L65.3137 186.732ZM70.4964 189.29L68.504 189.464L68.6783 191.457L70.6707 191.282L70.4964 189.29ZM75.4175 188.859L75.5919 190.852L77.5842 190.677L77.4099 188.685L75.4175 188.859ZM70.2349 186.301L70.0606 184.309L68.0682 184.483L68.2425 186.476L70.2349 186.301ZM75.1561 185.871L77.1485 185.696L76.9741 183.704L74.9818 183.878L75.1561 185.871ZM80.3387 188.429L78.3463 188.603L78.5206 190.595L80.513 190.421L80.3387 188.429ZM85.2599 187.998L85.4342 189.991L87.4266 189.816L87.2523 187.824L85.2599 187.998ZM80.0772 185.44L79.9029 183.448L77.9105 183.622L78.0849 185.614L80.0772 185.44ZM84.9984 185.01L86.9908 184.835L86.8165 182.843L84.8241 183.017L84.9984 185.01ZM90.1811 187.568L88.1887 187.742L88.363 189.734L90.3554 189.56L90.1811 187.568ZM95.1022 187.137L95.2765 189.129L97.2689 188.955L97.0946 186.963L95.1022 187.137ZM89.9196 184.579L89.7453 182.587L87.7529 182.761L87.9272 184.753L89.9196 184.579ZM94.8408 184.148L96.8332 183.974L96.6588 181.982L94.6665 182.156L94.8408 184.148ZM100.023 186.707L98.031 186.881L98.2053 188.873L100.198 188.699L100.023 186.707ZM104.945 186.276L105.119 188.268L107.111 188.094L106.937 186.102L104.945 186.276ZM99.7619 183.718L99.5876 181.726L97.5952 181.9L97.7696 183.892L99.7619 183.718ZM104.683 183.287L106.676 183.113L106.501 181.121L104.509 181.295L104.683 183.287ZM109.866 185.845L107.873 186.02L108.048 188.012L110.04 187.838L109.866 185.845ZM114.787 185.415L114.961 187.407L116.954 187.233L116.779 185.241L114.787 185.415ZM109.604 182.857L109.43 180.864L107.438 181.039L107.612 183.031L109.604 182.857ZM114.525 182.426L116.518 182.252L116.344 180.26L114.351 180.434L114.525 182.426ZM119.708 184.984L117.716 185.159L117.89 187.151L119.882 186.977L119.708 184.984ZM124.629 184.554L124.804 186.546L126.796 186.372L126.622 184.379L124.629 184.554ZM119.447 181.996L119.272 180.003L117.28 180.178L117.454 182.17L119.447 181.996ZM124.368 181.565L126.36 181.391L126.186 179.399L124.193 179.573L124.368 181.565ZM74.5331 5.23761L26.9969 9.39648L27.3455 13.3813L74.8817 9.22239L74.5331 5.23761ZM77.7457 19.01L76.6998 7.05569L72.715 7.40431L73.7609 19.3586L77.7457 19.01ZM88.7509 16.0396L75.579 17.1919L75.9276 21.1767L89.0995 20.0243L88.7509 16.0396ZM85.8869 6.25192L86.9328 18.2063L90.9176 17.8576L89.8717 5.90329L85.8869 6.25192ZM106.499 2.44096L87.705 4.08522L88.0536 8.06999L106.848 6.42574L106.499 2.44096ZM108.43 6.24686L108.652 4.72169L104.694 4.14501L104.472 5.67018L108.43 6.24686ZM111.978 16.3065L108.35 5.33089L104.552 6.58615L108.18 17.5618L111.978 16.3065ZM119.408 23.0574L111.458 15.4859L108.699 18.3824L116.649 25.9539L119.408 23.0574ZM128.583 24.6873L118.441 22.5487L117.616 26.4626L127.757 28.6013L128.583 24.6873ZM127.851 24.617L127.424 24.7887L128.916 28.4999L129.343 28.3281L127.851 24.617ZM143.25 171.013L130.589 26.2983L126.605 26.6469L139.265 171.362L143.25 171.013ZM140.395 173.05L140.845 173.144L141.671 169.231L141.22 169.136L140.395 173.05ZM137.066 174.753L141.554 172.948L140.061 169.237L135.574 171.042L137.066 174.753ZM134.89 178.208L137.93 174.084L134.71 171.711L131.67 175.834L134.89 178.208ZM134.704 181.122L135.259 177.31L131.301 176.733L130.745 180.546L134.704 181.122ZM129.463 183.127L132.899 182.826L132.55 178.842L129.115 179.142L129.463 183.127ZM131.543 183.949L131.281 180.96L127.297 181.309L127.558 184.298L131.543 183.949ZM132.812 181.83L129.376 182.131L129.725 186.116L133.16 185.815L132.812 181.83ZM136.094 186.854L134.885 183.195L131.087 184.45L132.296 188.109L136.094 186.854ZM139.284 189.566L135.575 186.033L132.816 188.929L136.526 192.463L139.284 189.566ZM143.05 190.056L138.318 189.058L137.492 192.972L142.225 193.97L143.05 190.056ZM142.319 189.985L141.892 190.157L143.384 193.868L143.811 193.696L142.319 189.985ZM148.392 229.789L145.057 191.667L141.072 192.015L144.408 230.137L148.392 229.789ZM145.537 231.825L145.987 231.92L146.813 228.006L146.362 227.911L145.537 231.825ZM137.08 235.591L146.696 231.724L145.203 228.012L135.587 231.88L137.08 235.591ZM131.429 243.759L137.943 234.922L134.724 232.549L128.21 241.386L131.429 243.759ZM130.132 254.299L131.798 242.861L127.84 242.284L126.174 253.723L130.132 254.299ZM130.213 253.871L130.052 253.383L126.254 254.639L126.415 255.126L130.213 253.871ZM97.6359 259.19L128.488 256.491L128.14 252.506L97.2873 255.206L97.6359 259.19ZM95.2891 255.314L95.4692 257.372L99.454 257.024L99.2739 254.965L95.2891 255.314ZM88.8612 249.92C92.1256 249.634 95.0035 252.049 95.2891 255.314L99.2739 254.965C98.7957 249.5 93.9777 245.457 88.5126 245.935L88.8612 249.92ZM83.4676 256.348C83.182 253.083 85.5968 250.206 88.8612 249.92L88.5126 245.935C83.0474 246.413 79.0047 251.231 79.4828 256.696L83.4676 256.348ZM83.6477 258.407L83.4676 256.348L79.4828 256.696L79.6629 258.755L83.6477 258.407ZM49.2216 263.426L81.8296 260.573L81.481 256.589L48.873 259.441L49.2216 263.426ZM47.1423 260.637L47.0682 261.145L51.0264 261.722L51.1005 261.214L47.1423 260.637ZM43.5949 250.577L47.2224 261.553L51.0203 260.298L47.3928 249.322L43.5949 250.577ZM36.1648 243.826L44.1145 251.398L46.8732 248.502L38.9235 240.93L36.1648 243.826ZM27.4402 242.291L37.1315 244.335L37.9569 240.421L28.2656 238.378L27.4402 242.291ZM22.5253 202.387L25.8605 240.509L29.8453 240.16L26.51 202.038L22.5253 202.387ZM27.8319 198.724L23.7714 200.357L25.2639 204.068L29.3244 202.435L27.8319 198.724ZM30.0082 195.269L26.9683 199.393L30.188 201.766L33.2279 197.642L30.0082 195.269ZM30.1945 192.354L29.639 196.167L33.5972 196.744L34.1527 192.931L30.1945 192.354ZM35.8739 190.311L31.9993 190.65L32.3479 194.635L36.2225 194.296L35.8739 190.311ZM33.7943 189.489L34.0558 192.478L38.0406 192.129L37.7791 189.141L33.7943 189.489ZM32.0864 191.646L35.961 191.307L35.6124 187.323L31.7378 187.662L32.0864 191.646ZM28.804 186.623L30.0131 190.282L33.8111 189.026L32.6019 185.368L28.804 186.623ZM25.6137 183.91L29.3236 187.444L32.0823 184.547L28.3724 181.014L25.6137 183.91ZM22.298 183.516L26.5804 184.419L27.4058 180.505L23.1234 179.602L22.298 183.516ZM7.97025 36.0222L20.7183 181.733L24.7031 181.385L11.955 35.6736L7.97025 36.0222ZM18.4056 30.2968L9.21641 33.9923L10.7089 37.7035L19.898 34.008L18.4056 30.2968ZM24.056 22.1287L17.5419 30.9657L20.7617 33.3391L27.2758 24.5022L24.056 22.1287ZM25.3533 11.5883L23.6868 23.0271L27.645 23.6038L29.3115 12.165L25.3533 11.5883ZM25.2722 12.0165L25.4335 12.5043L29.2314 11.2491L29.0702 10.7612L25.2722 12.0165ZM41.1437 193.865L46.0648 193.435L45.7162 189.45L40.795 189.881L41.1437 193.865ZM38.7155 189.059L38.977 192.047L42.9617 191.699L42.7003 188.71L38.7155 189.059ZM45.4547 186.462L40.5336 186.892L40.8822 190.877L45.8034 190.446L45.4547 186.462ZM47.8829 191.268L47.6214 188.28L43.6367 188.628L43.8981 191.617L47.8829 191.268ZM50.986 193.004L55.9072 192.574L55.5586 188.589L50.6374 189.02L50.986 193.004ZM48.5578 188.198L48.8193 191.186L52.8041 190.838L52.5426 187.849L48.5578 188.198ZM55.2971 185.6L50.3759 186.031L50.7245 190.016L55.6457 189.585L55.2971 185.6ZM57.7253 190.407L57.4638 187.419L53.479 187.767L53.7405 190.756L57.7253 190.407ZM60.8283 192.143L65.7495 191.713L65.4009 187.728L60.4797 188.159L60.8283 192.143ZM58.4002 187.337L58.6616 190.325L62.6464 189.977L62.385 186.988L58.4002 187.337ZM65.1394 184.739L60.2183 185.17L60.5669 189.155L65.488 188.724L65.1394 184.739ZM67.5676 189.546L67.3061 186.557L63.3213 186.906L63.5828 189.895L67.5676 189.546ZM70.6707 191.282L75.5919 190.852L75.2432 186.867L70.3221 187.297L70.6707 191.282ZM68.2425 186.476L68.504 189.464L72.4888 189.115L72.2273 186.127L68.2425 186.476ZM74.9818 183.878L70.0606 184.309L70.4092 188.294L75.3304 187.863L74.9818 183.878ZM77.4099 188.685L77.1485 185.696L73.1637 186.045L73.4251 189.034L77.4099 188.685ZM80.513 190.421L85.4342 189.991L85.0856 186.006L80.1644 186.436L80.513 190.421ZM78.0849 185.614L78.3463 188.603L82.3311 188.254L82.0696 185.266L78.0849 185.614ZM84.8241 183.017L79.9029 183.448L80.2516 187.433L85.1727 187.002L84.8241 183.017ZM87.2523 187.824L86.9908 184.835L83.006 185.184L83.2675 188.172L87.2523 187.824ZM90.3554 189.56L95.2765 189.129L94.9279 185.145L90.0067 185.575L90.3554 189.56ZM87.9272 184.753L88.1887 187.742L92.1735 187.393L91.912 184.405L87.9272 184.753ZM94.6665 182.156L89.7453 182.587L90.0939 186.571L95.0151 186.141L94.6665 182.156ZM97.0946 186.963L96.8332 183.974L92.8484 184.323L93.1098 187.311L97.0946 186.963ZM100.198 188.699L105.119 188.268L104.77 184.284L99.8491 184.714L100.198 188.699ZM97.7696 183.892L98.031 186.881L102.016 186.532L101.754 183.544L97.7696 183.892ZM104.509 181.295L99.5876 181.726L99.9363 185.71L104.857 185.28L104.509 181.295ZM106.937 186.102L106.676 183.113L102.691 183.462L102.952 186.45L106.937 186.102ZM110.04 187.838L114.961 187.407L114.613 183.422L109.691 183.853L110.04 187.838ZM107.612 183.031L107.873 186.02L111.858 185.671L111.597 182.683L107.612 183.031ZM114.351 180.434L109.43 180.864L109.779 184.849L114.7 184.419L114.351 180.434ZM116.779 185.241L116.518 182.252L112.533 182.601L112.795 185.589L116.779 185.241ZM119.882 186.977L124.804 186.546L124.455 182.561L119.534 182.992L119.882 186.977ZM117.454 182.17L117.716 185.159L121.7 184.81L121.439 181.821L117.454 182.17ZM124.193 179.573L119.272 180.003L119.621 183.988L124.542 183.558L124.193 179.573ZM126.622 184.379L126.36 181.391L122.375 181.74L122.637 184.728L126.622 184.379Z" fill="#0E3E53" mask="url(#path-1-inside-1_5074_50327)"/>
</g>
<g opacity="0.5" filter="url(#filter1_f_5074_50327)">
<path d="M48.1164 103.652L28.3066 84.8923L22.7005 20.8144L24.2571 15.6591L109.93 8.16367L112.358 12.9703L117.964 77.0483L101.713 98.9634L106.758 156.627L116.371 167.662L120.122 210.545L133.562 232.389L132.061 249.654L44.3962 257.323L40.9163 240.495L49.3625 216.735L45.6108 173.853L53.1612 161.316L48.1164 103.652Z" fill="#646464"/>
</g>
<g filter="url(#filter2_i_5074_50327)">
<path d="M106.219 34.5877L105.435 25.622L102.77 23.8475L35.0286 29.7741L32.7124 31.9843L33.4968 40.9501L36.1616 42.7246L103.903 36.798L106.219 34.5877Z" fill="#98ACBE"/>
</g>
<path d="M106.219 34.5877L105.435 25.622L102.77 23.8475L35.0286 29.7741L32.7124 31.9843L33.4968 40.9501L36.1616 42.7246L103.903 36.798L106.219 34.5877Z" stroke="#808080"/>
<g filter="url(#filter3_i_5074_50327)">
<path d="M83.2937 53.6583L82.5093 44.6926L79.8445 42.9181L36.51 46.7094L34.1938 48.9196L34.9782 57.8854L37.643 59.6599L80.9775 55.8686L83.2937 53.6583Z" fill="#98ACBE"/>
</g>
<path d="M83.2937 53.6583L82.5093 44.6926L79.8445 42.9181L36.51 46.7094L34.1938 48.9196L34.9782 57.8854L37.643 59.6599L80.9775 55.8686L83.2937 53.6583Z" stroke="#808080"/>
<g filter="url(#filter4_i_5074_50327)">
<path d="M107.203 51.5666L106.418 42.6008L103.754 40.8263L89.8069 42.0465L87.4907 44.2568L88.2751 53.2225L90.9399 54.997L104.887 53.7769L107.203 51.5666Z" fill="#98ACBE"/>
</g>
<path d="M107.203 51.5666L106.418 42.6008L103.754 40.8263L89.8069 42.0465L87.4907 44.2568L88.2751 53.2225L90.9399 54.997L104.887 53.7769L107.203 51.5666Z" stroke="#808080"/>
<g opacity="0.8">
<g filter="url(#filter5_d_5074_50327)">
<path d="M31.2423 118.441L37.2195 117.919L37.3938 119.911L30.4204 120.521L31.2423 118.441Z" fill="#565656"/>
<path d="M31.2423 118.441L31.2096 118.068L30.9787 118.088L30.8935 118.304L31.2423 118.441ZM37.2195 117.919L37.593 117.886L37.5603 117.512L37.1868 117.545L37.2195 117.919ZM37.3938 119.911L37.4265 120.284L37.8 120.252L37.7673 119.878L37.3938 119.911ZM30.4204 120.521L30.0717 120.383L30.4531 120.895L30.4204 120.521ZM31.275 118.815L37.2521 118.292L37.1868 117.545L31.2096 118.068L31.275 118.815ZM36.8459 117.951L37.0202 119.944L37.7673 119.878L37.593 117.886L36.8459 117.951ZM37.3611 119.537L30.3877 120.147L30.4531 120.895L37.4265 120.284L37.3611 119.537ZM30.7692 120.659L31.591 118.579L30.8935 118.304L30.0717 120.383L30.7692 120.659Z" fill="url(#paint0_linear_5074_50327)"/>
</g>
<g filter="url(#filter6_d_5074_50327)">
<path d="M54.1542 116.437L48.177 116.96L48.3513 118.952L55.3247 118.342L54.1542 116.437Z" fill="#565656"/>
<path d="M54.1542 116.437L54.1215 116.063L54.3524 116.043L54.4737 116.241L54.1542 116.437ZM48.177 116.96L47.8035 116.993L47.7708 116.619L48.1443 116.586L48.177 116.96ZM48.3513 118.952L48.384 119.326L48.0104 119.358L47.9778 118.985L48.3513 118.952ZM55.3247 118.342L55.6442 118.146L55.3574 118.716L55.3247 118.342ZM54.1869 116.81L48.2097 117.333L48.1443 116.586L54.1215 116.063L54.1869 116.81ZM48.5506 116.927L48.7249 118.92L47.9778 118.985L47.8035 116.993L48.5506 116.927ZM48.3187 118.579L55.292 117.969L55.3574 118.716L48.384 119.326L48.3187 118.579ZM55.0052 118.538L53.8347 116.633L54.4737 116.241L55.6442 118.146L55.0052 118.538Z" fill="url(#paint1_linear_5074_50327)"/>
</g>
<g filter="url(#filter7_d_5074_50327)">
<path d="M31.6778 123.422L37.655 122.899L37.8293 124.892L30.856 125.502L31.6778 123.422Z" fill="#565656"/>
<path d="M31.6778 123.422L31.6452 123.049L31.4143 123.069L31.3291 123.285L31.6778 123.422ZM37.655 122.899L38.0286 122.867L37.9959 122.493L37.6223 122.526L37.655 122.899ZM37.8293 124.892L37.862 125.265L38.2356 125.233L38.2029 124.859L37.8293 124.892ZM30.856 125.502L30.5072 125.364L30.8886 125.876L30.856 125.502ZM31.7105 123.796L37.6877 123.273L37.6223 122.526L31.6452 123.049L31.7105 123.796ZM37.2814 122.932L37.4557 124.925L38.2029 124.859L38.0286 122.867L37.2814 122.932ZM37.7966 124.518L30.8233 125.128L30.8886 125.876L37.862 125.265L37.7966 124.518ZM31.2047 125.64L32.0266 123.56L31.3291 123.285L30.5072 125.364L31.2047 125.64Z" fill="url(#paint2_linear_5074_50327)"/>
</g>
<g filter="url(#filter8_d_5074_50327)">
<path d="M54.5907 121.418L48.6136 121.941L48.7879 123.933L55.7612 123.323L54.5907 121.418Z" fill="#565656"/>
<path d="M54.5907 121.418L54.558 121.044L54.7889 121.024L54.9102 121.222L54.5907 121.418ZM48.6136 121.941L48.24 121.973L48.2073 121.6L48.5809 121.567L48.6136 121.941ZM48.7879 123.933L48.8205 124.307L48.447 124.339L48.4143 123.966L48.7879 123.933ZM55.7612 123.323L56.0807 123.127L55.7939 123.697L55.7612 123.323ZM54.6234 121.791L48.6462 122.314L48.5809 121.567L54.558 121.044L54.6234 121.791ZM48.9871 121.908L49.1614 123.9L48.4143 123.966L48.24 121.973L48.9871 121.908ZM48.7552 123.56L55.7285 122.95L55.7939 123.697L48.8205 124.307L48.7552 123.56ZM55.4417 123.519L54.2712 121.614L54.9102 121.222L56.0807 123.127L55.4417 123.519Z" fill="url(#paint3_linear_5074_50327)"/>
</g>
<g filter="url(#filter9_d_5074_50327)">
<path d="M32.1134 128.403L38.0906 127.881L38.2649 129.873L31.2915 130.483L32.1134 128.403Z" fill="#565656"/>
<path d="M32.1134 128.403L32.0807 128.03L31.8498 128.05L31.7646 128.266L32.1134 128.403ZM38.0906 127.881L38.4641 127.848L38.4314 127.474L38.0579 127.507L38.0906 127.881ZM38.2649 129.873L38.2975 130.246L38.6711 130.214L38.6384 129.84L38.2649 129.873ZM31.2915 130.483L30.9427 130.345L31.3242 130.857L31.2915 130.483ZM32.1461 128.777L38.1232 128.254L38.0579 127.507L32.0807 128.03L32.1461 128.777ZM37.717 127.913L37.8913 129.906L38.6384 129.84L38.4641 127.848L37.717 127.913ZM38.2322 129.499L31.2588 130.109L31.3242 130.857L38.2975 130.246L38.2322 129.499ZM31.6402 130.621L32.4621 128.541L31.7646 128.266L30.9427 130.345L31.6402 130.621Z" fill="url(#paint4_linear_5074_50327)"/>
</g>
<g filter="url(#filter10_d_5074_50327)">
<path d="M32.5489 133.384L38.5261 132.861L38.7004 134.854L31.727 135.464L32.5489 133.384Z" fill="#565656"/>
<path d="M32.5489 133.384L32.5162 133.011L32.2854 133.031L32.2002 133.247L32.5489 133.384ZM38.5261 132.861L38.8997 132.829L38.867 132.455L38.4934 132.488L38.5261 132.861ZM38.7004 134.854L38.7331 135.227L39.1067 135.195L39.074 134.821L38.7004 134.854ZM31.727 135.464L31.3783 135.326L31.7597 135.838L31.727 135.464ZM32.5816 133.758L38.5588 133.235L38.4934 132.488L32.5162 133.011L32.5816 133.758ZM38.1525 132.894L38.3268 134.887L39.074 134.821L38.8997 132.829L38.1525 132.894ZM38.6677 134.48L31.6944 135.09L31.7597 135.838L38.7331 135.227L38.6677 134.48ZM32.0758 135.602L32.8977 133.522L32.2002 133.247L31.3783 135.326L32.0758 135.602Z" fill="url(#paint5_linear_5074_50327)"/>
</g>
<g filter="url(#filter11_d_5074_50327)">
<path d="M32.9855 138.365L38.9626 137.842L39.1369 139.835L32.1636 140.445L32.9855 138.365Z" fill="#565656"/>
<path d="M32.9855 138.365L32.9528 137.992L32.7219 138.012L32.6367 138.228L32.9855 138.365ZM38.9626 137.842L39.3362 137.81L39.3035 137.436L38.9299 137.469L38.9626 137.842ZM39.1369 139.835L39.1696 140.208L39.5432 140.176L39.5105 139.802L39.1369 139.835ZM32.1636 140.445L31.8148 140.307L32.1963 140.818L32.1636 140.445ZM33.0181 138.739L38.9953 138.216L38.9299 137.469L32.9528 137.992L33.0181 138.739ZM38.589 137.875L38.7634 139.867L39.5105 139.802L39.3362 137.81L38.589 137.875ZM39.1042 139.461L32.1309 140.071L32.1963 140.818L39.1696 140.208L39.1042 139.461ZM32.5123 140.583L33.3342 138.503L32.6367 138.228L31.8148 140.307L32.5123 140.583Z" fill="url(#paint6_linear_5074_50327)"/>
</g>
<g filter="url(#filter12_d_5074_50327)">
<path d="M33.421 143.346L39.3982 142.823L39.5725 144.816L32.5991 145.426L33.421 143.346Z" fill="#565656"/>
<path d="M33.421 143.346L33.3883 142.973L33.1574 142.993L33.0722 143.208L33.421 143.346ZM39.3982 142.823L39.7717 142.791L39.7391 142.417L39.3655 142.45L39.3982 142.823ZM39.5725 144.816L39.6052 145.189L39.9787 145.157L39.9461 144.783L39.5725 144.816ZM32.5991 145.426L32.2504 145.288L32.6318 145.799L32.5991 145.426ZM33.4537 143.72L39.4309 143.197L39.3655 142.45L33.3883 142.973L33.4537 143.72ZM39.0246 142.856L39.1989 144.848L39.9461 144.783L39.7717 142.791L39.0246 142.856ZM39.5398 144.442L32.5664 145.052L32.6318 145.799L39.6052 145.189L39.5398 144.442ZM32.9479 145.564L33.7697 143.484L33.0722 143.208L32.2504 145.288L32.9479 145.564Z" fill="url(#paint7_linear_5074_50327)"/>
</g>
<g filter="url(#filter13_d_5074_50327)">
<path d="M55.0263 126.399L49.0491 126.922L49.2234 128.914L56.1968 128.304L55.0263 126.399Z" fill="#565656"/>
<path d="M55.0263 126.399L54.9936 126.025L55.2245 126.005L55.3458 126.203L55.0263 126.399ZM49.0491 126.922L48.6755 126.954L48.6428 126.581L49.0164 126.548L49.0491 126.922ZM49.2234 128.914L49.2561 129.288L48.8825 129.32L48.8498 128.947L49.2234 128.914ZM56.1968 128.304L56.5163 128.108L56.2295 128.678L56.1968 128.304ZM55.0589 126.772L49.0818 127.295L49.0164 126.548L54.9936 126.025L55.0589 126.772ZM49.4227 126.889L49.597 128.882L48.8498 128.947L48.6755 126.954L49.4227 126.889ZM49.1907 128.541L56.1641 127.931L56.2295 128.678L49.2561 129.288L49.1907 128.541ZM55.8773 128.5L54.7067 126.595L55.3458 126.203L56.5163 128.108L55.8773 128.5Z" fill="url(#paint8_linear_5074_50327)"/>
</g>
<g filter="url(#filter14_d_5074_50327)">
<path d="M33.1324 117.105L34.4669 115.148L50.9042 113.71L52.0601 115.449L54.6167 144.671L53.7803 146.584L36.845 148.066L35.689 146.327L33.1324 117.105Z" fill="#565656"/>
<path d="M33.1324 117.105L34.4669 115.148L50.9042 113.71L52.0601 115.449L54.6167 144.671L53.7803 146.584L36.845 148.066L35.689 146.327L33.1324 117.105Z" stroke="url(#paint9_linear_5074_50327)"/>
</g>
</g>
<g opacity="0.8">
<g filter="url(#filter15_d_5074_50327)">
<path d="M121.896 110.51L115.919 111.033L116.094 113.026L123.067 112.416L121.896 110.51Z" fill="#565656"/>
<path d="M121.896 110.51L121.864 110.137L122.095 110.117L122.216 110.314L121.896 110.51ZM115.919 111.033L115.546 111.066L115.513 110.692L115.887 110.66L115.919 111.033ZM116.094 113.026L116.126 113.399L115.753 113.432L115.72 113.058L116.094 113.026ZM123.067 112.416L123.386 112.219L123.1 112.789L123.067 112.416ZM121.929 110.884L115.952 111.407L115.887 110.66L121.864 110.137L121.929 110.884ZM116.293 111.001L116.467 112.993L115.72 113.058L115.546 111.066L116.293 111.001ZM116.061 112.652L123.034 112.042L123.1 112.789L116.126 113.399L116.061 112.652ZM122.747 112.612L121.577 110.707L122.216 110.314L123.386 112.219L122.747 112.612Z" fill="url(#paint10_linear_5074_50327)"/>
</g>
<g filter="url(#filter16_d_5074_50327)">
<path d="M98.9835 112.515L104.961 111.992L105.135 113.984L98.1616 114.594L98.9835 112.515Z" fill="#565656"/>
<path d="M98.9835 112.515L98.9508 112.141L98.7199 112.162L98.6347 112.377L98.9835 112.515ZM104.961 111.992L105.334 111.959L105.302 111.586L104.928 111.618L104.961 111.992ZM105.135 113.984L105.168 114.358L105.541 114.325L105.509 113.952L105.135 113.984ZM98.1616 114.594L97.8129 114.457L98.1943 114.968L98.1616 114.594ZM99.0162 112.888L104.993 112.366L104.928 111.618L98.9508 112.141L99.0162 112.888ZM104.587 112.025L104.761 114.017L105.509 113.952L105.334 111.959L104.587 112.025ZM105.102 113.611L98.1289 114.221L98.1943 114.968L105.168 114.358L105.102 113.611ZM98.5104 114.732L99.3322 112.653L98.6347 112.377L97.8129 114.457L98.5104 114.732Z" fill="url(#paint11_linear_5074_50327)"/>
</g>
<g filter="url(#filter17_d_5074_50327)">
<path d="M122.332 115.491L116.355 116.014L116.529 118.007L123.502 117.397L122.332 115.491Z" fill="#565656"/>
<path d="M122.332 115.491L122.299 115.118L122.53 115.097L122.651 115.295L122.332 115.491ZM116.355 116.014L115.981 116.047L115.949 115.673L116.322 115.641L116.355 116.014ZM116.529 118.007L116.562 118.38L116.188 118.413L116.156 118.039L116.529 118.007ZM123.502 117.397L123.822 117.2L123.535 117.77L123.502 117.397ZM122.365 115.865L116.387 116.388L116.322 115.641L122.299 115.118L122.365 115.865ZM116.728 115.982L116.903 117.974L116.156 118.039L115.981 116.047L116.728 115.982ZM116.496 117.633L123.47 117.023L123.535 117.77L116.562 118.38L116.496 117.633ZM123.183 117.593L122.012 115.688L122.651 115.295L123.822 117.2L123.183 117.593Z" fill="url(#paint12_linear_5074_50327)"/>
</g>
<g filter="url(#filter18_d_5074_50327)">
<path d="M99.419 117.496L105.396 116.973L105.571 118.965L98.5972 119.575L99.419 117.496Z" fill="#565656"/>
<path d="M99.419 117.496L99.3864 117.122L99.1555 117.142L99.0703 117.358L99.419 117.496ZM105.396 116.973L105.77 116.94L105.737 116.567L105.364 116.599L105.396 116.973ZM105.571 118.965L105.603 119.339L105.977 119.306L105.944 118.933L105.571 118.965ZM98.5972 119.575L98.2484 119.438L98.6298 119.949L98.5972 119.575ZM99.4517 117.869L105.429 117.346L105.364 116.599L99.3864 117.122L99.4517 117.869ZM105.023 117.006L105.197 118.998L105.944 118.933L105.77 116.94L105.023 117.006ZM105.538 118.592L98.5645 119.202L98.6298 119.949L105.603 119.339L105.538 118.592ZM98.9459 119.713L99.7678 117.634L99.0703 117.358L98.2484 119.438L98.9459 119.713Z" fill="url(#paint13_linear_5074_50327)"/>
</g>
<g filter="url(#filter19_d_5074_50327)">
<path d="M122.767 120.472L116.79 120.995L116.965 122.988L123.938 122.378L122.767 120.472Z" fill="#565656"/>
<path d="M122.767 120.472L122.735 120.099L122.966 120.079L123.087 120.276L122.767 120.472ZM116.79 120.995L116.417 121.028L116.384 120.654L116.758 120.622L116.79 120.995ZM116.965 122.988L116.997 123.361L116.624 123.394L116.591 123.02L116.965 122.988ZM123.938 122.378L124.258 122.181L123.971 122.751L123.938 122.378ZM122.8 120.846L116.823 121.369L116.758 120.622L122.735 120.099L122.8 120.846ZM117.164 120.963L117.338 122.955L116.591 123.02L116.417 121.028L117.164 120.963ZM116.932 122.614L123.905 122.004L123.971 122.751L116.997 123.361L116.932 122.614ZM123.618 122.574L122.448 120.669L123.087 120.276L124.258 122.181L123.618 122.574Z" fill="url(#paint14_linear_5074_50327)"/>
</g>
<g filter="url(#filter20_d_5074_50327)">
<path d="M123.203 125.453L117.226 125.976L117.4 127.969L124.374 127.358L123.203 125.453Z" fill="#565656"/>
<path d="M123.203 125.453L123.17 125.08L123.401 125.059L123.523 125.257L123.203 125.453ZM117.226 125.976L116.852 126.009L116.82 125.635L117.193 125.603L117.226 125.976ZM117.4 127.969L117.433 128.342L117.059 128.375L117.027 128.001L117.4 127.969ZM124.374 127.358L124.693 127.162L124.406 127.732L124.374 127.358ZM123.236 125.827L117.259 126.35L117.193 125.603L123.17 125.08L123.236 125.827ZM117.599 125.943L117.774 127.936L117.027 128.001L116.852 126.009L117.599 125.943ZM117.367 127.595L124.341 126.985L124.406 127.732L117.433 128.342L117.367 127.595ZM124.054 127.555L122.884 125.65L123.523 125.257L124.693 127.162L124.054 127.555Z" fill="url(#paint15_linear_5074_50327)"/>
</g>
<g filter="url(#filter21_d_5074_50327)">
<path d="M123.64 130.434L117.662 130.957L117.837 132.95L124.81 132.339L123.64 130.434Z" fill="#565656"/>
<path d="M123.64 130.434L123.607 130.061L123.838 130.04L123.959 130.238L123.64 130.434ZM117.662 130.957L117.289 130.99L117.256 130.616L117.63 130.584L117.662 130.957ZM117.837 132.95L117.869 133.323L117.496 133.356L117.463 132.982L117.837 132.95ZM124.81 132.339L125.13 132.143L124.843 132.713L124.81 132.339ZM123.672 130.808L117.695 131.331L117.63 130.584L123.607 130.061L123.672 130.808ZM118.036 130.924L118.21 132.917L117.463 132.982L117.289 130.99L118.036 130.924ZM117.804 132.576L124.777 131.966L124.843 132.713L117.869 133.323L117.804 132.576ZM124.491 132.536L123.32 130.631L123.959 130.238L125.13 132.143L124.491 132.536Z" fill="url(#paint16_linear_5074_50327)"/>
</g>
<g filter="url(#filter22_d_5074_50327)">
<path d="M124.075 135.415L118.098 135.938L118.272 137.93L125.246 137.32L124.075 135.415Z" fill="#565656"/>
<path d="M124.075 135.415L124.042 135.042L124.273 135.021L124.395 135.219L124.075 135.415ZM118.098 135.938L117.724 135.971L117.692 135.597L118.065 135.565L118.098 135.938ZM118.272 137.93L118.305 138.304L117.931 138.337L117.899 137.963L118.272 137.93ZM125.246 137.32L125.565 137.124L125.278 137.694L125.246 137.32ZM124.108 135.789L118.131 136.312L118.065 135.565L124.042 135.042L124.108 135.789ZM118.471 135.905L118.646 137.898L117.899 137.963L117.724 135.971L118.471 135.905ZM118.24 137.557L125.213 136.947L125.278 137.694L118.305 138.304L118.24 137.557ZM124.926 137.517L123.756 135.611L124.395 135.219L125.565 137.124L124.926 137.517Z" fill="url(#paint17_linear_5074_50327)"/>
</g>
<g filter="url(#filter23_d_5074_50327)">
<path d="M99.8556 122.477L105.833 121.954L106.007 123.946L99.0337 124.556L99.8556 122.477Z" fill="#565656"/>
<path d="M99.8556 122.477L99.8229 122.103L99.592 122.123L99.5068 122.339L99.8556 122.477ZM105.833 121.954L106.206 121.921L106.174 121.548L105.8 121.58L105.833 121.954ZM106.007 123.946L106.04 124.32L106.413 124.287L106.381 123.914L106.007 123.946ZM99.0337 124.556L98.6849 124.419L99.0664 124.93L99.0337 124.556ZM99.8883 122.85L105.865 122.327L105.8 121.58L99.8229 122.103L99.8883 122.85ZM105.459 121.987L105.633 123.979L106.381 123.914L106.206 121.921L105.459 121.987ZM105.974 123.573L99.001 124.183L99.0664 124.93L106.04 124.32L105.974 123.573ZM99.3824 124.694L100.204 122.615L99.5068 122.339L98.6849 124.419L99.3824 124.694Z" fill="url(#paint18_linear_5074_50327)"/>
</g>
<g filter="url(#filter24_d_5074_50327)">
<path d="M119.802 109.522L118.148 107.827L101.711 109.265L100.875 111.178L103.431 140.4L104.587 142.139L121.523 140.658L122.359 138.744L119.802 109.522Z" fill="#565656"/>
<path d="M119.802 109.522L118.148 107.827L101.711 109.265L100.875 111.178L103.431 140.4L104.587 142.139L121.523 140.658L122.359 138.744L119.802 109.522Z" stroke="url(#paint19_linear_5074_50327)"/>
</g>
</g>
<path fill-rule="evenodd" clip-rule="evenodd" d="M22.9121 11.7615L79.6952 6.7936L80.3925 14.7632C80.585 16.9639 82.5251 18.5919 84.7259 18.3993L85.7221 18.3122C87.9228 18.1196 89.5507 16.1795 89.3582 13.9788L88.661 6.0092L110.704 4.0807L116.892 74.8105L110.266 98.0616L115.495 157.824L125.176 169.502L128.857 211.575L130.781 233.567L132.58 254.126L98.528 257.105C98.5355 256.774 98.525 256.44 98.4956 256.104C98.0623 251.152 93.6971 247.489 88.7454 247.922C83.7938 248.356 80.1308 252.721 80.5641 257.673C80.5935 258.009 80.6412 258.34 80.7059 258.664L44.7882 261.806L42.9896 241.248L41.0655 219.256L37.3846 177.183L44.8911 164.001L39.6626 104.239L29.1002 82.4913L22.9121 11.7615ZM120.798 247.126C120.654 245.475 121.875 244.02 123.525 243.876C125.176 243.731 126.631 244.952 126.775 246.603C126.92 248.253 125.699 249.709 124.048 249.853C122.397 249.997 120.942 248.776 120.798 247.126Z" fill="#2E2E2E"/>
<path fill-rule="evenodd" clip-rule="evenodd" d="M22.9121 11.7615L79.6952 6.7936L80.3925 14.7632C80.585 16.9639 82.5251 18.5919 84.7259 18.3993L85.7221 18.3122C87.9228 18.1196 89.5507 16.1795 89.3582 13.9788L88.661 6.0092L110.704 4.0807L116.892 74.8105L110.266 98.0616L115.495 157.824L125.176 169.502L128.857 211.575L130.781 233.567L132.58 254.126L98.528 257.105C98.5355 256.774 98.525 256.44 98.4956 256.104C98.0623 251.152 93.6971 247.489 88.7454 247.922C83.7938 248.356 80.1308 252.721 80.5641 257.673C80.5935 258.009 80.6412 258.34 80.7059 258.664L44.7882 261.806L42.9896 241.248L41.0655 219.256L37.3846 177.183L44.8911 164.001L39.6626 104.239L29.1002 82.4913L22.9121 11.7615ZM120.798 247.126C120.654 245.475 121.875 244.02 123.525 243.876C125.176 243.731 126.631 244.952 126.775 246.603C126.92 248.253 125.699 249.709 124.048 249.853C122.397 249.997 120.942 248.776 120.798 247.126Z" fill="url(#paint20_diamond_5074_50327)" fill-opacity="0.2"/>
<path d="M79.6952 6.7936L80.6914 6.70644L80.6042 5.71025L79.6081 5.7974L79.6952 6.7936ZM22.9121 11.7615L22.825 10.7653L21.8288 10.8524L21.9159 11.8486L22.9121 11.7615ZM88.661 6.0092L88.5738 5.013L87.5776 5.10016L87.6648 6.09635L88.661 6.0092ZM110.704 4.0807L111.7 3.99355L111.613 2.99735L110.617 3.08451L110.704 4.0807ZM116.892 74.8105L117.853 75.0846L117.904 74.9072L117.888 74.7234L116.892 74.8105ZM110.266 98.0616L109.304 97.7875L109.254 97.9649L109.27 98.1487L110.266 98.0616ZM115.495 157.824L114.498 157.911L114.526 158.222L114.725 158.462L115.495 157.824ZM125.176 169.502L126.172 169.415L126.145 169.104L125.946 168.864L125.176 169.502ZM132.58 254.126L132.667 255.122L133.663 255.035L133.576 254.038L132.58 254.126ZM98.528 257.105L97.5283 257.082L97.5028 258.198L98.6152 258.101L98.528 257.105ZM80.7059 258.664L80.7931 259.66L81.9055 259.563L81.6865 258.468L80.7059 258.664ZM44.7882 261.806L43.792 261.894L43.8792 262.89L44.8754 262.803L44.7882 261.806ZM37.3846 177.183L36.5156 176.688L36.3612 176.959L36.3884 177.27L37.3846 177.183ZM44.8911 164.001L45.7601 164.496L45.9145 164.224L45.8873 163.914L44.8911 164.001ZM39.6626 104.239L40.6588 104.151L40.6427 103.968L40.5621 103.802L39.6626 104.239ZM29.1002 82.4913L28.104 82.5785L28.1201 82.7622L28.2007 82.9282L29.1002 82.4913ZM79.6081 5.7974L22.825 10.7653L22.9993 12.7577L79.7824 7.78979L79.6081 5.7974ZM81.3886 14.676L80.6914 6.70644L78.699 6.88075L79.3963 14.8503L81.3886 14.676ZM84.6387 17.4031C82.9881 17.5475 81.5331 16.3265 81.3886 14.676L79.3963 14.8503C79.6369 17.6012 82.0621 19.6362 84.813 19.3955L84.6387 17.4031ZM85.6349 17.316L84.6387 17.4031L84.813 19.3955L85.8092 19.3083L85.6349 17.316ZM88.362 14.0659C88.5064 15.7165 87.2854 17.1716 85.6349 17.316L85.8092 19.3083C88.5601 19.0677 90.5951 16.6425 90.3544 13.8916L88.362 14.0659ZM87.6648 6.09635L88.362 14.0659L90.3544 13.8916L89.6572 5.92204L87.6648 6.09635ZM110.617 3.08451L88.5738 5.013L88.7481 7.00539L110.791 5.0769L110.617 3.08451ZM117.888 74.7234L111.7 3.99355L109.708 4.16786L115.896 74.8977L117.888 74.7234ZM111.228 98.3356L117.853 75.0846L115.93 74.5365L109.304 97.7875L111.228 98.3356ZM116.491 157.737L111.262 97.9744L109.27 98.1487L114.498 157.911L116.491 157.737ZM125.946 168.864L116.265 157.186L114.725 158.462L124.406 170.141L125.946 168.864ZM129.853 211.488L126.172 169.415L124.18 169.59L127.861 211.662L129.853 211.488ZM131.777 233.48L129.853 211.488L127.861 211.662L129.785 233.655L131.777 233.48ZM133.576 254.038L131.777 233.48L129.785 233.655L131.584 254.213L133.576 254.038ZM98.6152 258.101L132.667 255.122L132.493 253.129L98.4408 256.109L98.6152 258.101ZM97.4994 256.191C97.5256 256.491 97.535 256.788 97.5283 257.082L99.5277 257.128C99.5361 256.761 99.5244 256.39 99.4918 256.017L97.4994 256.191ZM88.8326 248.919C93.234 248.534 97.1143 251.789 97.4994 256.191L99.4918 256.017C99.0104 250.515 94.1601 246.445 88.6583 246.926L88.8326 248.919ZM81.5603 257.585C81.1752 253.184 84.4311 249.304 88.8326 248.919L88.6583 246.926C83.1564 247.408 79.0865 252.258 79.5679 257.76L81.5603 257.585ZM81.6865 258.468C81.6289 258.18 81.5865 257.885 81.5603 257.585L79.5679 257.76C79.6005 258.133 79.6534 258.5 79.7253 258.86L81.6865 258.468ZM44.8754 262.803L80.7931 259.66L80.6188 257.668L44.701 260.81L44.8754 262.803ZM41.9934 241.335L43.792 261.894L45.7844 261.719L43.9858 241.161L41.9934 241.335ZM40.0693 219.343L41.9934 241.335L43.9858 241.161L42.0617 219.169L40.0693 219.343ZM36.3884 177.27L40.0693 219.343L42.0617 219.169L38.3808 177.096L36.3884 177.27ZM44.0221 163.506L36.5156 176.688L38.2536 177.678L45.7601 164.496L44.0221 163.506ZM38.6664 104.326L43.8949 164.088L45.8873 163.914L40.6588 104.151L38.6664 104.326ZM28.2007 82.9282L38.7631 104.675L40.5621 103.802L29.9997 82.0544L28.2007 82.9282ZM21.9159 11.8486L28.104 82.5785L30.0964 82.4041L23.9083 11.6743L21.9159 11.8486ZM123.438 242.88C121.237 243.072 119.609 245.012 119.802 247.213L121.794 247.039C121.698 245.938 122.512 244.968 123.612 244.872L123.438 242.88ZM127.771 246.516C127.579 244.315 125.639 242.687 123.438 242.88L123.612 244.872C124.713 244.776 125.683 245.59 125.779 246.69L127.771 246.516ZM124.135 250.849C126.336 250.657 127.964 248.716 127.771 246.516L125.779 246.69C125.875 247.79 125.061 248.76 123.961 248.857L124.135 250.849ZM119.802 247.213C119.994 249.414 121.934 251.042 124.135 250.849L123.961 248.857C122.86 248.953 121.89 248.139 121.794 247.039L119.802 247.213Z" fill="url(#paint21_radial_5074_50327)"/>
<g style="mix-blend-mode:overlay">
<path d="M36.0615 58.7944L35.1272 48.115L37.797 47.8814L38.1474 51.8862L40.8173 51.6526L40.4669 47.6478L43.1367 47.4142L43.4871 51.419L42.269 52.8708L43.7207 54.0889L44.0711 58.0937L41.4012 58.3273L41.0508 54.3225L38.381 54.5561L38.7314 58.5608L36.0615 58.7944ZM50.6957 50.7884L50.5789 49.4534L47.9091 49.687L48.0259 51.0219L50.6957 50.7884ZM45.94 57.9302L45.0056 47.2507L53.0152 46.55L53.4226 51.2066L52.2666 52.377L53.5992 53.2246L53.9495 57.2294L51.2797 57.463L50.9293 53.4582L48.2594 53.6918L48.6098 57.6966L45.94 57.9302ZM55.8184 57.0659L54.8841 46.3865L57.554 46.1529L58.2547 54.1625L60.9246 53.9289L60.2238 45.9193L62.8937 45.6857L63.828 56.3652L55.8184 57.0659ZM65.6969 56.2017L64.7626 45.5222L72.7721 44.8215L73.7065 55.5009L71.0366 55.7345L70.3359 47.7249L67.666 47.9585L68.3668 55.9681L65.6969 56.2017ZM75.5754 55.3374L74.641 44.658L77.3109 44.4244L77.6613 48.4292L80.3311 48.1956L79.9808 44.1908L82.6506 43.9572L83.001 47.962L81.7829 49.4137L83.2346 50.6319L83.5849 54.6367L80.9151 54.8702L80.5647 50.8655L77.8949 51.099L78.2452 55.1038L75.5754 55.3374ZM85.4538 54.4732L84.5195 43.7937L92.5291 43.093L92.7627 45.7628L87.423 46.23L87.5397 47.5649L91.5445 47.2146L91.7781 49.8844L87.7733 50.2348L87.8901 51.5697L93.2298 51.1025L93.4634 53.7724L85.4538 54.4732ZM100.088 46.4671L99.9713 45.1322L97.3014 45.3657L97.4182 46.7007L100.088 46.4671ZM95.3323 53.6089L94.398 42.9295L102.408 42.2287L102.815 46.8853L101.659 48.0558L102.992 48.9034L103.342 52.9082L100.672 53.1417L100.322 49.1369L97.6518 49.3705L98.0022 53.3753L95.3323 53.6089Z" fill="white"/>
</g>
<g style="mix-blend-mode:overlay">
<rect x="36.3486" y="61.7808" width="27.9474" height="2.21053" transform="rotate(-5 36.3486 61.7808)" fill="#D9D9D9"/>
</g>
<g style="mix-blend-mode:overlay">
<rect x="65.9189" y="59.1937" width="8.05263" height="2.21053" transform="rotate(-5 65.9189 59.1937)" fill="#D9D9D9"/>
</g>
<g style="mix-blend-mode:overlay">
<rect x="75.8379" y="58.3342" width="18.2244" height="2.14404" transform="rotate(-5 75.8379 58.3342)" fill="#D9D9D9"/>
</g>
<g style="mix-blend-mode:overlay">
<rect x="95.4902" y="56.6065" width="8.21053" height="2.21053" transform="rotate(-5 95.4902 56.6065)" fill="#D9D9D9"/>
</g>
<rect x="26.0944" y="7.96972" width="8.14286" height="11" transform="rotate(-5 26.0944 7.96972)" fill="url(#paint22_linear_5074_50327)" stroke="#C08C06"/>
<rect x="37.195" y="6.99853" width="8.14286" height="11" transform="rotate(-5 37.195 6.99853)" fill="url(#paint23_linear_5074_50327)" stroke="#C08C06"/>
<rect x="48.2956" y="6.0274" width="8.14286" height="11" transform="rotate(-5 48.2956 6.0274)" fill="url(#paint24_linear_5074_50327)" stroke="#C08C06"/>
<rect x="59.3962" y="5.0562" width="8.14286" height="11" transform="rotate(-5 59.3962 5.0562)" fill="url(#paint25_linear_5074_50327)" stroke="#C08C06"/>
<rect x="70.4958" y="4.08507" width="8.14286" height="11" transform="rotate(-5 70.4958 4.08507)" fill="url(#paint26_linear_5074_50327)" stroke="#C08C06"/>
<rect x="88.57" y="2.50384" width="8.14286" height="11" transform="rotate(-5 88.57 2.50384)" fill="url(#paint27_linear_5074_50327)" stroke="#C08C06"/>
<rect x="99.6706" y="1.53264" width="8.14286" height="11" transform="rotate(-5 99.6706 1.53264)" fill="url(#paint28_linear_5074_50327)" stroke="#C08C06"/>
<g style="mix-blend-mode:overlay">
<path d="M68.6853 236.628L68.1406 230.402L73.1215 229.966L73.0126 228.721L68.0316 229.156L67.8137 226.666L75.2852 226.012L75.8299 232.238L70.8489 232.674L70.9579 233.919L75.9388 233.484L76.1567 235.974L68.6853 236.628ZM82.6632 232.895L82.2274 227.914L79.7369 228.132L80.1727 233.113L82.6632 232.895ZM77.9001 235.822L77.0285 225.86L84.5 225.206L85.3715 235.168L77.9001 235.822ZM87.1149 235.015L86.5702 228.789L91.5511 228.353L91.4422 227.108L86.4612 227.544L86.2433 225.053L93.7148 224.4L94.2595 230.626L89.2785 231.062L89.3875 232.307L94.3684 231.871L94.5863 234.362L87.1149 235.015ZM96.3297 234.209L95.785 227.983L100.766 227.547L100.657 226.302L95.676 226.738L95.4581 224.247L102.93 223.594L103.474 229.82L98.4933 230.256L98.6023 231.501L103.583 231.065L103.801 233.556L96.3297 234.209Z" fill="white"/>
</g>
<g style="mix-blend-mode:overlay">
<path d="M55.2741 186.606L55.0563 184.116L60.0372 183.68L59.9283 182.435L54.9473 182.871L54.4026 176.644L61.874 175.991L62.0919 178.481L57.111 178.917L57.2199 180.162L62.2009 179.726L62.7456 185.953L55.2741 186.606ZM64.4889 185.8L63.6174 175.838L71.0888 175.184L71.3067 177.675L66.3258 178.111L66.4347 179.356L70.1704 179.029L70.3883 181.52L66.6526 181.846L66.7615 183.092L71.7425 182.656L71.9604 185.146L64.4889 185.8ZM78.14 178.332L78.0311 177.087L75.5406 177.305L75.6495 178.55L78.14 178.332ZM73.7037 184.994L72.8322 175.032L80.3036 174.378L81.1752 184.34L78.6847 184.558L78.3579 180.822L75.8674 181.04L76.1942 184.776L73.7037 184.994ZM82.9185 184.188L82.7007 181.697L87.6816 181.261L87.5727 180.016L82.5917 180.452L82.047 174.226L89.5184 173.572L89.7363 176.063L84.7554 176.498L84.8643 177.744L89.8453 177.308L90.39 183.534L82.9185 184.188ZM96.8964 180.455L96.4607 175.474L93.9702 175.692L94.4059 180.673L96.8964 180.455ZM92.1333 183.382L91.2618 173.42L98.7333 172.766L99.6048 182.728L92.1333 183.382ZM101.348 182.575L100.477 172.613L107.948 171.96L108.82 181.922L106.329 182.14L105.675 174.668L103.185 174.886L103.839 182.357L101.348 182.575Z" fill="white"/>
</g>
<g style="mix-blend-mode:overlay">
<path d="M87.6628 206.86L87.4013 203.872L81.4242 204.395L81.6856 207.383L87.6628 206.86ZM76.2314 213.884L74.1396 189.975L92.0712 188.406L92.5941 194.383L80.6398 195.429L80.9012 198.418L92.8556 197.372L94.1629 212.315L76.2314 213.884Z" fill="white"/>
</g>
<g opacity="0.5">
<g style="mix-blend-mode:overlay">
<path d="M55.2741 186.606L55.0563 184.116L60.0372 183.68L59.9283 182.435L54.9473 182.871L54.4026 176.644L61.874 175.991L62.0919 178.481L57.111 178.917L57.2199 180.162L62.2009 179.726L62.7456 185.953L55.2741 186.606ZM64.4889 185.8L63.6174 175.838L71.0888 175.184L71.3067 177.675L66.3258 178.111L66.4347 179.356L70.1704 179.029L70.3883 181.52L66.6526 181.846L66.7615 183.092L71.7425 182.656L71.9604 185.146L64.4889 185.8ZM78.14 178.332L78.0311 177.087L75.5406 177.305L75.6495 178.55L78.14 178.332ZM73.7037 184.994L72.8322 175.032L80.3036 174.378L81.1752 184.34L78.6847 184.558L78.3579 180.822L75.8674 181.04L76.1942 184.776L73.7037 184.994ZM82.9185 184.188L82.7007 181.697L87.6816 181.261L87.5727 180.016L82.5917 180.452L82.047 174.226L89.5184 173.572L89.7363 176.063L84.7554 176.498L84.8643 177.744L89.8453 177.308L90.39 183.534L82.9185 184.188ZM96.8964 180.455L96.4607 175.474L93.9702 175.692L94.4059 180.673L96.8964 180.455ZM92.1333 183.382L91.2618 173.42L98.7333 172.766L99.6048 182.728L92.1333 183.382ZM101.348 182.575L100.477 172.613L107.948 171.96L108.82 181.922L106.329 182.14L105.675 174.668L103.185 174.886L103.839 182.357L101.348 182.575Z" fill="white"/>
</g>
<g style="mix-blend-mode:overlay">
<path d="M87.6628 206.86L87.4013 203.872L81.4242 204.395L81.6856 207.383L87.6628 206.86ZM76.2314 213.884L74.1396 189.975L92.0712 188.406L92.5941 194.383L80.6398 195.429L80.9012 198.418L92.8556 197.372L94.1629 212.315L76.2314 213.884Z" fill="white"/>
</g>
</g>
<circle cx="50.7842" cy="255.761" r="1.5" transform="rotate(-5 50.7842 255.761)" fill="#808080"/>
<circle cx="54.7686" cy="255.412" r="1.5" transform="rotate(-5 54.7686 255.412)" fill="#808080"/>
<circle cx="58.7539" cy="255.064" r="1.5" transform="rotate(-5 58.7539 255.064)" fill="#808080"/>
<circle cx="62.7383" cy="254.715" r="1.5" transform="rotate(-5 62.7383 254.715)" fill="#808080"/>
<circle cx="66.7237" cy="254.366" r="1.5" transform="rotate(-5 66.7237 254.366)" fill="#808080"/>
<circle cx="70.708" cy="254.018" r="1.5" transform="rotate(-5 70.708 254.018)" fill="#808080"/>
<path fill-rule="evenodd" clip-rule="evenodd" d="M88.2729 246.901C86.8839 247.022 85.5323 247.416 84.2955 248.06C83.0658 248.7 81.9734 249.575 81.08 250.635C81.0696 250.647 81.0593 250.659 81.049 250.672C80.1604 251.736 79.4886 252.963 79.0718 254.285C78.6525 255.615 78.4992 257.015 78.6207 258.404C78.6651 258.911 78.7445 259.407 78.8562 259.889L80.2458 259.767L81.8871 259.624C81.7484 259.149 81.6541 258.654 81.6093 258.142C81.4267 256.055 82.104 254.091 83.3478 252.599C83.3527 252.593 83.3576 252.587 83.3626 252.582C83.3663 252.577 83.37 252.573 83.3737 252.568C84.6266 251.082 86.4449 250.072 88.5344 249.889C92.7257 249.523 96.4207 252.623 96.7874 256.814C96.8321 257.326 96.8252 257.83 96.771 258.322L98.4124 258.178L99.802 258.056C99.8283 257.562 99.8203 257.06 99.776 256.553C99.6544 255.164 99.2605 253.812 98.6166 252.575C97.979 251.351 97.1086 250.262 96.0542 249.37C96.0338 249.353 96.0132 249.336 95.9926 249.319C94.9316 248.435 93.7083 247.767 92.3912 247.352C91.0614 246.932 89.662 246.779 88.2729 246.901Z" fill="url(#paint29_radial_5074_50327)"/>
<circle cx="54.2627" cy="250.083" r="1.5" transform="rotate(-5 54.2627 250.083)" fill="#808080"/>
<circle cx="58.2471" cy="249.734" r="1.5" transform="rotate(-5 58.2471 249.734)" fill="#808080"/>
<circle cx="62.2324" cy="249.385" r="1.5" transform="rotate(-5 62.2324 249.385)" fill="#808080"/>
<circle cx="66.2168" cy="249.037" r="1.5" transform="rotate(-5 66.2168 249.037)" fill="#808080"/>
<circle cx="70.2022" cy="248.688" r="1.5" transform="rotate(-5 70.2022 248.688)" fill="#808080"/>
<g style="mix-blend-mode:overlay">
<rect x="48.5254" y="201.25" width="14" height="6" transform="rotate(-5 48.5254 201.25)" fill="#D9D9D9"/>
<rect x="106.305" y="196.195" width="14" height="6" transform="rotate(-5 106.305 196.195)" fill="#D9D9D9"/>
</g>
<g style="mix-blend-mode:overlay" opacity="0.5" filter="url(#filter25_i_5074_50327)">
<path fill-rule="evenodd" clip-rule="evenodd" d="M72.155 96.0258C71.1034 97.1634 69.685 98.6924 69.0029 99.4235L67.7628 100.753L64.1227 100.295C62.1206 100.043 60.4724 99.8489 60.4601 99.8637C60.4211 99.9104 61.9418 104.271 62.0198 104.337C62.0925 104.397 65.0834 105.791 65.0922 105.768C65.0946 105.761 64.9848 105.107 64.848 104.313C64.7112 103.519 64.6136 102.853 64.631 102.833C64.6484 102.813 65.5886 102.953 66.7202 103.145L68.7778 103.494L71.7122 101.334L74.6466 99.1747L77.9114 100.792L81.1763 102.409L83.142 101.708C84.2232 101.323 85.1247 101.021 85.1453 101.038C85.1659 101.055 85.187 101.718 85.1922 102.512C85.1974 103.306 85.2241 103.954 85.2515 103.952C85.315 103.946 87.8935 102.16 87.9778 102.063C88.0425 101.989 88.7844 97.4295 88.7381 97.3904C88.7238 97.3783 87.2052 97.832 85.3635 98.3985C83.5217 98.965 81.9388 99.4481 81.8459 99.472C81.7184 99.5047 80.7664 98.8292 77.9703 96.7218C75.9316 95.1853 74.2194 93.9348 74.1653 93.9429C74.1113 93.9509 73.2066 94.8883 72.155 96.0258ZM65.9305 106.499L56.916 109.944L58.087 123.566L59.2581 137.189L61.6973 138.563C63.0389 139.32 64.1494 139.946 64.1652 139.955C64.181 139.965 63.9979 141.359 63.7584 143.053C63.5189 144.747 63.3332 146.247 63.3457 146.386C63.3725 146.684 63.6879 146.969 63.9645 146.945C64.0679 146.936 66.1367 146.437 68.562 145.837L72.9716 144.745L75.9861 146.419L79.0005 148.094L81.6902 145.92L84.38 143.745L88.8837 144.114L93.3873 144.483L93.5876 144.304C93.6977 144.205 93.8083 144.048 93.8335 143.956C93.862 143.851 93.5178 142.644 92.9186 140.748C92.3902 139.077 91.9691 137.697 91.9828 137.683C91.9965 137.668 93.0351 136.839 94.2908 135.839L96.5739 134.022L95.3573 120.354L94.1408 106.686L84.6238 104.857C79.3895 103.851 75.0705 103.034 75.0259 103.041C74.9814 103.048 70.8885 104.604 65.9305 106.499ZM59.94 105.318C59.9166 105.4 59.7644 105.925 59.6017 106.485C59.4389 107.044 59.3117 107.508 59.319 107.515C59.3326 107.528 62.1805 106.418 62.3821 106.32C62.4978 106.264 62.355 106.193 60.731 105.491C60.0635 105.203 59.9779 105.184 59.94 105.318ZM89.0667 103.279C88.461 103.678 87.9928 104.024 88.0261 104.05C88.0887 104.099 91.2471 104.753 91.2691 104.722C91.2858 104.698 90.246 102.61 90.2025 102.58C90.1835 102.566 89.6724 102.881 89.0667 103.279ZM83.0677 108.413L90.685 109.873L90.812 111.325L90.939 112.776L89.8124 114.909L88.6857 117.042L89.1389 122.222L89.5921 127.402L91.0099 128.597L92.4278 129.793L92.5362 131.064L92.6446 132.336L85.6289 137.963L78.6132 143.59L70.7297 139.267L62.8462 134.943L62.7236 133.59L62.6009 132.237L63.7154 130.902L64.8298 129.568L64.3766 124.388L63.9234 119.208L62.5362 117.425L61.149 115.641L61.0107 114.061L60.8725 112.48L68.0402 109.739C71.9824 108.231 75.2624 106.987 75.3291 106.975C75.3958 106.963 78.8782 107.61 83.0677 108.413ZM69.6464 116.136L69.7253 117.038L68.7885 117.12L67.8518 117.202L68.4434 123.964L69.035 130.726L69.9718 130.644L70.9085 130.562L71.0913 132.652L71.2742 134.742L73.0235 134.589L74.7729 134.436L74.6751 133.061L74.5773 131.687L75.125 131.614L75.6727 131.542L75.7949 132.939L75.9171 134.336L77.7091 134.179L79.5011 134.023L79.3789 132.625L79.2567 131.228L79.8086 131.204L80.3606 131.181L80.503 132.552L80.6454 133.922L82.3947 133.769L84.1441 133.616L83.9612 131.526L83.7784 129.436L84.7151 129.354L85.6518 129.272L85.0602 122.51L84.4686 115.748L83.5319 115.83L82.5951 115.912L82.5163 115.01L82.4374 114.109L76.0024 114.672L69.5675 115.235L69.6464 116.136ZM52.1961 121.502L50.3825 124.839L50.6438 128.071L50.9051 131.303L48.8836 130.713C47.7718 130.389 46.8559 130.13 46.8482 130.138C46.8377 130.149 48.5416 134.936 49.3231 137.092C49.415 137.345 49.9432 137.772 53.0275 140.087C55.615 142.029 56.5862 142.802 56.4878 142.839C56.4127 142.868 55.5951 143.115 54.671 143.388C53.7469 143.661 52.9662 143.91 52.9359 143.94C52.9058 143.971 54.3471 145.233 56.1389 146.746L59.3966 149.496L66.0895 150.06C69.7706 150.37 72.7891 150.616 72.7974 150.606C72.8186 150.58 71.8061 147.16 71.7678 147.127C71.7504 147.113 70.1284 147.501 68.1633 147.99C64.2018 148.975 63.7462 149.044 63.0274 148.766C62.2008 148.446 61.5654 147.689 61.3766 146.799C61.306 146.467 61.3583 145.912 61.667 143.718C61.8742 142.246 62.0373 141.039 62.0297 141.035C62.022 141.031 60.9802 140.442 59.7145 139.726L57.4133 138.425L57.0237 134.395L56.6341 130.366L55.8718 127.893L55.1095 125.421L54.5888 121.818C54.3024 119.836 54.055 118.203 54.039 118.189C54.0229 118.176 53.1936 119.667 52.1961 121.502ZM98.3775 114.303C98.38 114.331 98.4327 115.987 98.4947 117.982L98.6073 121.61L98.275 124.384L97.9428 127.158L98.2818 131.033L98.6209 134.909L96.4317 136.674C94.7197 138.054 94.2547 138.469 94.2987 138.575C94.3295 138.65 94.6668 139.687 95.0482 140.88C95.8641 143.433 95.9483 143.936 95.6839 144.678C95.4812 145.247 95.0363 145.794 94.527 146.101C93.8816 146.49 93.4538 146.496 89.531 146.171C87.5643 146.008 85.9552 145.877 85.9552 145.881C85.9552 145.885 85.8622 146.695 85.7486 147.68C85.6349 148.666 85.551 149.48 85.5621 149.49C85.5732 149.499 88.5033 148.733 92.0735 147.789L98.5649 146.071L101.296 142.796C103.022 140.726 103.989 139.504 103.923 139.476C103.865 139.451 103.053 139.342 102.118 139.234C101.183 139.125 100.354 139.024 100.275 139.009C100.171 138.988 100.989 138.065 103.204 135.701C106.016 132.701 106.282 132.392 106.34 132.066C106.656 130.278 107.575 124.835 107.562 124.827C107.553 124.821 106.696 125.236 105.658 125.749L103.77 126.682L103.466 123.451L103.161 120.22L100.846 117.307C98.5678 114.442 98.3685 114.199 98.3775 114.303ZM74.8973 124.556L75.0945 126.81L72.8545 127.006L70.6145 127.202L70.4173 124.948L70.2201 122.694L72.4601 122.498L74.7001 122.302L74.8973 124.556ZM83.2871 123.822L83.4843 126.076L81.2443 126.272L79.0043 126.468L78.8071 124.214L78.6099 121.96L80.8499 121.764L83.0899 121.568L83.2871 123.822ZM74.2884 139.688C74.2245 139.816 74.1491 139.766 76.2975 141.03C77.5538 141.769 78.2558 142.135 78.3616 142.107C78.6025 142.042 81.9338 139.174 81.8889 139.069C81.8344 138.943 74.3566 139.552 74.2884 139.688Z" fill="white"/>
</g>
<g style="mix-blend-mode:overlay" opacity="0.5" filter="url(#filter26_i_5074_50327)">
<path fill-rule="evenodd" clip-rule="evenodd" d="M72.155 96.0258C71.1034 97.1634 69.685 98.6924 69.0029 99.4235L67.7628 100.753L64.1227 100.295C62.1206 100.043 60.4724 99.8489 60.4601 99.8637C60.4211 99.9104 61.9418 104.271 62.0198 104.337C62.0925 104.397 65.0834 105.791 65.0922 105.768C65.0946 105.761 64.9848 105.107 64.848 104.313C64.7112 103.519 64.6136 102.853 64.631 102.833C64.6484 102.813 65.5886 102.953 66.7202 103.145L68.7778 103.494L71.7122 101.334L74.6466 99.1747L77.9114 100.792L81.1763 102.409L83.142 101.708C84.2232 101.323 85.1247 101.021 85.1453 101.038C85.1659 101.055 85.187 101.718 85.1922 102.512C85.1974 103.306 85.2241 103.954 85.2515 103.952C85.315 103.946 87.8935 102.16 87.9778 102.063C88.0425 101.989 88.7844 97.4295 88.7381 97.3904C88.7238 97.3783 87.2052 97.832 85.3635 98.3985C83.5217 98.965 81.9388 99.4481 81.8459 99.472C81.7184 99.5047 80.7664 98.8292 77.9703 96.7218C75.9316 95.1853 74.2194 93.9348 74.1653 93.9429C74.1113 93.9509 73.2066 94.8883 72.155 96.0258ZM65.9305 106.499L56.916 109.944L58.087 123.566L59.2581 137.189L61.6973 138.563C63.0389 139.32 64.1494 139.946 64.1652 139.955C64.181 139.965 63.9979 141.359 63.7584 143.053C63.5189 144.747 63.3332 146.247 63.3457 146.386C63.3725 146.684 63.6879 146.969 63.9645 146.945C64.0679 146.936 66.1367 146.437 68.562 145.837L72.9716 144.745L75.9861 146.419L79.0005 148.094L81.6902 145.92L84.38 143.745L88.8837 144.114L93.3873 144.483L93.5876 144.304C93.6977 144.205 93.8083 144.048 93.8335 143.956C93.862 143.851 93.5178 142.644 92.9186 140.748C92.3902 139.077 91.9691 137.697 91.9828 137.683C91.9965 137.668 93.0351 136.839 94.2908 135.839L96.5739 134.022L95.3573 120.354L94.1408 106.686L84.6238 104.857C79.3895 103.851 75.0705 103.034 75.0259 103.041C74.9814 103.048 70.8885 104.604 65.9305 106.499ZM59.94 105.318C59.9166 105.4 59.7644 105.925 59.6017 106.485C59.4389 107.044 59.3117 107.508 59.319 107.515C59.3326 107.528 62.1805 106.418 62.3821 106.32C62.4978 106.264 62.355 106.193 60.731 105.491C60.0635 105.203 59.9779 105.184 59.94 105.318ZM89.0667 103.279C88.461 103.678 87.9928 104.024 88.0261 104.05C88.0887 104.099 91.2471 104.753 91.2691 104.722C91.2858 104.698 90.246 102.61 90.2025 102.58C90.1835 102.566 89.6724 102.881 89.0667 103.279ZM83.0677 108.413L90.685 109.873L90.812 111.325L90.939 112.776L89.8124 114.909L88.6857 117.042L89.1389 122.222L89.5921 127.402L91.0099 128.597L92.4278 129.793L92.5362 131.064L92.6446 132.336L85.6289 137.963L78.6132 143.59L70.7297 139.267L62.8462 134.943L62.7236 133.59L62.6009 132.237L63.7154 130.902L64.8298 129.568L64.3766 124.388L63.9234 119.208L62.5362 117.425L61.149 115.641L61.0107 114.061L60.8725 112.48L68.0402 109.739C71.9824 108.231 75.2624 106.987 75.3291 106.975C75.3958 106.963 78.8782 107.61 83.0677 108.413ZM69.6464 116.136L69.7253 117.038L68.7885 117.12L67.8518 117.202L68.4434 123.964L69.035 130.726L69.9718 130.644L70.9085 130.562L71.0913 132.652L71.2742 134.742L73.0235 134.589L74.7729 134.436L74.6751 133.061L74.5773 131.687L75.125 131.614L75.6727 131.542L75.7949 132.939L75.9171 134.336L77.7091 134.179L79.5011 134.023L79.3789 132.625L79.2567 131.228L79.8086 131.204L80.3606 131.181L80.503 132.552L80.6454 133.922L82.3947 133.769L84.1441 133.616L83.9612 131.526L83.7784 129.436L84.7151 129.354L85.6518 129.272L85.0602 122.51L84.4686 115.748L83.5319 115.83L82.5951 115.912L82.5163 115.01L82.4374 114.109L76.0024 114.672L69.5675 115.235L69.6464 116.136ZM52.1961 121.502L50.3825 124.839L50.6438 128.071L50.9051 131.303L48.8836 130.713C47.7718 130.389 46.8559 130.13 46.8482 130.138C46.8377 130.149 48.5416 134.936 49.3231 137.092C49.415 137.345 49.9432 137.772 53.0275 140.087C55.615 142.029 56.5862 142.802 56.4878 142.839C56.4127 142.868 55.5951 143.115 54.671 143.388C53.7469 143.661 52.9662 143.91 52.9359 143.94C52.9058 143.971 54.3471 145.233 56.1389 146.746L59.3966 149.496L66.0895 150.06C69.7706 150.37 72.7891 150.616 72.7974 150.606C72.8186 150.58 71.8061 147.16 71.7678 147.127C71.7504 147.113 70.1284 147.501 68.1633 147.99C64.2018 148.975 63.7462 149.044 63.0274 148.766C62.2008 148.446 61.5654 147.689 61.3766 146.799C61.306 146.467 61.3583 145.912 61.667 143.718C61.8742 142.246 62.0373 141.039 62.0297 141.035C62.022 141.031 60.9802 140.442 59.7145 139.726L57.4133 138.425L57.0237 134.395L56.6341 130.366L55.8718 127.893L55.1095 125.421L54.5888 121.818C54.3024 119.836 54.055 118.203 54.039 118.189C54.0229 118.176 53.1936 119.667 52.1961 121.502ZM98.3775 114.303C98.38 114.331 98.4327 115.987 98.4947 117.982L98.6073 121.61L98.275 124.384L97.9428 127.158L98.2818 131.033L98.6209 134.909L96.4317 136.674C94.7197 138.054 94.2547 138.469 94.2987 138.575C94.3295 138.65 94.6668 139.687 95.0482 140.88C95.8641 143.433 95.9483 143.936 95.6839 144.678C95.4812 145.247 95.0363 145.794 94.527 146.101C93.8816 146.49 93.4538 146.496 89.531 146.171C87.5643 146.008 85.9552 145.877 85.9552 145.881C85.9552 145.885 85.8622 146.695 85.7486 147.68C85.6349 148.666 85.551 149.48 85.5621 149.49C85.5732 149.499 88.5033 148.733 92.0735 147.789L98.5649 146.071L101.296 142.796C103.022 140.726 103.989 139.504 103.923 139.476C103.865 139.451 103.053 139.342 102.118 139.234C101.183 139.125 100.354 139.024 100.275 139.009C100.171 138.988 100.989 138.065 103.204 135.701C106.016 132.701 106.282 132.392 106.34 132.066C106.656 130.278 107.575 124.835 107.562 124.827C107.553 124.821 106.696 125.236 105.658 125.749L103.77 126.682L103.466 123.451L103.161 120.22L100.846 117.307C98.5678 114.442 98.3685 114.199 98.3775 114.303ZM74.8973 124.556L75.0945 126.81L72.8545 127.006L70.6145 127.202L70.4173 124.948L70.2201 122.694L72.4601 122.498L74.7001 122.302L74.8973 124.556ZM83.2871 123.822L83.4843 126.076L81.2443 126.272L79.0043 126.468L78.8071 124.214L78.6099 121.96L80.8499 121.764L83.0899 121.568L83.2871 123.822ZM74.2884 139.688C74.2245 139.816 74.1491 139.766 76.2975 141.03C77.5538 141.769 78.2558 142.135 78.3616 142.107C78.6025 142.042 81.9338 139.174 81.8889 139.069C81.8344 138.943 74.3566 139.552 74.2884 139.688Z" fill="white"/>
</g>
<g style="mix-blend-mode:overlay" opacity="0.5" filter="url(#filter27_i_5074_50327)">
<path fill-rule="evenodd" clip-rule="evenodd" d="M72.155 96.0258C71.1034 97.1634 69.685 98.6924 69.0029 99.4235L67.7628 100.753L64.1227 100.295C62.1206 100.043 60.4724 99.8489 60.4601 99.8637C60.4211 99.9104 61.9418 104.271 62.0198 104.337C62.0925 104.397 65.0834 105.791 65.0922 105.768C65.0946 105.761 64.9848 105.107 64.848 104.313C64.7112 103.519 64.6136 102.853 64.631 102.833C64.6484 102.813 65.5886 102.953 66.7202 103.145L68.7778 103.494L71.7122 101.334L74.6466 99.1747L77.9114 100.792L81.1763 102.409L83.142 101.708C84.2232 101.323 85.1247 101.021 85.1453 101.038C85.1659 101.055 85.187 101.718 85.1922 102.512C85.1974 103.306 85.2241 103.954 85.2515 103.952C85.315 103.946 87.8935 102.16 87.9778 102.063C88.0425 101.989 88.7844 97.4295 88.7381 97.3904C88.7238 97.3783 87.2052 97.832 85.3635 98.3985C83.5217 98.965 81.9388 99.4481 81.8459 99.472C81.7184 99.5047 80.7664 98.8292 77.9703 96.7218C75.9316 95.1853 74.2194 93.9348 74.1653 93.9429C74.1113 93.9509 73.2066 94.8883 72.155 96.0258ZM65.9305 106.499L56.916 109.944L58.087 123.566L59.2581 137.189L61.6973 138.563C63.0389 139.32 64.1494 139.946 64.1652 139.955C64.181 139.965 63.9979 141.359 63.7584 143.053C63.5189 144.747 63.3332 146.247 63.3457 146.386C63.3725 146.684 63.6879 146.969 63.9645 146.945C64.0679 146.936 66.1367 146.437 68.562 145.837L72.9716 144.745L75.9861 146.419L79.0005 148.094L81.6902 145.92L84.38 143.745L88.8837 144.114L93.3873 144.483L93.5876 144.304C93.6977 144.205 93.8083 144.048 93.8335 143.956C93.862 143.851 93.5178 142.644 92.9186 140.748C92.3902 139.077 91.9691 137.697 91.9828 137.683C91.9965 137.668 93.0351 136.839 94.2908 135.839L96.5739 134.022L95.3573 120.354L94.1408 106.686L84.6238 104.857C79.3895 103.851 75.0705 103.034 75.0259 103.041C74.9814 103.048 70.8885 104.604 65.9305 106.499ZM59.94 105.318C59.9166 105.4 59.7644 105.925 59.6017 106.485C59.4389 107.044 59.3117 107.508 59.319 107.515C59.3326 107.528 62.1805 106.418 62.3821 106.32C62.4978 106.264 62.355 106.193 60.731 105.491C60.0635 105.203 59.9779 105.184 59.94 105.318ZM89.0667 103.279C88.461 103.678 87.9928 104.024 88.0261 104.05C88.0887 104.099 91.2471 104.753 91.2691 104.722C91.2858 104.698 90.246 102.61 90.2025 102.58C90.1835 102.566 89.6724 102.881 89.0667 103.279ZM83.0677 108.413L90.685 109.873L90.812 111.325L90.939 112.776L89.8124 114.909L88.6857 117.042L89.1389 122.222L89.5921 127.402L91.0099 128.597L92.4278 129.793L92.5362 131.064L92.6446 132.336L85.6289 137.963L78.6132 143.59L70.7297 139.267L62.8462 134.943L62.7236 133.59L62.6009 132.237L63.7154 130.902L64.8298 129.568L64.3766 124.388L63.9234 119.208L62.5362 117.425L61.149 115.641L61.0107 114.061L60.8725 112.48L68.0402 109.739C71.9824 108.231 75.2624 106.987 75.3291 106.975C75.3958 106.963 78.8782 107.61 83.0677 108.413ZM69.6464 116.136L69.7253 117.038L68.7885 117.12L67.8518 117.202L68.4434 123.964L69.035 130.726L69.9718 130.644L70.9085 130.562L71.0913 132.652L71.2742 134.742L73.0235 134.589L74.7729 134.436L74.6751 133.061L74.5773 131.687L75.125 131.614L75.6727 131.542L75.7949 132.939L75.9171 134.336L77.7091 134.179L79.5011 134.023L79.3789 132.625L79.2567 131.228L79.8086 131.204L80.3606 131.181L80.503 132.552L80.6454 133.922L82.3947 133.769L84.1441 133.616L83.9612 131.526L83.7784 129.436L84.7151 129.354L85.6518 129.272L85.0602 122.51L84.4686 115.748L83.5319 115.83L82.5951 115.912L82.5163 115.01L82.4374 114.109L76.0024 114.672L69.5675 115.235L69.6464 116.136ZM52.1961 121.502L50.3825 124.839L50.6438 128.071L50.9051 131.303L48.8836 130.713C47.7718 130.389 46.8559 130.13 46.8482 130.138C46.8377 130.149 48.5416 134.936 49.3231 137.092C49.415 137.345 49.9432 137.772 53.0275 140.087C55.615 142.029 56.5862 142.802 56.4878 142.839C56.4127 142.868 55.5951 143.115 54.671 143.388C53.7469 143.661 52.9662 143.91 52.9359 143.94C52.9058 143.971 54.3471 145.233 56.1389 146.746L59.3966 149.496L66.0895 150.06C69.7706 150.37 72.7891 150.616 72.7974 150.606C72.8186 150.58 71.8061 147.16 71.7678 147.127C71.7504 147.113 70.1284 147.501 68.1633 147.99C64.2018 148.975 63.7462 149.044 63.0274 148.766C62.2008 148.446 61.5654 147.689 61.3766 146.799C61.306 146.467 61.3583 145.912 61.667 143.718C61.8742 142.246 62.0373 141.039 62.0297 141.035C62.022 141.031 60.9802 140.442 59.7145 139.726L57.4133 138.425L57.0237 134.395L56.6341 130.366L55.8718 127.893L55.1095 125.421L54.5888 121.818C54.3024 119.836 54.055 118.203 54.039 118.189C54.0229 118.176 53.1936 119.667 52.1961 121.502ZM98.3775 114.303C98.38 114.331 98.4327 115.987 98.4947 117.982L98.6073 121.61L98.275 124.384L97.9428 127.158L98.2818 131.033L98.6209 134.909L96.4317 136.674C94.7197 138.054 94.2547 138.469 94.2987 138.575C94.3295 138.65 94.6668 139.687 95.0482 140.88C95.8641 143.433 95.9483 143.936 95.6839 144.678C95.4812 145.247 95.0363 145.794 94.527 146.101C93.8816 146.49 93.4538 146.496 89.531 146.171C87.5643 146.008 85.9552 145.877 85.9552 145.881C85.9552 145.885 85.8622 146.695 85.7486 147.68C85.6349 148.666 85.551 149.48 85.5621 149.49C85.5732 149.499 88.5033 148.733 92.0735 147.789L98.5649 146.071L101.296 142.796C103.022 140.726 103.989 139.504 103.923 139.476C103.865 139.451 103.053 139.342 102.118 139.234C101.183 139.125 100.354 139.024 100.275 139.009C100.171 138.988 100.989 138.065 103.204 135.701C106.016 132.701 106.282 132.392 106.34 132.066C106.656 130.278 107.575 124.835 107.562 124.827C107.553 124.821 106.696 125.236 105.658 125.749L103.77 126.682L103.466 123.451L103.161 120.22L100.846 117.307C98.5678 114.442 98.3685 114.199 98.3775 114.303ZM74.8973 124.556L75.0945 126.81L72.8545 127.006L70.6145 127.202L70.4173 124.948L70.2201 122.694L72.4601 122.498L74.7001 122.302L74.8973 124.556ZM83.2871 123.822L83.4843 126.076L81.2443 126.272L79.0043 126.468L78.8071 124.214L78.6099 121.96L80.8499 121.764L83.0899 121.568L83.2871 123.822ZM74.2884 139.688C74.2245 139.816 74.1491 139.766 76.2975 141.03C77.5538 141.769 78.2558 142.135 78.3616 142.107C78.6025 142.042 81.9338 139.174 81.8889 139.069C81.8344 138.943 74.3566 139.552 74.2884 139.688Z" fill="white"/>
</g>
<defs>
<filter id="filter0_d_5074_50327" x="1.96289" y="2.43335" width="148.438" height="269" filterUnits="userSpaceOnUse" color-interpolation-filters="sRGB">
<feFlood flood-opacity="0" result="BackgroundImageFix"/>
<feColorMatrix in="SourceAlpha" type="matrix" values="0 0 0 0 0 0 0 0 0 0 0 0 0 0 0 0 0 0 127 0" result="hardAlpha"/>
<feOffset dx="-2" dy="4"/>
<feGaussianBlur stdDeviation="3"/>
<feComposite in2="hardAlpha" operator="out"/>
<feColorMatrix type="matrix" values="0 0 0 0 0.00694444 0 0 0 0 0.0833333 0 0 0 0 0.00999999 0 0 0 0.4 0"/>
<feBlend mode="normal" in2="BackgroundImageFix" result="effect1_dropShadow_5074_50327"/>
<feBlend mode="normal" in="SourceGraphic" in2="effect1_dropShadow_5074_50327" result="shape"/>
</filter>
<filter id="filter1_f_5074_50327" x="18.7002" y="4.1637" width="118.862" height="257.16" filterUnits="userSpaceOnUse" color-interpolation-filters="sRGB">
<feFlood flood-opacity="0" result="BackgroundImageFix"/>
<feBlend mode="normal" in="SourceGraphic" in2="BackgroundImageFix" result="shape"/>
<feGaussianBlur stdDeviation="2" result="effect1_foregroundBlur_5074_50327"/>
</filter>
<filter id="filter2_i_5074_50327" x="32.1934" y="23.3341" width="74.5449" height="19.9039" filterUnits="userSpaceOnUse" color-interpolation-filters="sRGB">
<feFlood flood-opacity="0" result="BackgroundImageFix"/>
<feBlend mode="normal" in="SourceGraphic" in2="BackgroundImageFix" result="shape"/>
<feColorMatrix in="SourceAlpha" type="matrix" values="0 0 0 0 0 0 0 0 0 0 0 0 0 0 0 0 0 0 127 0" result="hardAlpha"/>
<feOffset dy="2"/>
<feComposite in2="hardAlpha" operator="arithmetic" k2="-1" k3="1"/>
<feColorMatrix type="matrix" values="0 0 0 0 0 0 0 0 0 0 0 0 0 0 0 0 0 0 0.25 0"/>
<feBlend mode="normal" in2="shape" result="effect1_innerShadow_5074_50327"/>
</filter>
<filter id="filter3_i_5074_50327" x="33.6748" y="42.4047" width="50.1377" height="17.7686" filterUnits="userSpaceOnUse" color-interpolation-filters="sRGB">
<feFlood flood-opacity="0" result="BackgroundImageFix"/>
<feBlend mode="normal" in="SourceGraphic" in2="BackgroundImageFix" result="shape"/>
<feColorMatrix in="SourceAlpha" type="matrix" values="0 0 0 0 0 0 0 0 0 0 0 0 0 0 0 0 0 0 127 0" result="hardAlpha"/>
<feOffset dy="2"/>
<feComposite in2="hardAlpha" operator="arithmetic" k2="-1" k3="1"/>
<feColorMatrix type="matrix" values="0 0 0 0 0 0 0 0 0 0 0 0 0 0 0 0 0 0 0.25 0"/>
<feBlend mode="normal" in2="shape" result="effect1_innerShadow_5074_50327"/>
</filter>
<filter id="filter4_i_5074_50327" x="86.9717" y="40.3129" width="20.75" height="15.1975" filterUnits="userSpaceOnUse" color-interpolation-filters="sRGB">
<feFlood flood-opacity="0" result="BackgroundImageFix"/>
<feBlend mode="normal" in="SourceGraphic" in2="BackgroundImageFix" result="shape"/>
<feColorMatrix in="SourceAlpha" type="matrix" values="0 0 0 0 0 0 0 0 0 0 0 0 0 0 0 0 0 0 127 0" result="hardAlpha"/>
<feOffset dy="2"/>
<feComposite in2="hardAlpha" operator="arithmetic" k2="-1" k3="1"/>
<feColorMatrix type="matrix" values="0 0 0 0 0 0 0 0 0 0 0 0 0 0 0 0 0 0 0.25 0"/>
<feBlend mode="normal" in2="shape" result="effect1_innerShadow_5074_50327"/>
</filter>
<filter id="filter5_d_5074_50327" x="30.0713" y="117.512" width="7.72852" height="4.38232" filterUnits="userSpaceOnUse" color-interpolation-filters="sRGB">
<feFlood flood-opacity="0" result="BackgroundImageFix"/>
<feColorMatrix in="SourceAlpha" type="matrix" values="0 0 0 0 0 0 0 0 0 0 0 0 0 0 0 0 0 0 127 0" result="hardAlpha"/>
<feOffset dy="1"/>
<feComposite in2="hardAlpha" operator="out"/>
<feColorMatrix type="matrix" values="0 0 0 0 0 0 0 0 0 0 0 0 0 0 0 0 0 0 0.6 0"/>
<feBlend mode="normal" in2="BackgroundImageFix" result="effect1_dropShadow_5074_50327"/>
<feBlend mode="normal" in="SourceGraphic" in2="effect1_dropShadow_5074_50327" result="shape"/>
</filter>
<filter id="filter6_d_5074_50327" x="47.7705" y="116.043" width="7.87402" height="4.31537" filterUnits="userSpaceOnUse" color-interpolation-filters="sRGB">
<feFlood flood-opacity="0" result="BackgroundImageFix"/>
<feColorMatrix in="SourceAlpha" type="matrix" values="0 0 0 0 0 0 0 0 0 0 0 0 0 0 0 0 0 0 127 0" result="hardAlpha"/>
<feOffset dy="1"/>
<feComposite in2="hardAlpha" operator="out"/>
<feColorMatrix type="matrix" values="0 0 0 0 0 0 0 0 0 0 0 0 0 0 0 0 0 0 0.6 0"/>
<feBlend mode="normal" in2="BackgroundImageFix" result="effect1_dropShadow_5074_50327"/>
<feBlend mode="normal" in="SourceGraphic" in2="effect1_dropShadow_5074_50327" result="shape"/>
</filter>
<filter id="filter7_d_5074_50327" x="30.5068" y="122.493" width="7.72852" height="4.38232" filterUnits="userSpaceOnUse" color-interpolation-filters="sRGB">
<feFlood flood-opacity="0" result="BackgroundImageFix"/>
<feColorMatrix in="SourceAlpha" type="matrix" values="0 0 0 0 0 0 0 0 0 0 0 0 0 0 0 0 0 0 127 0" result="hardAlpha"/>
<feOffset dy="1"/>
<feComposite in2="hardAlpha" operator="out"/>
<feColorMatrix type="matrix" values="0 0 0 0 0 0 0 0 0 0 0 0 0 0 0 0 0 0 0.6 0"/>
<feBlend mode="normal" in2="BackgroundImageFix" result="effect1_dropShadow_5074_50327"/>
<feBlend mode="normal" in="SourceGraphic" in2="effect1_dropShadow_5074_50327" result="shape"/>
</filter>
<filter id="filter8_d_5074_50327" x="48.207" y="121.024" width="7.87402" height="4.31537" filterUnits="userSpaceOnUse" color-interpolation-filters="sRGB">
<feFlood flood-opacity="0" result="BackgroundImageFix"/>
<feColorMatrix in="SourceAlpha" type="matrix" values="0 0 0 0 0 0 0 0 0 0 0 0 0 0 0 0 0 0 127 0" result="hardAlpha"/>
<feOffset dy="1"/>
<feComposite in2="hardAlpha" operator="out"/>
<feColorMatrix type="matrix" values="0 0 0 0 0 0 0 0 0 0 0 0 0 0 0 0 0 0 0.6 0"/>
<feBlend mode="normal" in2="BackgroundImageFix" result="effect1_dropShadow_5074_50327"/>
<feBlend mode="normal" in="SourceGraphic" in2="effect1_dropShadow_5074_50327" result="shape"/>
</filter>
<filter id="filter9_d_5074_50327" x="30.9424" y="127.474" width="7.72852" height="4.38232" filterUnits="userSpaceOnUse" color-interpolation-filters="sRGB">
<feFlood flood-opacity="0" result="BackgroundImageFix"/>
<feColorMatrix in="SourceAlpha" type="matrix" values="0 0 0 0 0 0 0 0 0 0 0 0 0 0 0 0 0 0 127 0" result="hardAlpha"/>
<feOffset dy="1"/>
<feComposite in2="hardAlpha" operator="out"/>
<feColorMatrix type="matrix" values="0 0 0 0 0 0 0 0 0 0 0 0 0 0 0 0 0 0 0.6 0"/>
<feBlend mode="normal" in2="BackgroundImageFix" result="effect1_dropShadow_5074_50327"/>
<feBlend mode="normal" in="SourceGraphic" in2="effect1_dropShadow_5074_50327" result="shape"/>
</filter>
<filter id="filter10_d_5074_50327" x="31.3779" y="132.455" width="7.72852" height="4.38232" filterUnits="userSpaceOnUse" color-interpolation-filters="sRGB">
<feFlood flood-opacity="0" result="BackgroundImageFix"/>
<feColorMatrix in="SourceAlpha" type="matrix" values="0 0 0 0 0 0 0 0 0 0 0 0 0 0 0 0 0 0 127 0" result="hardAlpha"/>
<feOffset dy="1"/>
<feComposite in2="hardAlpha" operator="out"/>
<feColorMatrix type="matrix" values="0 0 0 0 0 0 0 0 0 0 0 0 0 0 0 0 0 0 0.6 0"/>
<feBlend mode="normal" in2="BackgroundImageFix" result="effect1_dropShadow_5074_50327"/>
<feBlend mode="normal" in="SourceGraphic" in2="effect1_dropShadow_5074_50327" result="shape"/>
</filter>
<filter id="filter11_d_5074_50327" x="31.8145" y="137.436" width="7.72852" height="4.38232" filterUnits="userSpaceOnUse" color-interpolation-filters="sRGB">
<feFlood flood-opacity="0" result="BackgroundImageFix"/>
<feColorMatrix in="SourceAlpha" type="matrix" values="0 0 0 0 0 0 0 0 0 0 0 0 0 0 0 0 0 0 127 0" result="hardAlpha"/>
<feOffset dy="1"/>
<feComposite in2="hardAlpha" operator="out"/>
<feColorMatrix type="matrix" values="0 0 0 0 0 0 0 0 0 0 0 0 0 0 0 0 0 0 0.6 0"/>
<feBlend mode="normal" in2="BackgroundImageFix" result="effect1_dropShadow_5074_50327"/>
<feBlend mode="normal" in="SourceGraphic" in2="effect1_dropShadow_5074_50327" result="shape"/>
</filter>
<filter id="filter12_d_5074_50327" x="32.25" y="142.417" width="7.72852" height="4.38232" filterUnits="userSpaceOnUse" color-interpolation-filters="sRGB">
<feFlood flood-opacity="0" result="BackgroundImageFix"/>
<feColorMatrix in="SourceAlpha" type="matrix" values="0 0 0 0 0 0 0 0 0 0 0 0 0 0 0 0 0 0 127 0" result="hardAlpha"/>
<feOffset dy="1"/>
<feComposite in2="hardAlpha" operator="out"/>
<feColorMatrix type="matrix" values="0 0 0 0 0 0 0 0 0 0 0 0 0 0 0 0 0 0 0.6 0"/>
<feBlend mode="normal" in2="BackgroundImageFix" result="effect1_dropShadow_5074_50327"/>
<feBlend mode="normal" in="SourceGraphic" in2="effect1_dropShadow_5074_50327" result="shape"/>
</filter>
<filter id="filter13_d_5074_50327" x="48.6426" y="126.005" width="7.87402" height="4.31537" filterUnits="userSpaceOnUse" color-interpolation-filters="sRGB">
<feFlood flood-opacity="0" result="BackgroundImageFix"/>
<feColorMatrix in="SourceAlpha" type="matrix" values="0 0 0 0 0 0 0 0 0 0 0 0 0 0 0 0 0 0 127 0" result="hardAlpha"/>
<feOffset dy="1"/>
<feComposite in2="hardAlpha" operator="out"/>
<feColorMatrix type="matrix" values="0 0 0 0 0 0 0 0 0 0 0 0 0 0 0 0 0 0 0.6 0"/>
<feBlend mode="normal" in2="BackgroundImageFix" result="effect1_dropShadow_5074_50327"/>
<feBlend mode="normal" in="SourceGraphic" in2="effect1_dropShadow_5074_50327" result="shape"/>
</filter>
<filter id="filter14_d_5074_50327" x="32.6191" y="113.186" width="22.5068" height="36.404" filterUnits="userSpaceOnUse" color-interpolation-filters="sRGB">
<feFlood flood-opacity="0" result="BackgroundImageFix"/>
<feColorMatrix in="SourceAlpha" type="matrix" values="0 0 0 0 0 0 0 0 0 0 0 0 0 0 0 0 0 0 127 0" result="hardAlpha"/>
<feOffset dy="1"/>
<feComposite in2="hardAlpha" operator="out"/>
<feColorMatrix type="matrix" values="0 0 0 0 0 0 0 0 0 0 0 0 0 0 0 0 0 0 0.6 0"/>
<feBlend mode="normal" in2="BackgroundImageFix" result="effect1_dropShadow_5074_50327"/>
<feBlend mode="normal" in="SourceGraphic" in2="effect1_dropShadow_5074_50327" result="shape"/>
</filter>
<filter id="filter15_d_5074_50327" x="115.513" y="110.117" width="7.87402" height="4.31537" filterUnits="userSpaceOnUse" color-interpolation-filters="sRGB">
<feFlood flood-opacity="0" result="BackgroundImageFix"/>
<feColorMatrix in="SourceAlpha" type="matrix" values="0 0 0 0 0 0 0 0 0 0 0 0 0 0 0 0 0 0 127 0" result="hardAlpha"/>
<feOffset dy="1"/>
<feComposite in2="hardAlpha" operator="out"/>
<feColorMatrix type="matrix" values="0 0 0 0 0 0 0 0 0 0 0 0 0 0 0 0 0 0 0.6 0"/>
<feBlend mode="normal" in2="BackgroundImageFix" result="effect1_dropShadow_5074_50327"/>
<feBlend mode="normal" in="SourceGraphic" in2="effect1_dropShadow_5074_50327" result="shape"/>
</filter>
<filter id="filter16_d_5074_50327" x="97.8125" y="111.586" width="7.72852" height="4.38232" filterUnits="userSpaceOnUse" color-interpolation-filters="sRGB">
<feFlood flood-opacity="0" result="BackgroundImageFix"/>
<feColorMatrix in="SourceAlpha" type="matrix" values="0 0 0 0 0 0 0 0 0 0 0 0 0 0 0 0 0 0 127 0" result="hardAlpha"/>
<feOffset dy="1"/>
<feComposite in2="hardAlpha" operator="out"/>
<feColorMatrix type="matrix" values="0 0 0 0 0 0 0 0 0 0 0 0 0 0 0 0 0 0 0.6 0"/>
<feBlend mode="normal" in2="BackgroundImageFix" result="effect1_dropShadow_5074_50327"/>
<feBlend mode="normal" in="SourceGraphic" in2="effect1_dropShadow_5074_50327" result="shape"/>
</filter>
<filter id="filter17_d_5074_50327" x="115.948" y="115.097" width="7.87402" height="4.31537" filterUnits="userSpaceOnUse" color-interpolation-filters="sRGB">
<feFlood flood-opacity="0" result="BackgroundImageFix"/>
<feColorMatrix in="SourceAlpha" type="matrix" values="0 0 0 0 0 0 0 0 0 0 0 0 0 0 0 0 0 0 127 0" result="hardAlpha"/>
<feOffset dy="1"/>
<feComposite in2="hardAlpha" operator="out"/>
<feColorMatrix type="matrix" values="0 0 0 0 0 0 0 0 0 0 0 0 0 0 0 0 0 0 0.6 0"/>
<feBlend mode="normal" in2="BackgroundImageFix" result="effect1_dropShadow_5074_50327"/>
<feBlend mode="normal" in="SourceGraphic" in2="effect1_dropShadow_5074_50327" result="shape"/>
</filter>
<filter id="filter18_d_5074_50327" x="98.248" y="116.567" width="7.72852" height="4.38232" filterUnits="userSpaceOnUse" color-interpolation-filters="sRGB">
<feFlood flood-opacity="0" result="BackgroundImageFix"/>
<feColorMatrix in="SourceAlpha" type="matrix" values="0 0 0 0 0 0 0 0 0 0 0 0 0 0 0 0 0 0 127 0" result="hardAlpha"/>
<feOffset dy="1"/>
<feComposite in2="hardAlpha" operator="out"/>
<feColorMatrix type="matrix" values="0 0 0 0 0 0 0 0 0 0 0 0 0 0 0 0 0 0 0.6 0"/>
<feBlend mode="normal" in2="BackgroundImageFix" result="effect1_dropShadow_5074_50327"/>
<feBlend mode="normal" in="SourceGraphic" in2="effect1_dropShadow_5074_50327" result="shape"/>
</filter>
<filter id="filter19_d_5074_50327" x="116.384" y="120.078" width="7.87402" height="4.31537" filterUnits="userSpaceOnUse" color-interpolation-filters="sRGB">
<feFlood flood-opacity="0" result="BackgroundImageFix"/>
<feColorMatrix in="SourceAlpha" type="matrix" values="0 0 0 0 0 0 0 0 0 0 0 0 0 0 0 0 0 0 127 0" result="hardAlpha"/>
<feOffset dy="1"/>
<feComposite in2="hardAlpha" operator="out"/>
<feColorMatrix type="matrix" values="0 0 0 0 0 0 0 0 0 0 0 0 0 0 0 0 0 0 0.6 0"/>
<feBlend mode="normal" in2="BackgroundImageFix" result="effect1_dropShadow_5074_50327"/>
<feBlend mode="normal" in="SourceGraphic" in2="effect1_dropShadow_5074_50327" result="shape"/>
</filter>
<filter id="filter20_d_5074_50327" x="116.819" y="125.059" width="7.87402" height="4.31537" filterUnits="userSpaceOnUse" color-interpolation-filters="sRGB">
<feFlood flood-opacity="0" result="BackgroundImageFix"/>
<feColorMatrix in="SourceAlpha" type="matrix" values="0 0 0 0 0 0 0 0 0 0 0 0 0 0 0 0 0 0 127 0" result="hardAlpha"/>
<feOffset dy="1"/>
<feComposite in2="hardAlpha" operator="out"/>
<feColorMatrix type="matrix" values="0 0 0 0 0 0 0 0 0 0 0 0 0 0 0 0 0 0 0.6 0"/>
<feBlend mode="normal" in2="BackgroundImageFix" result="effect1_dropShadow_5074_50327"/>
<feBlend mode="normal" in="SourceGraphic" in2="effect1_dropShadow_5074_50327" result="shape"/>
</filter>
<filter id="filter21_d_5074_50327" x="117.256" y="130.04" width="7.87402" height="4.31537" filterUnits="userSpaceOnUse" color-interpolation-filters="sRGB">
<feFlood flood-opacity="0" result="BackgroundImageFix"/>
<feColorMatrix in="SourceAlpha" type="matrix" values="0 0 0 0 0 0 0 0 0 0 0 0 0 0 0 0 0 0 127 0" result="hardAlpha"/>
<feOffset dy="1"/>
<feComposite in2="hardAlpha" operator="out"/>
<feColorMatrix type="matrix" values="0 0 0 0 0 0 0 0 0 0 0 0 0 0 0 0 0 0 0.6 0"/>
<feBlend mode="normal" in2="BackgroundImageFix" result="effect1_dropShadow_5074_50327"/>
<feBlend mode="normal" in="SourceGraphic" in2="effect1_dropShadow_5074_50327" result="shape"/>
</filter>
<filter id="filter22_d_5074_50327" x="117.691" y="135.021" width="7.87402" height="4.31537" filterUnits="userSpaceOnUse" color-interpolation-filters="sRGB">
<feFlood flood-opacity="0" result="BackgroundImageFix"/>
<feColorMatrix in="SourceAlpha" type="matrix" values="0 0 0 0 0 0 0 0 0 0 0 0 0 0 0 0 0 0 127 0" result="hardAlpha"/>
<feOffset dy="1"/>
<feComposite in2="hardAlpha" operator="out"/>
<feColorMatrix type="matrix" values="0 0 0 0 0 0 0 0 0 0 0 0 0 0 0 0 0 0 0.6 0"/>
<feBlend mode="normal" in2="BackgroundImageFix" result="effect1_dropShadow_5074_50327"/>
<feBlend mode="normal" in="SourceGraphic" in2="effect1_dropShadow_5074_50327" result="shape"/>
</filter>
<filter id="filter23_d_5074_50327" x="98.6846" y="121.548" width="7.72852" height="4.38232" filterUnits="userSpaceOnUse" color-interpolation-filters="sRGB">
<feFlood flood-opacity="0" result="BackgroundImageFix"/>
<feColorMatrix in="SourceAlpha" type="matrix" values="0 0 0 0 0 0 0 0 0 0 0 0 0 0 0 0 0 0 127 0" result="hardAlpha"/>
<feOffset dy="1"/>
<feComposite in2="hardAlpha" operator="out"/>
<feColorMatrix type="matrix" values="0 0 0 0 0 0 0 0 0 0 0 0 0 0 0 0 0 0 0.6 0"/>
<feBlend mode="normal" in2="BackgroundImageFix" result="effect1_dropShadow_5074_50327"/>
<feBlend mode="normal" in="SourceGraphic" in2="effect1_dropShadow_5074_50327" result="shape"/>
</filter>
<filter id="filter24_d_5074_50327" x="100.365" y="107.308" width="22.5029" height="36.3552" filterUnits="userSpaceOnUse" color-interpolation-filters="sRGB">
<feFlood flood-opacity="0" result="BackgroundImageFix"/>
<feColorMatrix in="SourceAlpha" type="matrix" values="0 0 0 0 0 0 0 0 0 0 0 0 0 0 0 0 0 0 127 0" result="hardAlpha"/>
<feOffset dy="1"/>
<feComposite in2="hardAlpha" operator="out"/>
<feColorMatrix type="matrix" values="0 0 0 0 0 0 0 0 0 0 0 0 0 0 0 0 0 0 0.6 0"/>
<feBlend mode="normal" in2="BackgroundImageFix" result="effect1_dropShadow_5074_50327"/>
<feBlend mode="normal" in="SourceGraphic" in2="effect1_dropShadow_5074_50327" result="shape"/>
</filter>
<filter id="filter25_i_5074_50327" x="46.8486" y="93.9428" width="61.7139" height="57.6634" filterUnits="userSpaceOnUse" color-interpolation-filters="sRGB">
<feFlood flood-opacity="0" result="BackgroundImageFix"/>
<feBlend mode="normal" in="SourceGraphic" in2="BackgroundImageFix" result="shape"/>
<feColorMatrix in="SourceAlpha" type="matrix" values="0 0 0 0 0 0 0 0 0 0 0 0 0 0 0 0 0 0 127 0" result="hardAlpha"/>
<feOffset dx="1" dy="1"/>
<feGaussianBlur stdDeviation="1.5"/>
<feComposite in2="hardAlpha" operator="arithmetic" k2="-1" k3="1"/>
<feColorMatrix type="matrix" values="0 0 0 0 0 0 0 0 0 0 0 0 0 0 0 0 0 0 0.25 0"/>
<feBlend mode="normal" in2="shape" result="effect1_innerShadow_5074_50327"/>
</filter>
<filter id="filter26_i_5074_50327" x="46.8486" y="93.9428" width="61.7139" height="57.6634" filterUnits="userSpaceOnUse" color-interpolation-filters="sRGB">
<feFlood flood-opacity="0" result="BackgroundImageFix"/>
<feBlend mode="normal" in="SourceGraphic" in2="BackgroundImageFix" result="shape"/>
<feColorMatrix in="SourceAlpha" type="matrix" values="0 0 0 0 0 0 0 0 0 0 0 0 0 0 0 0 0 0 127 0" result="hardAlpha"/>
<feOffset dx="1" dy="1"/>
<feGaussianBlur stdDeviation="1.5"/>
<feComposite in2="hardAlpha" operator="arithmetic" k2="-1" k3="1"/>
<feColorMatrix type="matrix" values="0 0 0 0 0 0 0 0 0 0 0 0 0 0 0 0 0 0 0.25 0"/>
<feBlend mode="normal" in2="shape" result="effect1_innerShadow_5074_50327"/>
</filter>
<filter id="filter27_i_5074_50327" x="46.8486" y="93.9428" width="61.7139" height="57.6634" filterUnits="userSpaceOnUse" color-interpolation-filters="sRGB">
<feFlood flood-opacity="0" result="BackgroundImageFix"/>
<feBlend mode="normal" in="SourceGraphic" in2="BackgroundImageFix" result="shape"/>
<feColorMatrix in="SourceAlpha" type="matrix" values="0 0 0 0 0 0 0 0 0 0 0 0 0 0 0 0 0 0 127 0" result="hardAlpha"/>
<feOffset dx="1" dy="1"/>
<feGaussianBlur stdDeviation="1.5"/>
<feComposite in2="hardAlpha" operator="arithmetic" k2="-1" k3="1"/>
<feColorMatrix type="matrix" values="0 0 0 0 0 0 0 0 0 0 0 0 0 0 0 0 0 0 0.25 0"/>
<feBlend mode="normal" in2="shape" result="effect1_innerShadow_5074_50327"/>
</filter>
<linearGradient id="paint0_linear_5074_50327" x1="34.2309" y1="118.18" x2="34.4052" y2="120.172" gradientUnits="userSpaceOnUse">
<stop stop-color="#5A5A5A"/>
<stop offset="1" stop-color="#3D3D3D"/>
</linearGradient>
<linearGradient id="paint1_linear_5074_50327" x1="51.1656" y1="116.698" x2="51.3399" y2="118.691" gradientUnits="userSpaceOnUse">
<stop stop-color="#5A5A5A"/>
<stop offset="1" stop-color="#3D3D3D"/>
</linearGradient>
<linearGradient id="paint2_linear_5074_50327" x1="34.6664" y1="123.161" x2="34.8407" y2="125.153" gradientUnits="userSpaceOnUse">
<stop stop-color="#5A5A5A"/>
<stop offset="1" stop-color="#3D3D3D"/>
</linearGradient>
<linearGradient id="paint3_linear_5074_50327" x1="51.6021" y1="121.679" x2="51.7764" y2="123.672" gradientUnits="userSpaceOnUse">
<stop stop-color="#5A5A5A"/>
<stop offset="1" stop-color="#3D3D3D"/>
</linearGradient>
<linearGradient id="paint4_linear_5074_50327" x1="35.102" y1="128.142" x2="35.2763" y2="130.134" gradientUnits="userSpaceOnUse">
<stop stop-color="#5A5A5A"/>
<stop offset="1" stop-color="#3D3D3D"/>
</linearGradient>
<linearGradient id="paint5_linear_5074_50327" x1="35.5375" y1="133.123" x2="35.7118" y2="135.115" gradientUnits="userSpaceOnUse">
<stop stop-color="#5A5A5A"/>
<stop offset="1" stop-color="#3D3D3D"/>
</linearGradient>
<linearGradient id="paint6_linear_5074_50327" x1="35.974" y1="138.104" x2="36.1483" y2="140.096" gradientUnits="userSpaceOnUse">
<stop stop-color="#5A5A5A"/>
<stop offset="1" stop-color="#3D3D3D"/>
</linearGradient>
<linearGradient id="paint7_linear_5074_50327" x1="36.4096" y1="143.085" x2="36.5839" y2="145.077" gradientUnits="userSpaceOnUse">
<stop stop-color="#5A5A5A"/>
<stop offset="1" stop-color="#3D3D3D"/>
</linearGradient>
<linearGradient id="paint8_linear_5074_50327" x1="52.0377" y1="126.66" x2="52.212" y2="128.653" gradientUnits="userSpaceOnUse">
<stop stop-color="#5A5A5A"/>
<stop offset="1" stop-color="#3D3D3D"/>
</linearGradient>
<linearGradient id="paint9_linear_5074_50327" x1="42.4365" y1="114.451" x2="45.3126" y2="147.325" gradientUnits="userSpaceOnUse">
<stop stop-color="#5A5A5A"/>
<stop offset="1" stop-color="#3D3D3D"/>
</linearGradient>
<linearGradient id="paint10_linear_5074_50327" x1="118.908" y1="110.772" x2="119.082" y2="112.764" gradientUnits="userSpaceOnUse">
<stop stop-color="#5A5A5A"/>
<stop offset="1" stop-color="#3D3D3D"/>
</linearGradient>
<linearGradient id="paint11_linear_5074_50327" x1="101.972" y1="112.253" x2="102.146" y2="114.246" gradientUnits="userSpaceOnUse">
<stop stop-color="#5A5A5A"/>
<stop offset="1" stop-color="#3D3D3D"/>
</linearGradient>
<linearGradient id="paint12_linear_5074_50327" x1="119.343" y1="115.753" x2="119.518" y2="117.745" gradientUnits="userSpaceOnUse">
<stop stop-color="#5A5A5A"/>
<stop offset="1" stop-color="#3D3D3D"/>
</linearGradient>
<linearGradient id="paint13_linear_5074_50327" x1="102.408" y1="117.234" x2="102.582" y2="119.227" gradientUnits="userSpaceOnUse">
<stop stop-color="#5A5A5A"/>
<stop offset="1" stop-color="#3D3D3D"/>
</linearGradient>
<linearGradient id="paint14_linear_5074_50327" x1="119.779" y1="120.734" x2="119.953" y2="122.726" gradientUnits="userSpaceOnUse">
<stop stop-color="#5A5A5A"/>
<stop offset="1" stop-color="#3D3D3D"/>
</linearGradient>
<linearGradient id="paint15_linear_5074_50327" x1="120.214" y1="125.715" x2="120.389" y2="127.707" gradientUnits="userSpaceOnUse">
<stop stop-color="#5A5A5A"/>
<stop offset="1" stop-color="#3D3D3D"/>
</linearGradient>
<linearGradient id="paint16_linear_5074_50327" x1="120.651" y1="130.696" x2="120.825" y2="132.688" gradientUnits="userSpaceOnUse">
<stop stop-color="#5A5A5A"/>
<stop offset="1" stop-color="#3D3D3D"/>
</linearGradient>
<linearGradient id="paint17_linear_5074_50327" x1="121.087" y1="135.677" x2="121.261" y2="137.669" gradientUnits="userSpaceOnUse">
<stop stop-color="#5A5A5A"/>
<stop offset="1" stop-color="#3D3D3D"/>
</linearGradient>
<linearGradient id="paint18_linear_5074_50327" x1="102.844" y1="122.215" x2="103.018" y2="124.208" gradientUnits="userSpaceOnUse">
<stop stop-color="#5A5A5A"/>
<stop offset="1" stop-color="#3D3D3D"/>
</linearGradient>
<linearGradient id="paint19_linear_5074_50327" x1="110.179" y1="108.524" x2="113.055" y2="141.398" gradientUnits="userSpaceOnUse">
<stop stop-color="#5A5A5A"/>
<stop offset="1" stop-color="#3D3D3D"/>
</linearGradient>
<radialGradient id="paint20_diamond_5074_50327" cx="0" cy="0" r="1" gradientUnits="userSpaceOnUse" gradientTransform="translate(104.425 82.928) rotate(93.852) scale(123.471 53.0785)">
<stop stop-color="white"/>
<stop offset="1" stop-color="white" stop-opacity="0"/>
</radialGradient>
<radialGradient id="paint21_radial_5074_50327" cx="0" cy="0" r="1" gradientUnits="userSpaceOnUse" gradientTransform="translate(77.746 132.944) rotate(85) scale(186 186)">
<stop stop-color="#124054"/>
<stop offset="0.552844" stop-color="#235F79" stop-opacity="0.817878"/>
<stop offset="0.632043" stop-color="#397C99" stop-opacity="0"/>
</radialGradient>
<linearGradient id="paint22_linear_5074_50327" x1="30.1242" y1="7.5152" x2="30.1242" y2="19.5152" gradientUnits="userSpaceOnUse">
<stop stop-color="#CDBC4D"/>
<stop offset="0.734375" stop-color="#FFE540"/>
</linearGradient>
<linearGradient id="paint23_linear_5074_50327" x1="41.2248" y1="6.54401" x2="41.2248" y2="18.544" gradientUnits="userSpaceOnUse">
<stop stop-color="#CDBC4D"/>
<stop offset="0.734375" stop-color="#FFE540"/>
</linearGradient>
<linearGradient id="paint24_linear_5074_50327" x1="52.3253" y1="5.57288" x2="52.3253" y2="17.5729" gradientUnits="userSpaceOnUse">
<stop stop-color="#CDBC4D"/>
<stop offset="0.734375" stop-color="#FFE540"/>
</linearGradient>
<linearGradient id="paint25_linear_5074_50327" x1="63.4259" y1="4.60168" x2="63.4259" y2="16.6017" gradientUnits="userSpaceOnUse">
<stop stop-color="#CDBC4D"/>
<stop offset="0.734375" stop-color="#FFE540"/>
</linearGradient>
<linearGradient id="paint26_linear_5074_50327" x1="74.5255" y1="3.63055" x2="74.5255" y2="15.6306" gradientUnits="userSpaceOnUse">
<stop stop-color="#CDBC4D"/>
<stop offset="0.734375" stop-color="#FFE540"/>
</linearGradient>
<linearGradient id="paint27_linear_5074_50327" x1="92.5998" y1="2.04932" x2="92.5998" y2="14.0493" gradientUnits="userSpaceOnUse">
<stop stop-color="#CDBC4D"/>
<stop offset="0.734375" stop-color="#FFE540"/>
</linearGradient>
<linearGradient id="paint28_linear_5074_50327" x1="103.7" y1="1.07813" x2="103.7" y2="13.0781" gradientUnits="userSpaceOnUse">
<stop stop-color="#CDBC4D"/>
<stop offset="0.734375" stop-color="#FFE540"/>
</linearGradient>
<radialGradient id="paint29_radial_5074_50327" cx="0" cy="0" r="1" gradientUnits="userSpaceOnUse" gradientTransform="translate(89.2072 257.58) rotate(85) scale(14.9145 14.7729)">
<stop offset="0.644364" stop-color="#EFBE3F"/>
<stop offset="0.742536" stop-color="#B58C24"/>
</radialGradient>
</defs>
</svg>
