<svg width="589" height="189" viewBox="0 0 589 189" fill="none" xmlns="http://www.w3.org/2000/svg">
<path opacity="0.3" fill-rule="evenodd" clip-rule="evenodd" d="M9.26385 289.958C12.4135 287.485 17.0875 283.89 19.6508 281.971L24.311 278.48H44.2667H64.2223L65.1102 280.075C66.797 283.107 70.377 282.728 71.4503 279.404C72.1161 277.343 71.2659 274.762 69.6734 274.009C68.9061 273.646 79.0949 273.409 96.562 273.384L124.686 273.343L130.376 277.712C133.505 280.114 138.397 283.868 141.247 286.054L146.428 290.028L174.082 290.033L201.735 290.038L203.098 291.643C204.743 293.579 206.848 293.708 208.329 291.964C210.499 289.41 208.916 284.901 205.85 284.901C205.087 284.901 203.848 285.624 203.098 286.506L201.735 288.112H174.415H147.094L142.67 284.685C140.238 282.801 137.695 280.912 137.02 280.489C136.346 280.066 135.793 279.496 135.793 279.223C135.793 278.95 138.951 276.504 142.812 273.788L149.831 268.849H187.957C225.41 268.849 226.101 268.871 227.018 270.133C228.137 271.671 230.284 271.804 231.469 270.408C232.741 268.91 232.554 265.898 231.114 264.711C229.47 263.355 228.862 263.444 226.972 265.317L225.351 266.922H187.3H149.248L141.437 272.405L133.626 277.889L132.119 276.657C131.29 275.98 129.385 274.452 127.885 273.261L125.158 271.096L62.7115 271.283C25.1439 271.395 -0.412354 271.231 -1.43549 270.87C-3.0722 270.293 -14.7592 261.806 -24.6836 253.986L-29.4525 250.227H-44.7264C-57.9395 250.227 -59.9999 250.357 -59.9999 251.191C-59.9999 252.023 -57.9886 252.154 -45.1699 252.154H-30.3392L-16.2388 262.749L-2.13849 273.343L32.8769 273.384C54.563 273.409 67.421 273.648 66.6536 274.01C65.9719 274.333 65.2705 275.037 65.0955 275.575C64.8173 276.428 62.1215 276.554 44.1047 276.554H23.433L13.0604 284.58L2.68713 292.607H-28.6562C-56.1539 292.607 -59.9999 292.725 -59.9999 293.57C-59.9999 294.415 -56.1207 294.528 -28.2313 294.495L3.53735 294.456L9.26385 289.958ZM580.408 291.964C581.077 290.703 581.68 290.68 615.045 290.68C644.864 290.68 649 290.563 649 289.717C649 288.871 644.903 288.754 615.401 288.754H581.803L580.182 287.149C579.291 286.266 578.212 285.543 577.785 285.543C576.576 285.543 574.828 287.951 574.828 289.618C574.828 292.847 579.008 294.605 580.408 291.964ZM576.464 291.322C575.864 290.616 575.373 289.77 575.373 289.442C575.373 288.452 577.024 286.828 578.03 286.828C580.141 286.828 580.995 289.749 579.425 291.598C578.302 292.919 577.779 292.87 576.464 291.322ZM-21.8531 290.258C-20.6249 288.419 -20.7552 286.736 -22.2855 284.687C-22.9465 283.803 -23.709 283.579 -25.3571 283.787C-27.7197 284.085 -27.3009 284.357 -39.0741 274.903L-44.054 270.905L-52.027 270.81C-59.7224 270.719 -59.9999 270.761 -59.9999 272.03C-59.9999 273.294 -59.6973 273.343 -51.9005 273.343H-43.801L-39.7657 276.723C-37.5465 278.582 -34.0817 281.399 -32.0665 282.983C-29.3526 285.117 -28.3976 286.245 -28.3851 287.332C-28.3328 291.765 -24.1208 293.653 -21.8531 290.258ZM204.231 290.007C203.849 288.591 204.761 286.828 205.875 286.828C206.989 286.828 207.901 288.591 207.519 290.007C207.041 291.785 204.71 291.785 204.231 290.007ZM-26.2242 289.021C-27.1945 287.644 -26.2172 285.864 -24.4905 285.864C-23.5312 285.864 -23.1379 286.27 -23.0027 287.397C-22.7109 289.823 -24.8859 290.919 -26.2242 289.021ZM7.92499 285.251C9.38446 283.533 9.57635 282.294 8.68518 280.333C7.79242 278.37 5.61304 277.646 3.79913 278.711C2.34784 279.564 2.08008 279.458 -1.72998 276.535C-3.93225 274.846 -11.3396 269.247 -18.1913 264.093L-30.6479 254.722L-37.2797 254.736L-43.9111 254.75L-47.6819 257.625C-51.3322 260.409 -51.589 260.501 -55.7263 260.501C-59.1617 260.501 -59.9999 260.69 -59.9999 261.464C-59.9999 262.248 -59.1077 262.427 -55.2278 262.424C-50.4661 262.42 -50.4481 262.413 -46.9107 259.538L-43.3657 256.656L-37.3294 256.652L-31.2936 256.649L-22.6041 263.155C-17.8254 266.733 -12.197 270.964 -10.0973 272.555C-7.99756 274.147 -4.51196 276.781 -2.35168 278.409C0.0730591 280.236 1.58649 281.811 1.60236 282.522C1.63831 284.113 4.06146 286.828 5.44617 286.828C6.07336 286.828 7.18872 286.118 7.92499 285.251ZM175.928 283.938L177.292 282.333H188.875H200.458L203.421 278.801L206.383 275.27H245.066H283.749L298.3 265.638L312.851 256.006L349.116 256.006H385.382L386.568 257.612C388.046 259.613 389.407 259.65 390.938 257.731C392.459 255.825 392.449 253.779 390.911 252.511C389.302 251.184 387.983 251.25 386.734 252.721C385.922 253.676 384.751 253.966 381.144 254.106C378.634 254.203 342.06 254.237 299.868 254.181L223.156 254.08L216.97 248.256C213.567 245.053 210.702 242.163 210.602 241.835C210.491 241.469 233.769 241.238 270.672 241.238C322.644 241.238 330.966 241.365 331.226 242.164C331.392 242.673 332.142 243.564 332.893 244.143C336.402 246.85 340.041 240.919 337.04 237.385C335.571 235.656 333.85 235.768 332.133 237.704L330.712 239.308L225.878 239.349C125.96 239.389 120.908 239.445 118.158 240.559C116.57 241.203 113.57 242.59 111.489 243.644C109.408 244.697 104.515 247.084 100.616 248.946C96.7163 250.81 91.2679 253.45 88.5089 254.813L83.4918 257.291H67.1679H50.8445L31.3907 246.054L11.9368 234.817H-24.0312C-55.6396 234.817 -59.9999 234.934 -59.9999 235.78C-59.9999 236.626 -55.6625 236.743 -24.2336 236.743H11.5332L30.9533 248.007L50.3733 259.271L106.97 259.24L163.566 259.21L164.168 260.534C164.977 262.313 166.819 263.028 168.653 262.275C171.286 261.195 171.387 256.232 168.804 254.847C167.214 253.994 164.857 254.773 164.353 256.318C164.075 257.174 159.495 257.287 126.054 257.263L88.072 257.235L92.7077 254.968C100.67 251.076 105.812 248.58 113.561 244.847L121.052 241.238L163.761 241.246C202.945 241.253 206.58 241.343 207.808 242.338C208.545 242.934 212.085 246.182 215.675 249.554L222.203 255.685L265.578 256.006L308.953 256.327L306.498 258.01C305.149 258.935 302.326 260.786 300.227 262.124C298.127 263.461 293.428 266.533 289.784 268.949L283.159 273.343L244.244 273.348L205.33 273.354L202.614 276.88L199.899 280.406H188.298C178.439 280.406 176.697 280.265 176.697 279.46C176.697 277.91 173.731 276.449 172.082 277.186C170.834 277.746 169.607 280.013 169.607 281.762C169.607 282.91 172.266 285.543 173.425 285.543C174.052 285.543 175.179 284.821 175.928 283.938ZM4.67285 284.511C4.16125 284.28 3.81006 283.366 3.81006 282.264C3.81006 280.754 4.04456 280.406 5.06445 280.406C6.28064 280.406 7.62775 281.462 7.62775 282.416C7.62775 282.882 6.08209 284.901 5.72437 284.901C5.62073 284.901 5.14734 284.726 4.67285 284.511ZM172.1 282.608C171.03 281.348 171.033 281.102 172.13 279.675C172.805 278.797 173.261 278.675 174.039 279.165C175.188 279.89 175.425 282.695 174.379 283.192C173.252 283.727 172.994 283.661 172.1 282.608ZM649 280.085C649 279.233 639.41 279.122 565.965 279.122L482.93 279.12L472.023 275.257C466.023 273.133 459.152 270.693 456.752 269.836C454.352 268.979 449.873 267.383 446.799 266.288C442.506 264.761 441.208 264.04 441.208 263.185C441.208 261.142 439.606 259.217 437.905 259.217C434.644 259.217 432.959 263.631 435.209 266.28C436.38 267.658 438.989 267.995 439.928 266.888C440.553 266.153 442.99 266.936 467.902 275.874L482.324 281.049H565.662C639.377 281.049 649 280.937 649 280.085ZM66.8407 279.398C66.3695 278.842 65.9839 278.14 65.9839 277.838C65.9839 276.783 67.7662 275.198 68.5532 275.553C68.989 275.751 69.4482 275.912 69.5736 275.912C70.1462 275.912 69.7247 279.694 69.1198 279.981C67.9931 280.516 67.7351 280.45 66.8407 279.398ZM649 273.664C649 272.818 644.68 272.701 613.414 272.694L577.827 272.688L558 261.136L538.173 249.585H481.982L425.79 249.585L424.526 247.98C422.193 245.015 418.302 246.759 418.302 250.77C418.302 254.608 422.854 256.298 424.624 253.117L425.518 251.512L481.585 251.512H537.653L557.436 263.07L577.219 274.628H613.109C644.648 274.628 649 274.511 649 273.664ZM227.87 269.712C226.051 267.774 226.962 264.996 229.417 264.996C232.345 264.996 232.062 270.07 229.097 270.724C228.97 270.752 228.418 270.296 227.87 269.712ZM649 268.527C649 267.691 646.695 267.564 631.522 267.564H614.045L615.024 265.979L616.004 264.394L632.502 264.374C646.796 264.356 649 264.225 649 263.391C649 262.556 646.821 262.427 632.663 262.427H616.327L614.963 260.822C613.319 258.886 611.214 258.757 609.732 260.501C608.338 262.143 608.338 264.638 609.732 266.28L610.823 267.564H608.396C606.31 267.564 603.489 266.03 588.332 256.649L570.696 245.733H561.939C553.874 245.733 553.103 245.631 552.194 244.448C549.81 241.346 545.711 244.589 546.993 248.562C547.742 250.878 549.965 251.39 551.913 249.694C553.306 248.482 554.279 248.342 562.095 248.234C572.209 248.093 569.139 246.781 591.25 260.698L605.218 269.491H627.109C646.204 269.491 649 269.367 649 268.527ZM41.6297 265.106C42.126 264.46 42.5323 263.06 42.5323 261.995C42.5323 258.066 38.6672 256.541 36.3084 259.538C35.0649 261.117 34.9073 261.143 26.5984 261.143C18.8049 261.143 17.9672 261.028 15.7534 259.648C14.4341 258.825 11.2682 256.896 8.71851 255.361C6.16882 253.826 1.26038 250.778 -2.18921 248.586C-5.63873 246.395 -10.3738 243.431 -12.7113 241.999L-16.9615 239.395L-38.4807 239.373C-57.0598 239.353 -59.9999 239.479 -59.9999 240.294C-59.9999 241.105 -57.5021 241.238 -42.233 241.238H-24.4659L-26.1021 243.164L-27.7383 245.091H-43.8691C-58.1031 245.091 -59.9999 245.208 -59.9999 246.09C-59.9999 246.975 -58.1298 247.075 -43.6919 246.969C-27.7623 246.853 -27.3544 246.882 -26.1431 248.211C-24.2571 250.279 -22.964 250.522 -21.3486 249.108C-19.4124 247.414 -19.1599 244.385 -20.8043 242.581L-22.0286 241.238H-19.7566C-18.2448 241.238 -16.4308 241.911 -14.3365 243.248C-10.9366 245.419 -4.62653 249.336 5.71887 255.698C9.31842 257.911 13.4661 260.475 14.9354 261.396C17.4938 262.998 17.9775 263.07 26.3257 263.07C34.9254 263.07 35.0616 263.091 36.3084 264.675C37.8207 266.597 40.3279 266.8 41.6297 265.106ZM610.615 264.205C609.797 262.669 611.337 260.841 612.944 261.442C614.074 261.864 614.554 264.243 613.709 265.237C613.065 265.995 611.245 265.388 610.615 264.205ZM436.092 264.205C435.274 262.669 436.814 260.841 438.42 261.442C439.551 261.864 440.03 264.243 439.186 265.237C438.542 265.995 436.722 265.388 436.092 264.205ZM37.5858 263.337C36.6171 261.963 37.5917 260.18 39.3118 260.18C40.6475 260.18 41.2676 261.646 40.6868 263.428C40.2853 264.66 38.4813 264.607 37.5858 263.337ZM649 257.933C649 256.679 648.636 256.649 633.636 256.649C621.399 256.649 618.096 256.469 617.411 255.768C616.937 255.283 610.941 250.66 604.087 245.494L591.624 236.101H528.238H464.851L459.984 232.352C449.52 224.294 444.13 220.216 443.002 219.506C442.157 218.973 434.125 218.764 414.545 218.764H387.265L385.902 217.159C384.12 215.062 382.147 215.095 380.711 217.246C379.36 219.267 379.29 220.56 380.429 222.474C381.846 224.855 386.67 223.937 386.67 221.287C386.67 220.927 397.599 220.69 414.14 220.69L441.609 220.69L445.293 223.599C447.32 225.199 450.065 227.258 451.395 228.176L453.812 229.844L448.192 233.853C445.101 236.059 441.757 238.478 440.762 239.229C438.96 240.589 438.775 240.596 401.3 240.596H363.648L362.575 238.991C361.262 237.025 358.383 236.801 357.031 238.56C355.036 241.155 356.738 245.733 359.698 245.733C360.462 245.733 361.7 245.01 362.45 244.127L363.814 242.522H401.704H439.594L441.901 240.796C443.17 239.846 446.706 237.281 449.761 235.094L455.313 231.118L457.123 232.562C458.119 233.357 460.111 234.911 461.551 236.017L464.169 238.027H527.655H591.14L596.754 242.286C601.994 246.26 609.547 252.043 616.061 257.069L618.844 259.217H633.922C648.636 259.217 649 259.186 649 257.933ZM387.005 256.951C385.539 255.226 387.354 251.981 389.428 252.619C390.018 252.801 390.647 253.641 390.827 254.486C391.443 257.373 388.807 259.072 387.005 256.951ZM636.396 251.772C639.834 248.981 639.942 248.943 644.441 248.943C648.13 248.943 649 248.76 649 247.98C649 247.197 648.101 247.017 644.181 247.017C639.397 247.017 639.334 247.038 635.591 249.893L631.82 252.768L626.235 252.782L620.648 252.796L615.327 248.805C612.4 246.61 608.842 243.865 607.42 242.705C605.998 241.545 604.707 240.596 604.551 240.596C604.395 240.596 603.045 239.584 601.552 238.348C600.058 237.112 598.733 236.101 598.608 236.101C598.482 236.101 595.964 234.207 593.012 231.892C589.479 229.123 587.416 227.054 586.978 225.841C586.367 224.152 584.394 221.975 583.474 221.975C582.595 221.975 579.736 225.389 579.736 226.44C579.736 227.067 580.245 228.342 580.867 229.272C582.138 231.175 584.634 231.563 585.718 230.025C586.295 229.207 586.568 229.236 587.83 230.251C588.628 230.891 590.63 232.438 592.28 233.689C598.744 238.589 608.104 245.709 613.868 250.108L619.913 254.722L626.412 254.662L632.911 254.601L636.396 251.772ZM547.889 248.141C547.071 246.603 548.068 244.829 549.895 244.57C551.708 244.314 552.802 246.365 551.904 248.34C551.174 249.945 548.786 249.827 547.889 248.141ZM-24.4409 247.531C-25.4438 246.35 -25.2208 244.572 -23.9697 243.785C-21.8094 242.423 -20.1138 246.155 -22.2321 247.608C-23.4712 248.457 -23.6594 248.451 -24.4409 247.531ZM649 237.064C649 236.253 647.767 236.101 641.174 236.101C633.415 236.101 633.329 236.085 631.177 234.251C629.984 233.232 626.388 230.315 623.187 227.768C618.087 223.709 617.368 222.912 617.368 221.318C617.368 219.323 615.221 216.838 613.498 216.838C611.977 216.838 610.278 219.39 610.278 221.674C610.278 223.309 610.627 223.92 612.089 224.847C613.539 225.766 614.133 225.849 615.069 225.259C616.088 224.617 616.782 224.966 620.484 227.975C622.819 229.873 626.563 232.911 628.802 234.726L632.874 238.027H640.937C647.741 238.027 649 237.877 649 237.064ZM523.664 232.569L524.849 230.964H545.439H566.028L571.928 226.391C575.172 223.875 579.791 220.263 582.19 218.362L586.553 214.906L617.777 214.909C645.168 214.911 649 214.793 649 213.948C649 213.103 645.14 212.985 617.532 212.985H586.064L582.491 215.785C580.526 217.325 575.855 220.937 572.111 223.812L565.305 229.038H545.177H525.05L523.786 227.433C521.352 224.339 517.562 225.971 517.562 230.113C517.562 234.024 521.437 235.585 523.664 232.569ZM266.927 232.105C268.113 230.112 267.985 228.033 266.582 226.494C264.98 224.736 263.108 224.844 261.455 226.791L260.091 228.396L193.17 228.386L126.249 228.375L128.43 226.814C129.63 225.954 131.471 224.654 132.521 223.924C133.571 223.193 136.393 221.159 138.793 219.403L143.156 216.211L187.133 216.203L231.11 216.196L232.003 217.801C233.274 220.084 236.192 220.032 237.75 217.7C239.045 215.762 238.838 213.924 237.127 212.183C235.58 210.608 233.827 210.783 232.326 212.664L231.045 214.269H195.341H159.636L150.578 208.264C145.596 204.961 139.188 200.727 136.339 198.855C133.489 196.983 130.352 194.917 129.368 194.265C127.682 193.148 125.622 193.08 93.5515 193.08H59.5233L57.8489 191.109C56.5684 189.601 55.8855 189.241 54.9437 189.58C51.7607 190.722 50.7671 194.461 52.9977 196.907C54.6028 198.669 56.4963 198.557 58.0278 196.611L59.2914 195.006H93.3758H127.46L129.469 196.611C130.574 197.494 131.578 198.217 131.699 198.217C131.821 198.217 137.393 201.829 144.082 206.243L156.245 214.269H149.494C142.336 214.269 142.286 214.287 136.339 218.783C135.889 219.123 132.752 221.425 129.369 223.898L123.217 228.396H101.723C88.2732 228.396 80.1044 228.16 79.8977 227.767C79.7161 227.42 75.2227 223.038 69.9123 218.028C57.627 206.437 55.6216 204.461 55.6216 203.948C55.6216 203.719 62.3817 203.474 70.6442 203.406L85.6668 203.28L87.2244 205.243C89.1082 207.617 90.674 207.733 92.4595 205.63C94.0521 203.756 94.1328 202.298 92.7612 200.196C91.4539 198.194 88.8088 198.122 87.0739 200.04L85.8124 201.436L46.1013 201.271L6.38971 201.106L13.8408 195.648C17.9387 192.646 22.5734 189.252 24.1403 188.106C26.9398 186.058 27.1013 186.022 33.5384 186.019C39.4989 186.017 40.1495 186.132 40.7697 187.301C42.1265 189.859 46.35 188.21 46.35 185.122C46.35 184.508 46.0959 183.447 45.7855 182.764C44.9958 181.028 41.6984 181.055 40.7697 182.806C40.1468 183.98 39.4978 184.09 33.2051 184.09H26.3218L19.2924 189.315C15.4267 192.188 10.1169 196.117 7.49359 198.046L2.72363 201.554L-28.6381 201.475C-56.3922 201.407 -59.9999 201.51 -59.9999 202.376C-59.9999 203.446 -59.6406 203.451 16.9866 203.384L51.7063 203.354L54.6181 206.039C56.2198 207.516 57.6531 208.9 57.8031 209.115C57.9531 209.329 63.0421 214.189 69.1116 219.914L80.148 230.322H170.202H260.256L261.329 231.927C262.752 234.058 265.71 234.152 266.927 232.105ZM519.471 230.001C519.471 228.398 519.69 228.075 520.775 228.075C522.521 228.075 523.478 229.857 522.487 231.262C522.081 231.839 521.236 232.224 520.61 232.119C519.744 231.974 519.471 231.465 519.471 230.001ZM262.411 229.753C262.099 227.158 264.57 226.143 265.613 228.437C266.064 229.428 266.046 230.003 265.544 230.715C264.533 232.15 262.628 231.564 262.411 229.753ZM-33.1851 229.835C-33.0853 229.568 -30.6719 226.908 -27.8223 223.924C-24.9727 220.941 -21.6594 217.427 -20.4596 216.116C-15.3379 210.52 -17.2603 210.979 0.789734 211.04L16.8796 211.094L18.2278 212.681C19.9507 214.71 21.4963 214.694 23.2481 212.632C24.335 211.352 24.5587 210.616 24.2701 209.264C23.7193 206.678 22.9606 205.922 20.9193 205.922C19.63 205.922 18.7159 206.406 17.8881 207.527L16.7024 209.133H0.251404H-16.1996L-19.1474 212.196C-22.8854 216.08 -27.2164 220.716 -31.1306 225.025L-34.1929 228.396H-47.0961C-58.2023 228.396 -59.9999 228.53 -59.9999 229.359C-59.9999 230.189 -58.1566 230.322 -46.6833 230.322C-39.3593 230.322 -33.2854 230.103 -33.1851 229.835ZM581.991 227.931C580.83 225.488 583.637 223.304 585.161 225.465C585.644 226.15 585.656 226.729 585.209 227.713C584.476 229.324 582.71 229.444 581.991 227.931ZM-32.0555 224.496C-28.3524 221.956 -30.7728 215.749 -34.9636 217.039C-35.7325 217.276 -37.3398 216.386 -40.0487 214.223L-44.0087 211.059H-52.0041C-58.7477 211.059 -59.9999 211.21 -59.9999 212.022C-59.9999 212.832 -58.787 212.985 -52.358 212.985H-44.7161L-40.9431 215.939C-37.6005 218.556 -37.1751 219.117 -37.2177 220.86C-37.2951 224.086 -34.4154 226.115 -32.0555 224.496ZM611.914 220.948C611.914 219.505 612.109 219.347 613.682 219.526C615.741 219.761 616.421 221.72 614.898 223.031C613.565 224.178 611.914 223.026 611.914 220.948ZM-35.1849 221.012C-35.1849 219.548 -34.9117 219.039 -34.0462 218.894C-32.3877 218.615 -31.4 220.247 -32.1843 221.973C-33.1545 224.107 -35.1849 223.456 -35.1849 221.012ZM381.385 220.924C380.889 219.403 381.948 217.801 383.45 217.801C384.785 217.801 385.405 219.267 384.824 221.049C384.41 222.321 381.81 222.227 381.385 220.924ZM514.067 213.948L515.43 212.343H561.1H606.769L613.023 202.659C616.462 197.334 619.549 192.566 619.882 192.065C620.378 191.319 623.08 191.154 634.744 191.154C647.052 191.154 649 191.022 649 190.19C649 189.36 647.152 189.227 635.638 189.227C627.094 189.227 622.276 188.995 622.276 188.585C622.276 188.175 627.094 187.943 635.638 187.943C647.152 187.943 649 187.81 649 186.98C649 186.15 647.132 186.017 635.46 186.017H621.921L620.64 187.622L619.359 189.227H570.039H520.719L519.646 187.622C517.616 184.583 513.199 186.342 513.199 190.19C513.199 194.039 517.616 195.798 519.646 192.759L520.719 191.154H569.316C596.044 191.154 617.911 191.371 617.909 191.635C617.907 191.9 616.782 193.778 615.411 195.809L612.916 199.501H532.055C452.236 199.501 451.182 199.485 450.22 198.233C448.646 196.186 447.27 195.997 445.798 197.626C444.286 199.298 444.095 201.524 445.338 202.987C446.555 204.419 449.166 204.267 450.093 202.71C450.853 201.431 451.353 201.424 531.163 201.586L611.468 201.748L608.626 206.083L605.784 210.417H560.607H515.43L514.067 208.812C511.451 205.732 507.745 207.34 507.745 211.555C507.745 215.375 511.612 216.839 514.067 213.948ZM190.21 207.491C192.557 205.556 191.18 200.785 188.275 200.785C187.642 200.785 186.971 201.077 186.784 201.433C186.451 202.067 184.454 200.912 171.788 192.754C168.639 190.726 164.221 187.888 161.972 186.449C159.722 185.01 156.899 183.172 155.7 182.364L153.518 180.895L190.877 180.898L228.236 180.902L229.52 182.496C231.072 184.422 233.032 184.544 234.508 182.806C235.982 181.071 235.881 178.586 234.26 176.677C232.508 174.615 231.502 174.689 229.515 177.027L227.879 178.954H173.631H119.382L106.181 168.682L92.9804 158.411L134.274 158.409C174.171 158.406 175.587 158.447 176.118 159.616C177.168 161.925 180.929 161.814 182.279 159.433C183.016 158.133 182.707 155.406 181.699 154.332C179.891 152.406 175.606 153.497 175.606 155.883C175.606 156.222 172.378 156.48 168.159 156.48C160.979 156.48 160.744 156.437 161.614 155.305C162.756 153.82 162.781 150.461 161.66 149.141C160.278 147.514 157.249 147.844 156.195 149.738C155.405 151.157 154.919 151.343 152.007 151.343C148.851 151.343 148.751 151.294 149.616 150.168C151.611 147.572 149.909 142.996 146.947 142.996C146.165 142.996 145.004 143.699 144.29 144.607L143.021 146.218L95.2885 146.22L47.5559 146.223L41.0903 142.919C37.5339 141.103 34.5436 139.535 34.4448 139.436C34.3456 139.336 37.5645 137.351 41.597 135.025L48.9291 130.795H56.1801H63.4304L66.2871 133.335L69.1438 135.874H74.4619H79.7799L82.2303 133.335L84.6807 130.795H113.211H141.743L143.106 132.401C145.444 135.153 148.519 133.831 148.519 130.074C148.519 126.549 145.4 125.103 143.155 127.586C142.022 128.839 141.247 128.872 113.054 128.881L84.1152 128.89L81.6468 131.448C79.1854 133.998 79.1653 134.006 74.5802 134.006C70.0988 134.006 69.9036 133.941 66.8679 131.438L63.7538 128.869H56.0742H48.3942L40.4386 133.471C36.063 136.002 32.2284 138.072 31.9175 138.072C31.6066 138.071 28.1522 136.434 24.2418 134.433L17.1316 130.795H-21.4342C-55.3511 130.795 -59.9999 130.912 -59.9999 131.759C-59.9999 132.606 -55.3817 132.722 -21.7068 132.722H16.5862L23.6964 136.297C27.6068 138.264 31.2974 140.137 31.8973 140.46C32.4973 140.784 36.1541 142.643 40.0231 144.59L47.0585 148.132H95.1805H143.303L144.196 149.738L145.09 151.343L102.946 151.378C47.0869 151.425 48.2234 151.446 46.1717 150.355C45.22 149.849 38.0908 146.252 30.3283 142.362L16.2159 135.29H-21.8923C-59.6362 135.29 -59.9999 135.302 -59.9999 136.574C-59.9999 137.846 -59.6362 137.859 -21.6071 137.859H16.7864L20.5239 139.684C22.58 140.688 29.2932 144.083 35.4423 147.229L46.6227 152.948L101.095 153.269L155.567 153.59L156.381 155.035L157.196 156.48H102.515C49.4014 156.48 47.7686 156.444 45.5919 155.226C44.3588 154.536 39.1782 151.9 34.0789 149.369C28.9796 146.837 22.8936 143.79 20.5544 142.597L16.301 140.427H-21.8492C-55.3975 140.427 -59.9999 140.543 -59.9999 141.39C-59.9999 142.237 -55.4171 142.353 -22.0286 142.353H15.9426L27.465 148.167C33.8024 151.365 40.9098 154.977 43.2599 156.193L47.533 158.406H68.6912H89.8499L101.505 167.482C107.915 172.473 114.422 177.538 115.965 178.736L118.771 180.915L134.336 180.861L149.902 180.806L156.093 184.856C159.498 187.084 167.263 192.085 173.35 195.969C182.777 201.987 184.524 203.334 185.146 205.068C185.81 206.919 187.367 208.49 188.538 208.49C188.791 208.49 189.543 208.04 190.21 207.491ZM186.422 205.62C185.953 204.407 185.971 203.802 186.5 203.052C187.851 201.136 190.877 202.233 190.877 204.638C190.877 207.432 187.419 208.195 186.422 205.62ZM88.6561 204.271C88.1849 203.716 87.7993 203.014 87.7993 202.711C87.7993 201.657 89.5816 200.072 90.3686 200.427C90.8044 200.624 91.2635 200.785 91.389 200.785C91.9109 200.785 91.5657 203.799 90.9625 204.509C90.1002 205.525 89.6847 205.482 88.6561 204.271ZM624.905 203.033L625.978 201.427H637.489C647.357 201.427 649 201.29 649 200.464C649 199.638 647.357 199.501 637.489 199.501H625.978L624.905 197.896C623.51 195.808 620.938 195.731 619.519 197.735C618.135 199.688 618.203 201.563 619.72 203.242C621.422 205.123 623.567 205.037 624.905 203.033ZM445.759 201.68C445.089 200.49 445.123 200.145 446.038 198.814C446.959 197.475 447.245 197.388 448.507 198.066C450.191 198.969 450.465 201.637 448.98 202.668C447.664 203.583 446.656 203.274 445.759 201.68ZM620.729 202.148C620.327 201.848 620.082 200.914 620.184 200.07C620.33 198.845 620.695 198.538 621.996 198.538C623.133 198.538 623.682 198.888 623.815 199.699C624.238 202.289 622.629 203.565 620.729 202.148ZM54.0073 195.358C52.8718 193.747 53.5464 192.117 55.3489 192.117C56.4756 192.117 57.0275 192.469 57.159 193.271C57.3755 194.595 56.3589 196.29 55.3489 196.29C54.9725 196.29 54.3688 195.871 54.0073 195.358ZM-10.0973 193.011C-7.39764 191.209 -4.08441 188.995 -2.73456 188.092C-1.38477 187.189 3.59131 183.896 8.32361 180.775L16.9276 175.101H33.6006H50.274L57.0003 180.559L63.7271 186.017H74.8502H85.9728L87.2539 187.622C88.877 189.656 90.7482 189.666 92.4595 187.651C94.093 185.728 94.1328 184.764 92.6679 182.572C91.1757 180.338 88.7488 180.301 87.0292 182.485L85.7655 184.09H74.9996H64.2343L58.9735 179.75C56.0803 177.363 53.0604 174.917 52.2625 174.316C50.9771 173.346 48.856 173.219 33.5689 173.194C14.6817 173.163 16.4155 172.87 10.3547 177.112C9.30481 177.847 3.00067 182.029 -3.65411 186.406L-15.7546 194.364H-37.877C-57.1782 194.364 -59.9999 194.487 -59.9999 195.327C-59.9999 196.168 -57.1373 196.29 -37.5029 196.289L-15.0057 196.287L-10.0973 193.011ZM515.343 191.421C514.372 190.044 515.35 188.264 517.076 188.264C518.036 188.264 518.429 188.669 518.564 189.797C518.856 192.223 516.681 193.319 515.343 191.421ZM41.9509 187.278C40.6998 186.49 40.5602 183.934 41.7072 182.813C42.1544 182.377 43.1039 182.194 43.8239 182.406C45.5756 182.924 46.0119 185.131 44.6735 186.706C43.4551 188.141 43.3536 188.162 41.9509 187.278ZM-5.27338 185.484C-3.35199 182.985 -4.74164 179.596 -7.68726 179.596C-8.61493 179.596 -9.68335 180.136 -10.2238 180.88C-11.0441 182.007 -11.8245 182.162 -16.6266 182.151L-22.0957 182.137L-29.9002 174.766L-37.7041 167.396H-48.8524C-59.6362 167.396 -59.9999 167.437 -59.9999 168.68C-59.9999 169.922 -59.6362 169.964 -48.8327 169.964H-37.6648L-30.1783 177.027L-22.6918 184.09H-16.662C-11.223 184.09 -10.5658 184.216 -9.95111 185.375C-9.08508 187.007 -6.49066 187.068 -5.27338 185.484ZM-8.76984 185.352C-9.94897 184.609 -10.172 182.188 -9.17017 181.008C-8.21301 179.881 -6.85382 180.066 -5.77509 181.469C-4.53815 183.078 -5.42877 185.344 -7.54272 185.966C-7.63708 185.994 -8.18951 185.717 -8.76984 185.352ZM600.382 183.099C601.393 181.587 601.762 181.478 605.359 181.636C607.744 181.742 609.392 181.535 609.625 181.102C609.834 180.714 611.464 178.209 613.247 175.536L616.489 170.676L617.465 172.568C618.287 174.157 618.792 174.459 620.636 174.459C622.47 174.459 623.634 175.143 627.73 178.632L632.63 182.806H640.815C647.727 182.806 649 182.657 649 181.843C649 181.031 647.769 180.88 641.188 180.88H633.376L628.644 176.888C624.191 173.131 623.912 172.758 623.912 170.566C623.912 167.938 622.598 166.111 620.708 166.111C619.549 166.111 619.572 166.003 621.251 163.543L623.004 160.975H636.002C647.192 160.975 649 160.84 649 160.011C649 159.18 647.147 159.052 635.502 159.075L622.003 159.102L615.189 169.349L608.375 179.596H604.775C601.868 179.596 600.985 179.348 600.188 178.311C598.21 175.738 595.007 177.326 595.007 180.88C595.007 184.66 598.403 186.062 600.382 183.099ZM596.207 182.678C595.202 181.494 595.427 179.772 596.728 178.699C598.768 177.017 601.086 179.588 599.894 182.21C599.265 183.595 597.208 183.856 596.207 182.678ZM230.712 181.232C229.614 179.674 230.547 177.562 232.232 177.793C233.852 178.013 234.439 179.751 233.395 181.232C232.558 182.42 231.549 182.42 230.712 181.232ZM546.915 177.348L547.988 175.743H567.398H586.809L594.035 165.469L601.26 155.196H625.13C645.984 155.196 649 155.074 649 154.232C649 153.391 645.915 153.269 624.503 153.269C610.467 153.269 599.928 153.516 599.824 153.848C599.725 154.166 596.575 158.789 592.826 164.121L586.011 173.817H567.031H548.051L546.811 172.118C545.737 170.648 545.302 170.48 543.571 170.862C540.494 171.542 539.425 175.157 541.559 177.669C543.098 179.481 545.59 179.332 546.915 177.348ZM5.89673 174.899C7.29669 173.144 7.40247 171.431 6.23315 169.465L5.38452 168.038L26.2761 167.989C55.813 167.92 54.3083 167.833 55.8818 169.687C58.5912 172.877 62.0811 170.464 61.6835 165.675C61.4398 162.735 56.9065 161.883 55.2578 164.469C54.0601 166.347 55.843 166.24 26.9196 166.166L5.58087 166.111L-2.93414 159.048L-11.4487 151.985H-35.7244C-56.9393 151.985 -59.9999 152.106 -59.9999 152.948C-59.9999 153.79 -56.9709 153.911 -36.0118 153.911H-12.0236L-7.78809 157.425C-2.99799 161.399 1.67102 165.325 3.30554 166.753C4.38104 167.693 4.37122 167.719 2.91235 167.817C1.99774 167.878 1.0166 168.564 0.386658 169.583C-0.626648 171.221 -0.756958 171.248 -7.39703 171.248H-14.1495L-16.2137 169.188C-17.3492 168.054 -19.671 165.598 -21.3737 163.73L-24.4693 160.332H-42.2346C-59.6362 160.332 -59.9999 160.359 -59.9999 161.617C-59.9999 162.874 -59.6296 162.901 -42.4113 162.925L-24.8226 162.95L-19.9142 168.051L-15.0057 173.151L-7.80396 173.163C-0.855774 173.174 -0.554626 173.231 0.760803 174.78C2.4646 176.785 4.35602 176.829 5.89673 174.899ZM636.359 172.854C637.382 171.321 637.695 171.248 643.216 171.248C647.994 171.248 649 171.081 649 170.285C649 169.49 648.003 169.322 643.298 169.322C637.943 169.322 637.514 169.224 636.233 167.717C635.483 166.834 634.291 166.111 633.584 166.111C631.787 166.111 629.912 168.368 629.912 170.532C629.912 174.366 634.294 175.944 636.359 172.854ZM2.26276 173.895C1.86133 173.595 1.61591 172.661 1.71735 171.818C1.97046 169.708 4.63843 169.264 5.17181 171.242C5.79083 173.538 3.98779 175.182 2.26276 173.895ZM631.658 170.871C631.448 169.145 632.816 167.814 634.248 168.349C635.347 168.759 635.808 171.154 634.977 172.134C634.151 173.106 631.821 172.22 631.658 170.871ZM618.723 171.217C618.269 169.533 619.399 167.92 620.859 168.167C622.028 168.365 622.596 169.983 622.067 171.607C621.597 173.047 619.139 172.76 618.723 171.217ZM56.9529 168.397C56.1053 167.655 56.0148 167.24 56.4991 166.31C57.2953 164.78 59.6361 164.776 59.8859 166.303C60.0703 167.431 59.1311 169.322 58.3861 169.322C58.1799 169.322 57.5353 168.905 56.9529 168.397ZM177.81 158.758C176.674 157.147 177.349 155.517 179.151 155.517C180.278 155.517 180.83 155.868 180.961 156.671C181.178 157.995 180.161 159.69 179.151 159.69C178.775 159.69 178.171 159.271 177.81 158.758ZM157.849 153.628C157.001 152.887 156.911 152.471 157.395 151.541C158.191 150.012 160.532 150.007 160.782 151.534C160.966 152.662 160.027 154.553 159.282 154.553C159.076 154.553 158.431 154.137 157.849 153.628ZM649 149.096C649 148.249 644.669 148.132 613.288 148.132H577.575L558.155 136.895L538.735 125.659L482.083 125.659C426.208 125.659 425.423 125.641 424.853 124.389C423.901 122.293 422.258 121.583 420.428 122.476C417.861 123.727 417.573 128.662 419.977 130.178C421.494 131.134 424.176 130.347 424.586 128.825C424.952 127.467 422.593 127.501 510.876 127.577L538.276 127.601L557.654 138.83L577.032 150.059H613.016C644.638 150.059 649 149.942 649 149.096ZM649 144.601C649 143.762 646.287 143.637 627.866 143.634L606.733 143.631L602.918 141.327C598.177 138.462 579.553 126.893 574.981 123.972L571.59 121.806H562.525C553.94 121.806 553.41 121.733 552.521 120.441C551.415 118.832 548.926 118.637 547.714 120.063C546.703 121.253 546.621 124.008 547.557 125.336C548.522 126.704 551.18 126.531 552.467 125.017C553.466 123.84 554.285 123.732 562.192 123.732H570.827L575.69 126.692C580.321 129.51 586.114 133.108 593.916 138.012C595.866 139.237 599.384 141.438 601.734 142.902L606.007 145.564H627.504C646.248 145.564 649 145.441 649 144.601ZM614.72 141.401L616.004 139.807L632.502 139.796C646.799 139.786 649 139.657 649 138.822C649 137.986 646.767 137.859 632.178 137.859C616.048 137.859 615.314 137.806 614.368 136.574C613.825 135.868 612.844 135.29 612.187 135.29C609.415 135.29 608.127 140.122 610.399 141.996C612.102 143.4 613.235 143.244 614.72 141.401ZM610.186 140.125C609.716 138.912 609.735 138.307 610.264 137.557C611.614 135.641 614.641 136.738 614.641 139.143C614.641 141.937 611.182 142.7 610.186 140.125ZM649 133.685C649 132.852 646.985 132.722 634.134 132.722H619.267L616 130.245C614.202 128.881 610.891 126.375 608.642 124.674C606.392 122.972 601.606 119.315 598.007 116.546L591.462 111.512L542.105 111.534C514.958 111.547 486.366 111.549 478.567 111.54L464.387 111.522L453.48 103.019L442.572 94.5164L414.498 94.3385C391.494 94.1934 386.349 94.0034 386.009 93.2868C384.672 90.4737 380.125 92.1027 380.125 95.3948C380.125 98.9354 383.458 100.546 385.59 98.0358C386.666 96.7689 387.33 96.7388 414.24 96.7394C434.392 96.74 442.113 96.9442 442.998 97.4996C445.451 99.0381 453.206 105.243 453.189 105.652C453.179 105.884 450.019 108.314 446.168 111.051L439.164 116.027H401.489H363.814L362.45 114.422C361.7 113.539 360.462 112.816 359.698 112.816C356.69 112.816 354.94 117.772 357.126 120.101C358.648 121.723 361.306 121.459 362.575 119.559L363.648 117.953H401.644H439.64L447.302 112.495C451.516 109.494 455.051 107.038 455.158 107.038C455.265 107.038 457.285 108.482 459.647 110.248L463.943 113.459L527.353 113.459H590.763L595.623 117.151C598.296 119.182 603.508 123.154 607.207 125.98C610.905 128.805 614.972 131.911 616.244 132.882L618.556 134.648H633.778C646.945 134.648 649 134.518 649 133.685ZM143.428 131.438C143.014 130.525 143.014 129.782 143.428 128.869C144.459 126.603 147.792 127.584 147.792 130.153C147.792 132.723 144.459 133.704 143.428 131.438ZM636.581 127.264C640.161 124.437 640.334 124.374 644.62 124.374C648.15 124.374 649 124.188 649 123.411C649 122.628 648.103 122.448 644.198 122.448H639.396L635.911 125.338L632.425 128.227H626.336H620.247L614.58 123.857C611.464 121.453 604.164 115.903 598.359 111.524C590.955 105.938 587.647 103.074 587.277 101.93C585.935 97.7738 582.878 96.7291 580.867 99.74C579.418 101.908 579.436 103.447 580.93 105.086C582.213 106.493 585.137 106.844 586.103 105.706C586.67 105.038 588.246 106.123 601.552 116.346C603.501 117.844 607.673 121.016 610.823 123.396C613.973 125.777 617.214 128.271 618.028 128.939C619.282 129.97 620.517 130.153 626.214 130.153H632.923L636.581 127.264ZM74.5884 127.227C77.0836 125.17 75.3853 119.88 72.2296 119.88C71.4481 119.88 70.2875 120.582 69.5769 121.485L68.3132 123.09H19.6998C-7.03711 123.09 -28.913 122.921 -28.913 122.715C-28.913 122.508 -27.7726 120.63 -26.3781 118.541L-23.8437 114.743H56.8509H137.545L138.618 116.348C139.325 117.408 140.233 117.953 141.287 117.953C143.009 117.953 145.065 116.008 145.065 114.379C145.065 113.143 144.022 110.735 143.21 110.097C141.923 109.085 139.677 109.625 138.626 111.198L137.563 112.789L115.545 112.816C103.434 112.832 67.4466 112.838 35.5727 112.83L-22.3804 112.816L-19.6039 108.322L-16.8273 103.827H28.3715H73.5696L74.9331 105.432C77.4828 108.434 81.391 106.819 81.391 102.764C81.391 100.729 79.5471 98.6901 77.7064 98.6901C77.0214 98.6901 75.8826 99.4073 75.1763 100.284L73.892 101.878L27.9624 101.89L-17.9672 101.901L-18.6113 103.345C-18.9658 104.14 -19.8951 105.687 -20.6761 106.784C-21.4565 107.88 -24.1818 111.986 -26.7315 115.907L-31.3672 123.037L-45.6836 123.064C-58.0355 123.086 -59.9999 123.222 -59.9999 124.053C-59.9999 124.884 -58.1517 125.017 -46.6381 125.017C-38.0935 125.017 -33.2761 125.248 -33.2761 125.659C-33.2761 126.069 -38.0935 126.301 -46.6381 126.301C-58.1517 126.301 -59.9999 126.434 -59.9999 127.264C-59.9999 128.094 -58.132 128.227 -46.4602 128.227H-32.9211L-31.64 126.622L-30.3588 125.017H18.9608H68.2811L69.3538 126.622C70.5962 128.481 72.7635 128.732 74.5884 127.227ZM70.4517 124.269C70.3251 122.98 70.5754 122.449 71.4666 122.116C73.0515 121.524 74.4041 123.117 73.9012 124.982C73.3253 127.118 70.6775 126.571 70.4517 124.269ZM548.613 124.994C547.061 124.015 547.242 121.306 548.92 120.406C550.044 119.803 550.471 119.878 551.374 120.84C552.703 122.256 552.739 122.956 551.564 124.484C550.525 125.836 550.074 125.914 548.613 124.994ZM-31.5494 117.061C-29.9575 116.133 -29.5435 112.808 -30.8311 111.291C-32.0386 109.87 -34.1389 109.98 -35.4576 111.532C-36.4808 112.737 -37.2755 112.816 -48.2742 112.816C-58.3333 112.816 -59.9999 112.953 -59.9999 113.78C-59.9999 114.606 -58.318 114.743 -48.1329 114.743C-37.1461 114.743 -36.2185 114.831 -35.6306 115.939C-34.7917 117.521 -33.1229 117.98 -31.5494 117.061ZM-34.9232 115.361C-36.225 112.497 -34.1122 110.098 -31.8358 111.853C-30.3398 113.008 -30.2007 114.241 -31.406 115.66C-32.5944 117.059 -34.2142 116.921 -34.9232 115.361ZM139.716 113.995C139.59 112.72 139.84 112.175 140.696 111.855C142.734 111.094 144.214 113.561 142.753 115.281C141.612 116.625 139.903 115.901 139.716 113.995ZM649 112.495C649 111.684 647.759 111.532 641.099 111.532H633.199L628.692 107.899C617.591 98.9502 617.368 98.7319 617.368 96.8306C617.368 94.553 615.843 92.9111 613.728 92.9111C611.66 92.9111 610.278 94.6615 610.278 97.2813C610.278 99.9576 612.25 101.568 614.831 100.998C616.7 100.586 617.565 101.185 630.658 111.977C632.229 113.272 633.034 113.387 640.683 113.421C647.727 113.453 649 113.311 649 112.495ZM523.884 108.001L524.778 106.395H545.507H566.237L571.487 102.319C574.374 100.076 578.871 96.609 581.48 94.6134L586.224 90.9848H617.611C645.149 90.9848 649 90.8667 649 90.0217C649 89.1767 645.115 89.0585 617.31 89.0585H585.621L583.197 90.9848C581.863 92.0443 580.695 92.9111 580.602 92.9111C580.508 92.9111 577.146 95.5117 573.131 98.6901L565.831 104.469H545.266H524.702L523.286 102.802C522.176 101.495 521.553 101.23 520.401 101.57C518.214 102.216 517.562 103.11 517.562 105.465C517.562 108.184 518.789 109.606 521.133 109.606C522.513 109.606 523.221 109.193 523.884 108.001ZM582.19 102.231C582.19 99.9538 583.894 99.1807 584.996 100.956C585.968 102.52 584.97 104.614 583.38 104.348C582.461 104.194 582.19 103.713 582.19 102.231ZM9.0119 96.6784C12.3 94.1594 16.9811 90.5475 19.414 88.6521L23.8382 85.2059H44.03H64.2223L65.1156 86.8111C66.6901 89.6409 71.3079 88.5628 71.5021 85.3208C71.6297 83.1954 71.3592 82.2997 70.2559 81.1927C68.7043 79.6369 67.2639 79.7878 65.6616 81.6743L64.2981 83.2795L43.7349 83.2885L23.1712 83.2969L12.8574 91.3149L2.54419 99.3322H-28.7281C-56.1616 99.3322 -59.9999 99.4504 -59.9999 100.295C-59.9999 101.14 -56.1343 101.259 -28.4833 101.259H3.03345L9.0119 96.6784ZM612.548 98.7685C612.147 98.4686 611.901 97.5343 612.003 96.6912C612.149 95.4661 612.514 95.1585 613.815 95.1585C615.625 95.1585 616.303 96.7856 615.164 98.3999C614.423 99.4523 613.617 99.5659 612.548 98.7685ZM208.329 97.4059C210.576 94.7604 208.895 90.3427 205.642 90.3427C204.588 90.3427 203.68 90.8885 202.973 91.948L201.9 93.5533L174.564 93.5533H147.228L141.533 89.219C138.401 86.8355 135.827 84.7147 135.815 84.5066C135.803 84.2979 138.636 82.136 142.111 79.7017C145.586 77.2675 148.546 75.0542 148.688 74.7832C148.831 74.5116 166.302 74.29 187.516 74.29C225.797 74.29 226.092 74.2997 227.047 75.6141C228.334 77.3831 230.551 77.0184 231.947 74.8082C232.978 73.1741 232.988 72.9898 232.13 71.4474C230.833 69.1172 228.754 68.6568 227.216 70.3591C225.984 71.721 225.964 71.7216 187.974 71.7216H149.964L141.842 77.507L133.72 83.293L129.557 80.0151C127.117 78.0932 125.052 76.8919 124.566 77.1115C124.095 77.3246 123.882 77.2123 124.071 76.8514C124.289 76.4353 113.455 76.2164 92.7077 76.2164C67.5088 76.2164 61.0901 76.3807 61.3961 77.019C61.7037 77.6611 61.6339 77.6611 61.0465 77.019C60.4766 76.3961 53.277 76.2164 28.9124 76.2164H-2.487L-5.474 73.8919C-7.1167 72.6141 -13.1989 67.991 -18.9892 63.6182L-29.5173 55.6689H-44.7586C-57.9427 55.6689 -59.9999 55.7986 -59.9999 56.6321C-59.9999 57.4649 -57.9668 57.5952 -44.973 57.5952H-29.9465L-25.4755 61.0344C-23.0169 62.926 -19.287 65.7693 -17.1873 67.3533C-15.0875 68.9374 -11.2835 71.8186 -8.73383 73.7565C-6.18414 75.6937 -3.80359 77.4813 -3.4436 77.7292C-3.08313 77.9764 25.7258 78.169 60.5764 78.1562L123.942 78.133L126.732 80.2963C128.266 81.4868 133.398 85.3895 138.136 88.9699L146.75 95.4796H174.326L201.9 95.4796L202.973 97.0848C204.298 99.0683 206.79 99.2179 208.329 97.4059ZM381.216 96.7638C380.802 95.8514 380.802 95.1078 381.216 94.1954C382.246 91.9287 385.579 92.9099 385.579 95.4796C385.579 98.0493 382.246 99.0304 381.216 96.7638ZM-22.2632 96.2822C-20.8702 94.3726 -20.6586 92.818 -21.57 91.1807C-22.6548 89.2312 -24.4529 88.4164 -26.0787 89.1375C-27.3156 89.6865 -29.2206 88.3342 -42.1943 77.6983C-43.7661 76.409 -44.5901 76.287 -51.9556 76.2536C-58.7565 76.2222 -59.9999 76.3653 -59.9999 77.1795C-59.9999 77.9899 -58.7925 78.1427 -52.4071 78.1427H-44.8143L-36.5909 84.6562C-29.429 90.3299 -28.3677 91.3913 -28.3677 92.8829C-28.3677 96.5628 -24.172 98.8988 -22.2632 96.2822ZM-26.1643 94.5472C-26.5291 94.0297 -26.6595 93.0132 -26.4572 92.2626C-25.9238 90.2849 -23.2557 90.7293 -23.0027 92.8386C-22.7186 95.2009 -24.8799 96.3689 -26.1643 94.5472ZM7.92499 90.6927C8.66125 89.8258 9.26385 88.5127 9.26385 87.7743C9.26385 86.1209 6.94269 83.2795 5.59235 83.2795C5.04529 83.2795 4.11383 83.6783 3.52264 84.1663C2.54529 84.9709 1.84558 84.5894 -4.09802 80.0054C-7.69757 77.2296 -11.0108 74.7556 -11.4608 74.5071C-11.9107 74.2586 -12.8924 73.5587 -13.6423 72.9512C-14.3922 72.3432 -17.5827 69.907 -20.7323 67.5363C-23.8819 65.1663 -27.3652 62.5099 -28.4724 61.6335C-30.3491 60.1489 -30.9446 60.0417 -37.2056 60.0564L-43.9247 60.0732L-47.6421 63.0082C-51.2765 65.8778 -51.4549 65.9426 -55.6794 65.9426C-59.1562 65.9426 -59.9999 66.1308 -59.9999 66.9058C-59.9999 67.6847 -59.1311 67.869 -55.4536 67.869C-50.9929 67.869 -50.8353 67.8144 -47.1365 64.993L-43.3657 62.1176L-37.2547 62.1035L-31.1442 62.09L-22.3957 68.6716C-17.5844 72.2912 -12.3033 76.2645 -10.6606 77.5006C-9.01794 78.7366 -5.58093 81.307 -3.02252 83.2128C0.149963 85.5764 1.62848 87.0648 1.62848 87.8969C1.62848 89.5279 4.02222 92.269 5.44617 92.269C6.07336 92.269 7.18872 91.5595 7.92499 90.6927ZM514.192 89.3796L515.265 87.7743H561.052H606.84L611.695 80.3194C614.365 76.2189 617.513 71.4513 618.691 69.7247L620.833 66.5847H634.917C647.072 66.5847 649 66.4531 649 65.6216C649 64.7913 647.148 64.6584 635.606 64.6584C626.815 64.6584 622.327 64.4375 622.549 64.0163C622.758 63.6169 627.827 63.3742 635.943 63.3742C647.186 63.3742 649 63.2406 649 62.4111C649 61.5808 647.123 61.4479 635.378 61.4479H621.756L620.863 63.0532L619.969 64.6584H570.328H520.687L519.423 63.0532C518.728 62.1703 517.581 61.4479 516.873 61.4479C515.074 61.4479 513.199 63.7036 513.199 65.8682C513.199 69.7022 517.581 71.2805 519.646 68.19L520.719 66.5847H569.374C613.787 66.5847 618 66.6746 617.694 67.614C617.51 68.1797 616.441 70.0457 615.318 71.7601L613.277 74.8776L570.465 74.911C546.918 74.9289 510.547 74.9437 489.641 74.9437H451.63L450.226 73.2909C448.466 71.2182 446.361 71.3954 444.879 73.7417C442.756 77.1057 445.842 81.709 449.061 79.9817C449.83 79.5695 450.603 78.6981 450.779 78.0451C451.088 76.8983 453.772 76.8585 531.279 76.8585C579.146 76.8585 611.386 77.0935 611.277 77.4421C611.178 77.7632 609.93 79.7858 608.506 81.9369L605.916 85.848H560.403C522.706 85.848 514.815 85.6983 514.454 84.9785C513.727 83.5306 511.668 82.5822 510.196 83.0169C508.628 83.4805 507.745 85.0273 507.745 87.3113C507.745 90.9187 512.208 92.3506 514.192 89.3796ZM4.46448 89.5722C3.14899 88.0234 3.96222 85.2059 5.72437 85.2059C6.11591 85.2059 7.62775 87.2465 7.62775 87.7743C7.62775 88.4447 6.06738 90.3427 5.51654 90.3427C5.29785 90.3427 4.8244 89.996 4.46448 89.5722ZM509.492 87.3967C509.258 85.4691 510.642 84.2819 512.074 85.184C513.179 85.8801 513.577 87.7582 512.81 88.6598C511.985 89.6326 509.655 88.7458 509.492 87.3967ZM66.6383 85.7195C66.2784 85.2957 65.9839 84.5836 65.9839 84.1367C65.9839 83.0342 67.8867 81.9099 68.9442 82.3876C69.7977 82.7729 70.1304 85.247 69.4378 86.0618C68.8591 86.7437 67.3511 86.5588 66.6383 85.7195ZM624.504 78.8297L626.178 76.8585H637.589C647.369 76.8585 649 76.7211 649 75.8953C649 75.0695 647.367 74.9321 637.571 74.9321H626.143L624.78 73.3269C623.076 71.3216 621.185 71.2773 619.644 73.2074C618.211 75.0041 618.13 76.9105 619.413 78.6577C621.112 80.9718 622.64 81.0232 624.504 78.8297ZM620.337 76.7467C619.952 75.3161 621.369 73.3988 622.488 73.838C623.404 74.1976 624.099 76 623.744 77.0922C623.226 78.6788 620.792 78.4316 620.337 76.7467ZM226.963 73.3795C226.51 70.6859 230.127 69.2822 231.235 71.7216C231.874 73.1259 231.24 75.2243 230.014 75.7669C229.077 76.181 227.186 74.7023 226.963 73.3795ZM41.3199 70.7218C42.1549 70.0335 42.5323 69.0652 42.5323 67.6108C42.5323 63.5129 38.7283 61.9051 36.3084 64.9795C35.0666 66.5565 34.8997 66.5847 26.7134 66.5847H18.3821L5.23297 58.473C-1.99884 54.0116 -9.91241 49.0995 -12.3524 47.5572L-16.7897 44.7531H-38.3945C-57.236 44.7531 -59.9999 44.8764 -59.9999 45.7163C-59.9999 46.5561 -57.2687 46.6794 -38.6907 46.6794H-17.382L-7.74011 52.6895C-2.43732 55.9951 5.48492 60.9072 9.86548 63.6054L17.8297 68.5111H26.437C34.9177 68.5111 35.0633 68.5348 36.3084 70.1163C37.7526 71.9515 39.5638 72.1704 41.3199 70.7218ZM515.173 66.4364C514.355 64.8999 515.895 63.0724 517.501 63.6728C518.632 64.0947 519.111 66.4737 518.266 67.4683C517.623 68.226 515.802 67.6185 515.173 66.4364ZM169.841 66.8602C171.032 65.4578 170.911 62.3417 169.607 60.8058C168.116 59.0509 166.001 59.1857 164.469 61.1326L163.201 62.7437L106.548 62.5568C75.389 62.4541 49.4904 62.2216 48.9957 62.0412C48.501 61.8608 47.7604 61.3843 47.3497 60.983C46.939 60.5823 38.8842 55.755 29.4502 50.256L12.2973 40.2583H-23.8513C-55.62 40.2583 -59.9999 40.3752 -59.9999 41.2215C-59.9999 42.0678 -55.6718 42.1847 -24.3171 42.1847H11.3658L15.3596 44.3646C17.5565 45.5634 26.1026 50.5481 34.3516 55.441L49.3497 64.3374L106.422 64.5095L163.495 64.6815L164.382 66.2753C165.429 68.1573 168.463 68.4822 169.841 66.8602ZM446.359 62.3892L447.64 60.7628L476.363 60.7942L505.086 60.8263L507.539 58.4602C509.806 56.2725 510.314 56.0722 514.276 55.8025L518.56 55.5103L521.8 58.1853L525.039 60.861L533.141 60.7705L541.242 60.6793L548.756 56.2481C552.889 53.8107 556.639 51.8163 557.09 51.8163C557.542 51.8163 561.269 53.55 565.373 55.6689L572.835 59.5216H610.917C642.473 59.5216 649 59.3732 649 58.6573C649 57.3114 639.517 56.9531 603.945 56.9531H572.15L567.081 54.3128C564.293 52.8604 561.152 51.2955 560.102 50.8351C559.052 50.3747 554.521 48.0953 550.033 45.7702L541.872 41.5426L493.785 41.5426H445.697L444.804 39.9373L443.91 38.332H492.198H540.486L547.158 41.5991C552.82 44.3717 563.667 49.836 567.465 51.8285C572.501 54.4708 571.038 54.3847 610.89 54.3847C644.402 54.3847 649 54.2685 649 53.4216C649 52.5746 644.414 52.4584 611 52.4584H573.001L557.114 44.4321L541.225 36.4057H487.484C434.435 36.4057 433.73 36.389 432.755 35.1215C431.768 33.8379 431.802 33.8373 487.013 33.8373C540.666 33.8373 542.322 33.8732 544.499 35.09C545.732 35.779 551.158 38.5439 556.557 41.2337C561.957 43.9235 567.755 46.8271 569.442 47.6862L572.51 49.2478H610.755C644.387 49.2478 649 49.1316 649 48.2847C649 47.4377 644.417 47.3215 611.027 47.3215H573.054L557.092 39.2952L541.13 31.2689H520.079H499.027L487.434 22.1959C481.058 17.2054 474.611 12.1488 473.109 10.959L470.377 8.7951H454.677H438.976L434.775 6.0032C428.987 2.15762 421.099 -2.95676 411.894 -8.83075C404.692 -13.4263 404.122 -13.9246 404.122 -15.6242C404.122 -16.7916 403.682 -17.8215 402.91 -18.4579C401.278 -19.8044 400.186 -19.7164 398.439 -18.0989C396.499 -16.3017 396.673 -13.3955 398.835 -11.5032C400.268 -10.2498 400.461 -10.2293 401.868 -11.1802C403.34 -12.1749 403.507 -12.1075 409.883 -7.92859C413.464 -5.5817 419.707 -1.5332 423.756 1.06863C427.806 3.67044 432.101 6.47064 433.3 7.29126L435.482 8.78287L398.186 8.78931L360.889 8.7951L359.625 7.18982C357.292 4.22458 353.402 5.96854 353.402 9.97977C353.402 13.9165 357.504 15.4846 359.753 12.407L360.985 10.7214H415.326H469.667L482.843 20.9893L496.02 31.2579L455.004 31.2631L413.989 31.2689L412.625 29.6636C410.966 27.7097 409.635 27.6352 407.741 29.3894C404.945 31.9777 406.542 36.6195 410.228 36.6195C411.397 36.6195 412.212 36.1688 412.742 35.2287C413.481 33.9195 413.949 33.8373 420.659 33.8373C426.207 33.8373 427.646 34.0087 427.138 34.6078C426.204 35.7071 426.328 39.3421 427.34 40.5338C428.722 42.1609 431.752 41.8309 432.805 39.9373C433.579 38.5478 434.1 38.332 436.694 38.332C439.338 38.332 439.641 38.4637 439.281 39.4557C438.308 42.1333 438.383 43.9954 439.518 45.3316C441.057 47.143 443.159 47.0384 444.705 45.0742L445.969 43.4689H493.535L541.101 43.4689L547.602 46.7539C551.178 48.5608 554.103 50.2335 554.103 50.4717C554.103 50.7099 551.628 52.3377 548.603 54.0893C545.579 55.841 542.868 57.6081 542.58 58.0165C542.231 58.5103 539.321 58.7883 533.889 58.8454L525.722 58.9321L522.644 56.3373C519.583 53.7567 519.539 53.7426 514.551 53.7426H509.535L507.057 56.311L504.578 58.8795L475.988 58.8795H447.398L446.117 57.2742C443.68 54.2197 440.118 55.8481 440.118 60.0173C440.118 63.8353 444.046 65.3281 446.359 62.3892ZM-21.3993 54.0271C-19.5842 52.5309 -19.6993 48.792 -21.5858 47.9476C-23.59 47.0506 -24.1938 47.1565 -25.5475 48.6411C-26.7091 49.9156 -27.3232 49.9593 -43.3755 49.9086C-59.7239 49.8566 -59.9999 49.8771 -59.9999 51.1568C-59.9999 52.4359 -59.7104 52.4584 -43.1776 52.4584C-27.0479 52.4584 -26.3143 52.511 -25.368 53.7426C-24.1818 55.2856 -23.0256 55.369 -21.3993 54.0271ZM-25.109 52.7602C-25.638 52.0096 -25.6566 51.4047 -25.187 50.1917C-24.1906 47.6169 -20.7323 48.3797 -20.7323 51.1742C-20.7323 53.5789 -23.7586 54.6762 -25.109 52.7602ZM440.98 44.3633C439.87 43.8619 439.871 41.9413 440.982 40.8555C441.608 40.2442 442.095 40.1974 442.754 40.6853C445.084 42.4126 443.578 45.5365 440.98 44.3633ZM649 36.7267C649 35.8849 645.97 35.7636 625.005 35.7636H601.01L597.054 32.4381C594.878 30.6088 591.203 27.5658 588.887 25.6754L584.675 22.2389L559.893 22.2659L535.111 22.2935L533.468 20.3601C531.604 18.1653 530.642 17.9836 528.724 19.4637C527.187 20.649 526.886 23.8082 528.12 25.7955C529.144 27.4438 531.978 27.3398 533.555 25.5971C534.807 24.2114 534.921 24.2057 559.592 24.2179L584.372 24.2301L592.396 30.96L600.42 37.6899H624.71C645.938 37.6899 649 37.5686 649 36.7267ZM-4.91614 27.9145C-1.46655 22.9067 1.78503 18.2893 2.31024 17.6549C3.19318 16.5871 4.70007 16.5004 22.4022 16.5004C41.2567 16.5004 41.5534 16.5203 42.4778 17.8649C43.525 19.3873 45.894 19.6718 47.1664 18.4286C48.3783 17.2439 48.2251 13.4857 46.9315 12.6702C45.2347 11.6011 43.1502 11.8868 42.4058 13.2899C41.7448 14.5355 41.134 14.5741 22.0057 14.5741H2.2868L0.730774 16.7174C-0.125488 17.8963 -3.39832 22.5195 -6.54248 26.9911L-12.2597 35.1215H-36.1296C-56.984 35.1215 -59.9999 35.2435 -59.9999 36.0847C-59.9999 36.9265 -56.93 37.0459 -35.594 37.0337L-11.188 37.0202L-4.91614 27.9145ZM408.043 32.7572C407.932 31.8403 408.285 31.0961 409.064 30.6056C410.06 29.9782 410.437 30.07 411.37 31.1693C412.318 32.2847 412.376 32.6385 411.759 33.5136C410.703 35.0123 408.256 34.5134 408.043 32.7572ZM-26.1861 20.981L-19.3688 10.7651L-16.9146 10.6694C-13.2092 10.5249 -12.3808 10.7253 -11.1531 12.0628C-9.39319 13.9801 -7.28748 13.6584 -6.25836 11.3147C-5.46533 9.50977 -5.46533 9.20477 -6.25665 7.78314C-7.38562 5.75473 -10.5696 5.59225 -11.5873 7.51086C-12.1654 8.60117 -12.8591 8.7951 -16.1794 8.7951C-19.8378 8.7951 -20.1722 8.91516 -21.3655 10.6572C-27.7296 19.9478 -27.5158 19.6936 -28.0175 18.5596C-28.8247 16.7379 -30.1172 15.8583 -31.9874 15.8583C-33.2946 15.8583 -35.0818 14.759 -38.7708 11.6846L-43.7797 7.51086H-51.8896C-58.7352 7.51086 -59.9999 7.66113 -59.9999 8.47403C-59.9999 9.285 -58.7717 9.43784 -52.2282 9.4404L-44.4565 9.44363L-39.6844 13.4272C-35.1408 17.2195 -34.9123 17.5252 -34.9123 19.8085C-34.9123 22.3545 -33.473 24.2057 -31.4927 24.2057C-30.6561 24.2057 -30.7766 24.614 -32.2508 26.7741L-34.0042 29.3425H-47.0018C-58.192 29.3425 -59.9999 29.4767 -59.9999 30.3057C-59.9999 31.1366 -58.15 31.2637 -46.5017 31.2329L-33.0034 31.1969L-26.1861 20.981ZM649 28.0583C649 26.8004 648.636 26.7741 631.47 26.7741H613.94L610.952 23.7241C609.308 22.0463 607.008 19.7642 605.841 18.6521L603.719 16.6301L596.261 16.5363C589.53 16.4516 588.731 16.3199 588.057 15.1873C587.018 13.442 584.396 13.537 583.312 15.3593C582.286 17.0847 582.233 18.4794 583.145 19.8445C584.4 21.7239 586.036 21.7971 587.797 20.0519C589.361 18.5025 589.756 18.4267 596.261 18.4267H603.085L605.454 20.7505C606.757 22.0283 607.946 23.2605 608.096 23.4884C608.246 23.7164 609.569 25.1265 611.036 26.6226L613.704 29.3425H631.352C648.636 29.3425 649 29.3162 649 28.0583ZM529.184 23.7973C528.733 22.4129 529.702 20.6741 530.924 20.6741C531.459 20.6741 532.146 21.1403 532.451 21.7104C533.285 23.2656 532.515 24.8478 530.924 24.8478C530.133 24.8478 529.378 24.3919 529.184 23.7973ZM-42.3137 22.5548C-41.2262 21.2738 -41.205 18.1878 -42.2766 17.1406C-43.549 15.8974 -45.9181 16.1819 -46.9653 17.7043C-47.8199 18.9468 -48.4433 19.0688 -53.9517 19.0688C-58.9643 19.0688 -59.9999 19.2338 -59.9999 20.032C-59.9999 20.8314 -58.9539 20.9951 -53.8594 20.9951C-48.3091 20.9951 -47.653 21.1184 -47.0373 22.2794C-46.2078 23.8435 -43.5408 23.9989 -42.3137 22.5548ZM-46.0539 21.9127C-47.7751 19.8856 -46.3713 16.6789 -44.0611 17.3621C-42.3748 17.8604 -41.8468 19.8059 -42.9114 21.5955C-43.8538 23.1796 -44.8884 23.2842 -46.0539 21.9127ZM649 21.3162C649 20.4924 647.427 20.353 638.111 20.353H627.223L625.431 18.532C624.446 17.5303 620.983 14.2074 617.735 11.1478L611.83 5.58456H606.17C600.86 5.58456 600.426 5.48502 599.147 3.97928C597.544 2.09213 596.107 1.94186 594.545 3.49771C592.824 5.21277 592.564 7.58087 593.911 9.28311C595.468 11.2499 597.951 11.1754 599.472 9.11615C600.583 7.61234 600.987 7.51151 605.876 7.51602L611.096 7.52115L614.713 10.8871C616.703 12.7383 620.181 16.0586 622.442 18.2662L626.554 22.2794H637.777C647.389 22.2794 649 22.1413 649 21.3162ZM-33.0034 20.032C-33.0034 18.3214 -32.8207 18.1057 -31.3749 18.1057C-30.2405 18.1057 -29.6886 18.4562 -29.5571 19.2602C-29.2948 20.8661 -30.5028 22.3789 -31.8647 22.1496C-32.7302 22.0045 -33.0034 21.496 -33.0034 20.032ZM583.827 17.7846C583.827 15.6444 583.918 15.5372 585.735 15.5372C587.318 15.5372 587.675 15.7928 587.824 17.0288C588.132 19.5953 587.538 20.4532 585.603 20.2336C583.969 20.048 583.827 19.8515 583.827 17.7846ZM43.3744 17.5637C42.1778 16.5331 42.553 13.6642 43.9678 13.0253C46.3871 11.9324 48.296 14.9657 46.5873 17.1887C45.4638 18.6501 44.7351 18.7349 43.3744 17.5637ZM574.027 15.6348C574.636 15.2277 579.667 11.8945 585.207 8.22681C590.747 4.55975 595.893 1.08081 596.643 0.49585C597.393 -0.0884705 599.788 -1.65649 601.966 -2.98758C605.714 -5.27927 606.18 -5.40381 610.692 -5.32742C613.314 -5.28311 623.005 -5.26578 632.229 -5.28888C646.832 -5.3255 649 -5.45712 649 -6.30408C649 -7.15808 646.322 -7.26917 627.07 -7.21136L605.14 -7.14584L602.119 -5.18808C600.457 -4.11127 597.502 -2.15347 595.552 -0.837158C591.213 2.09213 587.956 4.21365 581.918 8.04318C579.368 9.66064 576.182 11.7982 574.838 12.7935L572.393 14.6036L555.476 14.5509L538.56 14.4983L532.041 9.07828L525.522 3.65823L514.316 3.64731L503.11 3.63574L501.825 2.04205C500.195 0.0174866 498.25 0.0110474 496.54 2.02405C494.907 3.94653 494.867 4.91098 496.332 7.10312C497.824 9.33704 500.251 9.37427 501.971 7.18982L503.235 5.58456H513.975H524.716L531.485 11.0425L538.254 16.5004L555.587 16.4375C567.569 16.3938 573.261 16.1459 574.027 15.6348ZM-10.6688 11.0855C-11.7661 9.1142 -10.9285 6.86877 -9.0965 6.86877C-6.71698 6.86877 -5.72931 9.66064 -7.40912 11.639C-8.62366 13.0683 -9.6637 12.8917 -10.6688 11.0855ZM594.969 7.77798C594 6.40387 594.975 4.6214 596.695 4.6214C598.031 4.6214 598.651 6.08734 598.07 7.86917C597.668 9.10138 595.864 9.04807 594.969 7.77798ZM546.759 8.14014C547.37 7.87302 548.197 7.18854 548.599 6.61963C549.198 5.76947 550.537 5.58456 556.101 5.58456C561.886 5.58456 563.089 5.40604 564.351 4.35876C565.164 3.68457 569.756 0.247986 574.555 -3.2778C579.354 -6.80362 584.096 -10.2973 585.091 -11.0415C586.878 -12.3765 587.313 -12.3944 617.951 -12.3944C645.187 -12.3944 649 -12.5126 649 -13.3576C649 -14.2078 642.402 -14.3208 592.896 -14.3208H536.793L531.906 -18.976C529.219 -21.5368 522.842 -27.6002 517.737 -32.4507L508.454 -41.27L418.691 -41.2681L328.928 -41.2661L327.555 -42.883C326.03 -44.6783 325.195 -44.8472 323.185 -43.7691C321.399 -42.8111 320.822 -39.8586 322.007 -37.7314C323.156 -35.6657 326.695 -35.4801 327.838 -37.4257C328.575 -38.6791 329.361 -38.7003 377.671 -38.7446C404.668 -38.769 434.732 -38.7716 444.481 -38.7497L462.206 -38.7099L457.64 -35.344C455.128 -33.4935 451.598 -30.8762 449.794 -29.5284L446.515 -27.0782L402.063 -27.0929C358.057 -27.1071 357.6 -27.1205 356.426 -28.4195C354.534 -30.5121 352.522 -30.0961 351.299 -27.36C350.822 -26.2929 350.825 -25.5512 351.311 -24.2946C352.21 -21.9715 354.203 -21.5323 356.15 -23.2274C357.714 -24.5894 357.853 -24.5945 393.628 -24.5945H429.536L437.69 -19.2348C442.175 -16.2869 447.071 -13.0616 448.571 -12.0676C450.071 -11.0736 453.628 -8.71774 456.475 -6.83252L461.653 -3.40494H495.665H529.676L530.749 -1.79968C532.949 1.49304 537.196 -0.313843 537.196 -4.54276C537.196 -8.34534 533.27 -9.85556 530.972 -6.93655L529.709 -5.33127H495.998H462.288L454.066 -10.7115C449.544 -13.671 444.617 -16.8905 443.117 -17.8665C441.618 -18.8425 439.777 -20.137 439.027 -20.7431C438.277 -21.3493 436.682 -22.3921 435.482 -23.0592L433.3 -24.2734L440.118 -24.5945L446.935 -24.9156L456.207 -31.8175L465.478 -38.7195L486.934 -38.7202L508.388 -38.7209L516.384 -31.1793C520.782 -27.0313 524.87 -23.1086 525.47 -22.462C526.07 -21.8154 528.221 -19.7915 530.25 -17.9641L533.94 -14.6418L518.564 -14.471L503.188 -14.3002L501.755 -15.9158C500.076 -17.81 498.483 -17.9731 496.946 -16.4076C494.981 -14.4081 494.936 -12.6076 496.796 -10.4187C498.711 -8.1636 500.204 -8.28497 502.04 -10.8444L503.151 -12.3944H543.112C565.444 -12.3944 582.944 -12.1498 582.782 -11.839C582.621 -11.534 579.6 -9.20959 576.068 -6.67392C572.537 -4.13889 567.935 -0.776794 565.842 0.796997L562.038 3.65823H555.701C550.056 3.65823 549.256 3.51761 548.377 2.37402C546.449 -0.134705 542.65 1.3049 542.65 4.54434C542.65 7.24826 544.7 9.0423 546.759 8.14014ZM544.311 6.58304C542.76 4.38254 544.899 0.66217 546.877 2.12167C548.823 3.55804 548.123 7.51086 545.922 7.51086C545.396 7.51086 544.671 7.09351 544.311 6.58304ZM498.017 6.30499C497.616 6.00513 497.371 5.07086 497.472 4.22778C497.693 2.3862 499.933 2.078 500.837 3.7648C501.876 5.70462 499.763 7.60785 498.017 6.30499ZM73.0739 4.43326C75.8635 3.40909 76.6898 -0.453827 74.607 -2.73779C73.0008 -4.49976 71.1083 -4.38736 69.5742 -2.43857L68.3077 -0.829468L19.672 -0.993835L-28.9637 -1.15756L-26.4725 -5.10397L-23.9817 -9.05035L56.9604 -9.11392C135.157 -9.17557 137.914 -9.1377 138.222 -7.99408C138.995 -5.12579 143.207 -5.01343 144.486 -7.82648C145.377 -9.78683 145.185 -11.0261 143.726 -12.7444C142.029 -14.7426 140.467 -14.7446 138.773 -12.7508L137.44 -11.1808L60.9445 -11.1045C18.8719 -11.0627 -17.0994 -11.0467 -18.9914 -11.0692L-22.4322 -11.1102L-19.9327 -14.9346C-18.5579 -17.0382 -17.1322 -18.9844 -16.7646 -19.2592C-16.397 -19.5347 4.14325 -19.6824 28.8808 -19.5886C72.0518 -19.4243 73.9023 -19.369 74.9658 -18.2087C77.9921 -14.907 82.4371 -17.7265 81.1407 -22.1262C80.178 -25.3939 76.7443 -25.8755 74.7346 -23.0245C74.1085 -22.1359 68.9982 -22.0261 28.3 -22.0261H-17.4311L-21.5814 -15.7655C-23.8639 -12.3219 -26.9933 -7.55426 -28.5351 -5.17075L-31.3389 -0.836517H-45.6694C-58.0442 -0.836517 -59.9999 -0.704895 -59.9999 0.126648C-59.9999 0.956879 -58.1517 1.08981 -46.6381 1.08981C-38.0935 1.08981 -33.2761 1.32159 -33.2761 1.7319C-33.2761 2.14221 -38.0935 2.37402 -46.6381 2.37402C-58.1517 2.37402 -59.9999 2.50693 -59.9999 3.33719C-59.9999 4.16742 -58.132 4.30035 -46.4602 4.30035H-32.9211L-31.6503 2.70792L-30.3801 1.11612L18.9461 1.09622L68.2723 1.07697L69.2965 2.60968C70.3965 4.25668 71.7611 4.91483 73.0739 4.43326ZM532.007 -3.43576C531.625 -4.85162 532.537 -6.61548 533.651 -6.61548C534.765 -6.61548 535.677 -4.85162 535.295 -3.43576C535.07 -2.59845 534.472 -2.12073 533.651 -2.12073C532.83 -2.12073 532.232 -2.59845 532.007 -3.43576ZM-32.1854 -5.82825C-29.3537 -6.91022 -28.5972 -10.576 -30.7204 -12.9248C-32.3735 -14.7523 -33.8701 -14.6893 -35.6785 -12.7155L-37.15 -11.1102H-48.5753C-58.3671 -11.1102 -59.9999 -10.9728 -59.9999 -10.1471C-59.9999 -9.32196 -58.3943 -9.18393 -48.8196 -9.18393C-38.2936 -9.18393 -37.5743 -9.10751 -36.5266 -7.87402C-35.1822 -6.29123 -33.2979 -5.40317 -32.1854 -5.82825ZM139.779 -8.95016C139.364 -10.2267 140.231 -12.0002 141.405 -12.2725C142.445 -12.5139 143.552 -10.3108 143.095 -8.90909C142.662 -7.57928 140.217 -7.60883 139.779 -8.95016ZM-34.8021 -9.56149C-35.0361 -11.4891 -33.6513 -12.6763 -32.2202 -11.7742C-31.1153 -11.0781 -30.7172 -9.19998 -31.4835 -8.29846C-32.3091 -7.32565 -34.6385 -8.2124 -34.8021 -9.56149ZM497.488 -13.1419C497.28 -15.2544 499.206 -16.3017 500.499 -14.7792C501.793 -13.2568 500.903 -10.9889 499.109 -11.2335C497.994 -11.385 497.617 -11.8294 497.488 -13.1419ZM570.601 -16.9406C571.126 -17.3008 571.555 -18.0142 571.555 -18.5266C571.555 -19.3196 574.049 -19.4576 588.413 -19.4576H605.271L614.183 -29.0603L623.094 -38.6631L636.047 -38.692C648.628 -38.7202 649 -38.7574 649 -40.0051C649 -41.2533 648.638 -41.2893 636.047 -41.2835L623.094 -41.2784L621.185 -39.1922C620.136 -38.0447 615.976 -33.5679 611.942 -29.2446L604.607 -21.3839H588.081C578.275 -21.3839 571.555 -21.6266 571.555 -21.9805C571.555 -23.1754 569.804 -24.5945 568.329 -24.5945C566.092 -24.5945 564.756 -22.5198 564.946 -19.3427C565.103 -16.73 568.308 -15.368 570.601 -16.9406ZM566.72 -19.2804C566.026 -20.7419 566.91 -22.6682 568.275 -22.6682C569.653 -22.6682 570.531 -20.8035 569.854 -19.3138C569.193 -17.8594 567.404 -17.8408 566.72 -19.2804ZM76.0435 -20.2115C75.5461 -22.0569 77.131 -23.5485 78.603 -22.6206C79.601 -21.992 79.9692 -20.0843 79.2547 -19.2438C78.4154 -18.2556 76.4078 -18.8605 76.0435 -20.2115ZM649 -22.3471C649 -23.1562 647.814 -23.3103 641.601 -23.3103C637.029 -23.3103 633.748 -23.5954 633.012 -24.0564C630.336 -25.7317 626.087 -29.8405 626.404 -30.4454C626.975 -31.5325 625.555 -34.6582 624.148 -35.4134C621.491 -36.8388 618.46 -33.4273 619.505 -30.1892C620.268 -27.8282 621.534 -26.9575 623.624 -27.3568C625.238 -27.665 626.077 -27.2625 629.476 -24.5502L633.443 -21.3839H641.222C647.772 -21.3839 649 -21.5361 649 -22.3471ZM10.082 -27.8866C13.6815 -30.733 18.1428 -34.2036 19.9954 -35.5989L23.3648 -38.1346L44.1396 -38.0941C64.0936 -38.055 64.9575 -38.003 65.9948 -36.7817C67.373 -35.1591 68.9617 -35.1636 70.347 -36.7945C71.6575 -38.3375 71.7311 -39.8676 70.5886 -41.7882C69.488 -43.6387 66.8057 -43.7197 65.8573 -41.9314C65.1953 -40.6838 64.5855 -40.6472 44.3098 -40.6472H23.4434L16.0217 -34.8682C11.9395 -31.6898 8.5047 -29.0892 8.388 -29.0892C8.2713 -29.0892 6.97986 -28.0779 5.51874 -26.8419L2.86163 -24.5945H-28.5689C-56.1441 -24.5945 -59.9999 -24.4763 -59.9999 -23.6313C-59.9999 -22.7857 -56.1146 -22.6707 -28.2313 -22.6894L3.53735 -22.7105L10.082 -27.8866ZM352.42 -24.0808C351.415 -25.2642 351.64 -26.987 352.941 -28.0593C354.981 -29.7416 357.299 -27.1706 356.107 -24.5483C355.478 -23.1632 353.421 -22.9026 352.42 -24.0808ZM207.662 -26.2364C210.024 -28.1839 208.629 -32.9419 205.696 -32.9419C205.044 -32.9419 204.053 -32.4019 203.493 -31.7424C202.597 -30.6874 201.366 -30.5147 193.267 -30.3054C188.203 -30.175 175.702 -30.1365 165.487 -30.2206L146.914 -30.3734L141.49 -34.5536C138.506 -36.8523 136.007 -38.9469 135.934 -39.2089C135.862 -39.4702 139.004 -41.923 142.915 -44.6603L150.027 -49.6367H187.705H225.384L226.648 -48.0314C228.94 -45.1188 232.872 -46.7247 232.872 -50.5742C232.872 -54.7498 228.853 -56.4417 226.52 -53.2485L225.289 -51.563L187.222 -51.5617L149.155 -51.5604L141.595 -46.1038C137.438 -43.1026 133.956 -40.6472 133.858 -40.6472C133.76 -40.6472 131.517 -42.2466 128.874 -44.2012L124.067 -47.7559L69.5289 -47.7078C39.5327 -47.6814 11.0429 -47.6712 6.21844 -47.6853L-2.55347 -47.7104L-16.1423 -57.9821L-29.7311 -68.2546L-44.8655 -68.2559C-57.9553 -68.2578 -59.9999 -68.1274 -59.9999 -67.2946C-59.9999 -66.4618 -57.988 -66.3315 -45.1671 -66.3315H-30.3343L-17.7615 -56.9008C-10.8466 -51.7133 -4.60364 -46.9456 -3.88806 -46.3061C-2.64948 -45.1971 0.445007 -45.1419 60.9647 -45.1419H124.517L127.292 -43.0788C128.818 -41.9436 133.721 -38.1873 138.188 -34.7314L146.31 -28.4471H174.105H201.9L203.52 -26.8419C205.411 -24.9688 206.018 -24.8802 207.662 -26.2364ZM204.075 -27.2914C203.11 -28.4272 203.277 -30.0216 204.497 -31.3218C205.506 -32.3961 205.662 -32.4012 206.952 -31.4066C207.709 -30.8223 208.329 -29.7872 208.329 -29.1066C208.329 -26.9742 205.404 -25.7265 204.075 -27.2914ZM-21.8531 -28.2269C-20.6221 -30.0691 -20.7552 -31.7488 -22.2953 -33.81C-22.9929 -34.7436 -23.667 -34.9215 -25.434 -34.6358C-27.5861 -34.289 -28.0421 -34.5626 -35.9011 -40.9271L-44.1179 -47.5813L-52.0586 -47.6757C-59.7218 -47.7662 -59.9999 -47.7232 -59.9999 -46.4557C-59.9999 -45.192 -59.6918 -45.1413 -51.9556 -45.1252L-43.9111 -45.1079L-40.0934 -41.9436C-37.9937 -40.2028 -34.4994 -37.3936 -32.3287 -35.6997C-29.0281 -33.1255 -28.3807 -32.3312 -28.3747 -30.855C-28.3583 -26.7809 -23.9943 -25.0222 -21.8531 -28.2269ZM-26.2242 -29.4642C-27.1929 -30.8383 -26.2183 -32.6208 -24.4982 -32.6208C-23.1625 -32.6208 -22.5424 -31.1549 -23.1232 -29.373C-23.5247 -28.1408 -25.3287 -28.1942 -26.2242 -29.4642ZM621.498 -30.0967C620.42 -31.3661 621.262 -33.584 622.822 -33.584C624.381 -33.584 625.223 -31.3661 624.145 -30.0967C623.674 -29.5426 623.078 -29.0892 622.822 -29.0892C622.565 -29.0892 621.969 -29.5426 621.498 -30.0967ZM7.82678 -32.9888C9.46948 -34.5093 9.59113 -35.4718 8.4649 -38.0351C7.47943 -40.2786 5.1593 -41.1217 3.83948 -39.7155C2.59216 -38.3863 2.6582 -38.3658 -0.94519 -41.2077C-4.44598 -43.9694 -5.63165 -44.8697 -20.4219 -55.9961L-30.7472 -63.763H-37.222H-43.6962L-47.4561 -60.8736C-51.1238 -58.0547 -51.3229 -57.9841 -55.608 -57.9841C-59.1486 -57.9841 -59.9999 -57.7972 -59.9999 -57.0209C-59.9999 -56.2401 -59.1181 -56.0577 -55.3353 -56.0577C-50.7274 -56.0577 -50.6248 -56.0931 -46.9107 -58.9472L-43.1508 -61.8367L-37.259 -61.8316L-31.3672 -61.8271L-25.9135 -57.6797C-22.9138 -55.3983 -19.2325 -52.6475 -17.7327 -51.5662C-16.2328 -50.4855 -12.7969 -47.8876 -10.0973 -45.7943C-7.39764 -43.7004 -3.659 -40.8918 -1.78943 -39.5517C0.330505 -38.0319 1.61322 -36.6822 1.61926 -35.963C1.63177 -34.4329 4.03577 -31.6577 5.34796 -31.6577C5.9212 -31.6577 7.0365 -32.2567 7.82678 -32.9888ZM4.67285 -33.9738C4.16125 -34.2049 3.81006 -35.1193 3.81006 -36.2211C3.81006 -37.8572 4.00531 -38.0787 5.44617 -38.0787C6.34607 -38.0787 7.08234 -37.958 7.08234 -37.8103C7.08234 -37.6626 7.21924 -37.122 7.38666 -36.6089C7.55353 -36.0959 7.29065 -35.2053 6.802 -34.63C5.79028 -33.4389 5.82959 -33.4511 4.67285 -33.9738ZM66.0308 -38.2393C65.408 -40.1816 66.2675 -41.9314 67.8453 -41.9314C69.5599 -41.9314 70.5499 -40.4012 70.125 -38.4081C69.6538 -36.1986 66.724 -36.0779 66.0308 -38.2393ZM323.208 -39.0419C322.42 -41.4594 324.577 -43.2676 326.193 -41.5448C326.952 -40.7371 327.058 -40.1996 326.641 -39.2821C325.987 -37.8444 323.652 -37.6806 323.208 -39.0419ZM649 -46.4261C649 -47.6975 648.636 -47.7104 613.03 -47.7104H577.06L560.809 -57.0601C551.871 -62.2021 543.175 -67.2586 541.483 -68.2969L538.407 -70.1841H481.962H425.518L424.624 -71.7894C423.968 -72.9683 423.25 -73.3947 421.919 -73.3947C419.701 -73.3947 418.302 -71.7374 418.302 -69.1092C418.302 -65.1776 422.167 -63.6558 424.53 -66.657L425.797 -68.2668L463.635 -68.1018C499.662 -67.9445 501.356 -67.8854 499.019 -66.8663C495.712 -65.4235 481.428 -58.4701 475.022 -55.1838L469.841 -52.5262L425.889 -52.3579L381.938 -52.1903L376.259 -57.4447C373.136 -60.3348 369.651 -63.6699 368.515 -64.8565L366.449 -67.014L353.244 -66.9729C345.982 -66.9498 326.541 -66.9447 310.043 -66.9601L280.047 -66.989L286.865 -71.528C293.4 -75.879 295.63 -77.3462 303.006 -82.1466L306.331 -84.3105H345.021L383.711 -84.3105L386.397 -87.521L389.083 -90.7315H400.835C411.995 -90.7315 412.621 -90.6667 413.267 -89.4473C414.216 -87.6591 416.898 -87.74 417.999 -89.5905C419.141 -91.5111 419.067 -93.0412 417.757 -94.5842C416.289 -96.3127 414.695 -96.201 413.169 -94.2631L411.906 -92.6579H399.987H388.068L385.309 -89.4499L382.55 -86.2419L344.085 -86.2278L305.621 -86.2143L299.924 -82.4689C296.791 -80.409 290.228 -76.0767 285.34 -72.8412L276.452 -66.9588L240.152 -66.9639L203.853 -66.9697L202.779 -68.5769C201.072 -71.1319 197.878 -70.3973 196.85 -67.2137C196.319 -65.5687 196.936 -63.3097 198.185 -62.3279C199.451 -61.3327 201.764 -61.8662 203.003 -63.4394L204.266 -65.0428L284.837 -65.0518L365.409 -65.0601L372.085 -58.7931L378.762 -52.5262L318.562 -52.363L258.361 -52.1993L257.095 -53.8078C254.74 -56.8 250.869 -55.0284 250.869 -50.9575C250.869 -47.2615 254.836 -45.8059 257.093 -48.6735L258.357 -50.2788L363.894 -50.2788C466.053 -50.2788 469.506 -50.3173 471.817 -51.4885C474.413 -52.8042 492.185 -61.454 500.905 -65.6463L506.336 -68.2578H522.051H537.766L542.117 -65.6823C544.51 -64.2658 546.468 -63.2988 546.468 -63.5344C546.468 -63.7694 546.897 -63.5164 547.422 -62.9726C547.947 -62.4281 554.941 -58.1934 562.964 -53.5625L577.552 -45.1419H613.276C648.636 -45.1419 649 -45.1548 649 -46.4261ZM227.985 -49.2848C226.849 -50.8959 227.524 -52.5262 229.327 -52.5262C230.453 -52.5262 231.005 -52.1743 231.137 -51.3717C231.353 -50.0476 230.337 -48.3524 229.327 -48.3524C228.95 -48.3524 228.346 -48.7718 227.985 -49.2848ZM649 -51.2419C649 -52.078 646.576 -52.2102 630.593 -52.2455C618.921 -52.2719 612.64 -52.5011 613.426 -52.8723C614.107 -53.1946 614.809 -53.899 614.984 -54.4371C615.26 -55.2847 617.56 -55.4156 632.151 -55.4156C646.764 -55.4156 649 -55.5434 649 -56.3788C649 -57.2142 646.773 -57.3419 632.225 -57.3419C616.039 -57.3419 615.424 -57.3869 614.767 -58.6262C613.993 -60.0857 610.917 -60.4067 609.841 -59.1399C608.428 -57.4755 609.365 -53.4938 611.368 -52.6507C611.818 -52.4613 610.744 -52.2834 608.981 -52.2558C606.411 -52.2154 605.22 -52.5711 602.982 -54.0493C601.445 -55.0631 597.488 -57.5641 594.189 -59.606C590.889 -61.6486 586.963 -64.0931 585.463 -65.0389C583.963 -65.9841 580.133 -68.3958 576.952 -70.3973L571.168 -74.0367H562.09C554.868 -74.0367 553.012 -74.2127 553.012 -74.8965C553.012 -75.7955 550.807 -77.2473 549.442 -77.2473C547.04 -77.2473 545.532 -72.0199 547.324 -69.9086C548.707 -68.2815 551.736 -68.6116 552.79 -70.5052C553.679 -72.1027 553.724 -72.1104 562.094 -72.1104H570.505L576.893 -68.1705C580.406 -66.0034 584.017 -63.7284 584.917 -63.1145C585.817 -62.5006 590.235 -59.7492 594.734 -57.0004C599.234 -54.2515 603.399 -51.615 603.991 -51.1405C604.847 -50.4547 609.552 -50.2788 627.034 -50.2788C646.196 -50.2788 649 -50.4014 649 -51.2419ZM41.6755 -53.2138C42.5138 -54.2008 42.7701 -55.406 42.5542 -57.3419C42.2171 -60.3611 38.3896 -61.3616 36.4388 -58.9402C35.1985 -57.3997 34.9783 -57.3638 26.6949 -57.3529L18.2197 -57.3419L14.4238 -59.6529C12.3355 -60.9243 8.05042 -63.5627 4.90082 -65.516C1.75122 -67.4693 -4.2851 -71.1967 -8.51343 -73.7992L-16.2007 -78.5315H-38.1006C-57.2032 -78.5315 -59.9999 -78.4082 -59.9999 -77.5683C-59.9999 -76.7317 -57.6565 -76.6052 -42.1801 -76.6052H-24.3596L-25.6407 -74.9999L-26.9218 -73.3947H-43.4606C-57.7988 -73.3947 -59.9999 -73.2662 -59.9999 -72.4315C-59.9999 -71.5961 -57.7715 -71.4683 -43.2141 -71.4683C-27.1035 -71.4683 -26.3912 -71.417 -25.4946 -70.1841C-24.376 -68.6463 -22.2288 -68.5133 -21.0437 -69.9086C-19.7719 -71.4067 -19.9595 -74.4188 -21.3993 -75.6054C-22.5593 -76.5622 -22.4824 -76.6052 -19.6186 -76.6052C-17.7457 -76.6052 -15.9143 -76.1583 -14.7249 -75.4109C-13.6793 -74.754 -7.54761 -70.9604 -1.09845 -66.98C5.35077 -62.9996 12.1675 -58.7694 14.0496 -57.5795L17.4719 -55.4156H26.2581C34.9297 -55.4156 35.0611 -55.3944 36.3084 -53.8104C37.769 -51.9547 40.3611 -51.6664 41.6755 -53.2138ZM610.73 -54.552C610.181 -55.1364 609.732 -55.9081 609.732 -56.2671C609.732 -57.3959 611.494 -59.2683 612.555 -59.2683C613.987 -59.2683 614.934 -56.6183 614.132 -54.8544C613.388 -53.2177 612.09 -53.1028 610.73 -54.552ZM37.4188 -55.564C36.6138 -57.0691 38.1354 -58.9293 39.6942 -58.3469C41.1945 -57.7863 41.5752 -56.3069 40.5341 -55.0811C39.4951 -53.8579 38.2266 -54.0544 37.4188 -55.564ZM169.289 -57.0299C171.43 -58.9376 170.069 -63.6796 167.363 -63.7425C166.878 -63.7541 165.846 -63.1742 165.069 -62.4551C163.668 -61.1574 163.197 -61.1471 107.19 -61.1798L50.7245 -61.2132L31.3127 -72.4405L11.9008 -83.6684H-24.0493C-55.6418 -83.6684 -59.9999 -83.5515 -59.9999 -82.7052C-59.9999 -81.8589 -55.6729 -81.742 -24.3275 -81.742H11.3451L26.5297 -73.0453C34.8811 -68.2623 42.0824 -64.1156 42.5323 -63.8311C42.9823 -63.546 44.824 -62.4108 46.6249 -61.3076L49.8988 -59.303L106.765 -59.2426L163.631 -59.1829L164.958 -57.6206C166.461 -55.851 167.766 -55.6731 169.289 -57.0299ZM165.244 -58.6262C164.829 -59.5386 164.829 -60.2822 165.244 -61.1946C166.274 -63.4612 169.607 -62.4801 169.607 -59.9104C169.607 -57.3407 166.274 -56.3595 165.244 -58.6262ZM649 -62.1578C649 -62.9906 646.969 -63.1209 633.991 -63.1209H618.982L616.675 -64.8315C615.406 -65.7722 612.282 -68.1178 609.732 -70.0448C607.183 -71.9711 604.238 -74.1967 603.188 -74.9897C602.138 -75.7833 599.165 -78.0602 596.583 -80.0501L591.886 -83.6684H528.373H464.861L456.716 -89.968C452.237 -93.4322 447.155 -97.333 445.425 -98.6365L442.278 -101.005H414.689H387.1L386.027 -102.611C383.997 -105.65 379.58 -103.89 379.58 -100.042C379.58 -96.1939 383.997 -94.4346 386.027 -97.4737L387.1 -99.0789H414.449H441.799L447.485 -94.7447C450.613 -92.3612 453.104 -90.1408 453.02 -89.8114C452.936 -89.4827 449.692 -86.9675 445.811 -84.2225L438.754 -79.2327L401.301 -79.2032L363.848 -79.1736L362.212 -81.0999C360.277 -83.3775 359.491 -83.4783 357.566 -81.6952C355.742 -80.0071 355.668 -77.3385 357.391 -75.4327C359.054 -73.5924 360.771 -73.6669 362.23 -75.642L363.415 -77.2473H401.418H439.42L441.429 -78.8526C442.534 -79.7354 443.522 -80.4578 443.625 -80.4578C443.727 -80.4578 446.375 -82.3065 449.509 -84.566L455.208 -88.6736L459.798 -85.2223L464.387 -81.7703L527.79 -81.7594L591.193 -81.7485L599.781 -75.2266C604.504 -71.6391 610.578 -67.0179 613.277 -64.9561L618.186 -61.2075L633.593 -61.201C646.927 -61.1953 649 -61.3243 649 -62.1578ZM636.036 -67.9367C639.66 -70.7993 639.738 -70.8262 644.347 -70.8262C648.71 -70.8262 649 -70.9103 649 -72.174C649 -73.4589 648.775 -73.5115 644.228 -73.29C639.581 -73.0633 639.354 -72.9773 635.576 -70.0152L631.697 -66.9736H626.186C620.692 -66.9736 620.664 -66.9813 617.521 -69.4604C615.787 -70.8281 608.366 -76.4703 601.029 -81.9982C589.615 -90.5986 587.608 -92.3452 587.122 -94.1026C586.062 -97.9341 581.95 -98.5235 580.307 -95.0799C579.301 -92.9712 580.153 -90.4233 582.239 -89.3041C583.406 -88.6787 583.944 -88.7243 585.169 -89.552C586.631 -90.5402 586.766 -90.4907 590.466 -87.5987C592.554 -85.9671 595.595 -83.6337 597.225 -82.4143C602.524 -78.4493 610.995 -72.0096 615.543 -68.4896L619.99 -65.0472H626.184H632.377L636.036 -67.9367ZM420.211 -69.2209C420.211 -70.8243 420.43 -71.1473 421.515 -71.1473C423.261 -71.1473 424.218 -69.3654 423.227 -67.9599C422.821 -67.3832 421.976 -66.998 421.35 -67.1033C420.484 -67.2484 420.211 -67.757 420.211 -69.2209ZM152.973 -69.0251C154.446 -70.0088 154.864 -70.841 154.873 -72.8135C154.889 -75.8526 151.628 -77.6447 148.983 -76.0523C148.368 -75.6825 145.809 -76.3137 141.247 -77.9613C137.497 -79.3155 133.939 -80.5156 133.339 -80.6286C132.739 -80.7416 131.144 -81.306 129.794 -81.8833C128.444 -82.4605 122.308 -84.6868 116.159 -86.8314L104.979 -90.7296L22.4894 -90.7315C-59.6607 -90.7335 -59.9999 -90.7283 -59.9999 -89.4486C-59.9999 -88.1702 -59.6542 -88.1631 1.24677 -88.1631C49.4888 -88.1631 62.6494 -88.3333 63.2281 -88.9658C63.8154 -89.6078 63.8853 -89.6078 63.5776 -88.9658C63.2722 -88.3294 67.6991 -88.1631 84.9343 -88.1631C104.897 -88.1631 106.941 -88.0623 109.918 -86.9283C111.701 -86.2497 115 -85.0714 117.25 -84.3111C119.5 -83.5502 122.445 -82.5074 123.795 -81.9931C125.144 -81.4781 131.025 -79.3771 136.863 -77.3231C147.397 -73.6174 147.481 -73.5738 147.928 -71.5403C148.219 -70.2188 148.869 -69.2723 149.757 -68.8742C151.457 -68.1133 151.619 -68.121 152.973 -69.0251ZM-25.5497 -72.3788C-25.8 -73.8672 -24.6536 -75.321 -23.2291 -75.321C-20.7083 -75.321 -19.8744 -72.2485 -21.9343 -70.5501C-22.9579 -69.7057 -23.301 -69.6877 -24.2522 -70.43C-24.8657 -70.9091 -25.4498 -71.7856 -25.5497 -72.3788ZM149.789 -71.58C148.978 -73.0929 149.762 -74.6789 151.32 -74.6789C152.079 -74.6789 152.7 -74.5581 152.7 -74.4104C152.7 -74.2628 152.837 -73.7221 153.004 -73.2091C153.351 -72.1458 151.779 -70.0107 150.903 -70.3543C150.585 -70.4795 150.083 -71.0311 149.789 -71.58ZM548.272 -71.8767C547.857 -73.1532 548.724 -74.9267 549.898 -75.199C551.13 -75.4847 552.194 -72.9496 551.347 -71.7483C550.471 -70.5058 548.695 -70.5797 548.272 -71.8767ZM358.627 -76.8081C357.098 -78.125 357.73 -80.1368 359.673 -80.1368C361.476 -80.1368 362.151 -78.5065 361.015 -76.8954C360.206 -75.7473 359.874 -75.7351 358.627 -76.8081ZM649 -82.7052C649 -83.5155 647.786 -83.6684 641.347 -83.6684H633.694L625.258 -90.4554C618.387 -95.9833 616.822 -97.5231 616.822 -98.7566C616.822 -100.809 615.441 -102.289 613.525 -102.289C612.316 -102.289 611.741 -101.832 611.093 -100.357C609.692 -97.1674 611.815 -94.2272 615.005 -94.9406C616.252 -95.2192 617.338 -94.6227 620.64 -91.8482C622.89 -89.9572 626.601 -86.9097 628.887 -85.0759L633.043 -81.742H641.022C647.75 -81.742 649 -81.8929 649 -82.7052ZM523.926 -86.2002C524.878 -87.2192 525.495 -88.2941 525.299 -88.5895C525.103 -88.8849 525.295 -88.7654 525.725 -88.3236C526.32 -87.7136 531.218 -87.5216 546.168 -87.5229L565.829 -87.5248L576.164 -95.5493L586.499 -103.574H617.75C645.164 -103.574 649 -103.692 649 -104.537C649 -105.382 645.13 -105.5 617.448 -105.5H585.897L581.862 -102.377C579.643 -100.659 576.028 -97.8416 573.828 -96.1162C571.628 -94.3909 568.683 -92.1911 567.283 -91.2279L564.738 -89.4775L544.552 -89.4621L524.365 -89.4473L523.827 -90.8921C523.124 -92.7792 520.08 -93.2152 518.602 -91.6401C517.128 -90.0695 517.223 -86.59 518.775 -85.3102C520.536 -83.8571 521.971 -84.105 523.926 -86.2002ZM413.945 -90.4021C413.559 -90.9499 413.419 -92.0453 413.616 -92.9706C413.886 -94.2375 414.306 -94.5842 415.567 -94.5842C417.554 -94.5842 418.64 -92.6739 417.757 -90.7315C417.069 -89.2181 414.911 -89.0319 413.945 -90.4021ZM581.899 -92.0569C581.452 -93.0406 581.464 -93.6198 581.947 -94.3042C583.465 -96.4592 586.244 -94.3331 585.125 -91.8719C584.423 -90.3283 582.638 -90.4304 581.899 -92.0569ZM11.9908 -95.0838C13.1923 -95.5101 14.1724 -97.1956 14.1724 -98.8349C14.1724 -102.063 10.7681 -103.418 8.71851 -101.005C7.65118 -99.7487 6.90076 -99.721 -26.1861 -99.721C-55.879 -99.721 -59.9999 -99.6035 -59.9999 -98.7579C-59.9999 -97.9122 -55.8638 -97.7947 -26.0449 -97.7947C6.4895 -97.7947 7.9375 -97.7447 8.54559 -96.5985C9.24316 -95.2828 10.7211 -94.633 11.9908 -95.0838ZM611.92 -96.8232C610.988 -98.1447 611.67 -100.827 613.07 -101.351C613.863 -101.647 614.575 -101.368 615.348 -100.458C616.307 -99.3293 616.379 -98.8921 615.841 -97.5006C615.122 -95.6417 613.01 -95.277 611.92 -96.8232ZM9.25299 -97.177C7.92059 -100.108 10.5264 -102.826 12.5754 -100.642C13.8511 -99.2831 13.9062 -98.2153 12.7701 -96.8771C11.5817 -95.4786 9.96198 -95.6167 9.25299 -97.177ZM381.554 -99.2273C380.736 -100.764 382.276 -102.591 383.882 -101.991C385.013 -101.569 385.492 -99.19 384.647 -98.1954C384.004 -97.4377 382.183 -98.0452 381.554 -99.2273Z" fill="white"/>
</svg>
